  0
SECTION
  2
HEADER
  9
$ACADVER
  1
AC1003
  9
$EXTMIN
 10
0
 20
46.7
  9
$EXTMAX
 10
94.8225
 20
0
  9
$INSUNITS
 70
1
  9
$INSBASE
 10
47.41125
 20
23.35
999
Created with OMAX LAYOUT for Windows. (www.omax.com) 4/16/2020
  0
ENDSEC
  0
SECTION
  2
TABLES
  0
TABLE
  2
LAYER
 70
    10
  0
LAYER
  2
0
 70
     0
 62
     7
  6
CONTINUOUS
  0
LAYER
  2
1
 70
     0
 62
     7
  6
CONTINUOUS
  0
LAYER
  2
2
 70
     0
 62
     7
  6
CONTINUOUS
  0
LAYER
  2
3
 70
     0
 62
     7
  6
CONTINUOUS
  0
LAYER
  2
4
 70
     0
 62
     7
  6
CONTINUOUS
  0
LAYER
  2
5
 70
     0
 62
     7
  6
CONTINUOUS
  0
LAYER
  2
6
 70
     0
 62
     7
  6
CONTINUOUS
  0
LAYER
  2
7
 70
     0
 62
     7
  6
CONTINUOUS
  0
LAYER
  2
8
 70
     0
 62
     7
  6
CONTINUOUS
  0
LAYER
  2
9
 70
     0
 62
     7
  6
CONTINUOUS
  0
LAYER
  2
10
 70
     0
 62
     7
  6
CONTINUOUS
  0
LAYER
  2
11
 70
     0
 62
     7
  6
CONTINUOUS
  0
LAYER
  2
12
 70
     0
 62
     7
  6
CONTINUOUS
  0
LAYER
  2
13
 70
     0
 62
     7
  6
CONTINUOUS
  0
LAYER
  2
14
 70
     0
 62
     7
  6
CONTINUOUS
  0
LAYER
  2
15
 70
     0
 62
     7
  6
CONTINUOUS
  0
LAYER
  2
16
 70
     0
 62
     7
  6
CONTINUOUS
  0
LAYER
  2
17
 70
     0
 62
     7
  6
CONTINUOUS
  0
LAYER
  2
18
 70
     0
 62
     7
  6
CONTINUOUS
  0
LAYER
  2
19
 70
     0
 62
     7
  6
CONTINUOUS
  0
LAYER
  2
20
 70
     0
 62
     7
  6
CONTINUOUS
  0
LAYER
  2
21
 70
     0
 62
     7
  6
CONTINUOUS
  0
LAYER
  2
22
 70
     0
 62
     7
  6
CONTINUOUS
  0
LAYER
  2
23
 70
     0
 62
     7
  6
CONTINUOUS
  0
LAYER
  2
24
 70
     0
 62
     7
  6
CONTINUOUS
  0
LAYER
  2
25
 70
     0
 62
     7
  6
CONTINUOUS
  0
LAYER
  2
26
 70
     0
 62
     7
  6
CONTINUOUS
  0
LAYER
  2
27
 70
     0
 62
     7
  6
CONTINUOUS
  0
LAYER
  2
28
 70
     0
 62
     7
  6
CONTINUOUS
  0
LAYER
  2
29
 70
     0
 62
     7
  6
CONTINUOUS
  0
LAYER
  2
30
 70
     0
 62
     7
  6
CONTINUOUS
  0
LAYER
  2
31
 70
     0
 62
     7
  6
CONTINUOUS
  0
ENDTAB
  0
ENDSEC
  0
SECTION
  2
ENTITIES
  0
LINE
  8
0
  6
CONTINUOUS
 62
0
 10
0
 20
0
 30
0.0
 11
0.794641843905809
 21
1.12639441864897
 31
0.0
  0
LINE
  8
0
  6
CONTINUOUS
 62
0
 10
0.755148915984159
 20
1.19162640261023
 30
0.0
 11
0.794641843905747
 21
4.62639441864904
 31
0.0
  0
LINE
  8
0
  6
CONTINUOUS
 62
0
 10
0.755148915984006
 20
4.69162640261025
 30
0.0
 11
0.79464184390575
 21
8.32639441864904
 31
0.0
  0
LINE
  8
0
  6
CONTINUOUS
 62
0
 10
0.755148915984007
 20
8.39162640261025
 30
0.0
 11
0.794641843905812
 21
12.026394418649
 31
0.0
  0
LINE
  8
0
  6
CONTINUOUS
 62
0
 10
0.75514891598416
 20
12.0916264026102
 30
0.0
 11
0.807975662738532
 21
15.4891055321565
 31
0.0
  0
LINE
  8
0
  6
CONTINUOUS
 62
0
 10
0.882690265095413
 20
15.5043577871374
 30
0.0
 11
7.93974259643133
 21
14.8924742422693
 31
0.0
  0
LINE
  8
0
  6
CONTINUOUS
 62
0
 10
7.92223225334701
 20
14.8182563807236
 30
0.0
 11
9.33035815609419
 21
15.473605581351
 31
0.0
  0
LINE
  8
0
  6
CONTINUOUS
 62
0
 10
9.36985108401584
 20
15.4083735973897
 30
0.0
 11
9.33035815609419
 21
11.973605581351
 31
0.0
  0
LINE
  8
0
  6
CONTINUOUS
 62
0
 10
9.36985108401584
 20
11.9083735973897
 30
0.0
 11
9.33035815609403
 21
8.27360558135092
 31
0.0
  0
LINE
  8
0
  6
CONTINUOUS
 62
0
 10
9.36985108401577
 20
8.20837359738972
 30
0.0
 11
9.33035815609403
 21
4.57360558135093
 31
0.0
  0
LINE
  8
0
  6
CONTINUOUS
 62
0
 10
9.36985108401577
 20
4.50837359738972
 30
0.0
 11
9.39797566273853
 21
1.08910553215653
 31
0.0
  0
LINE
  8
0
  6
CONTINUOUS
 62
0
 10
9.47269026509541
 20
1.10435778713737
 30
0.0
 11
16.6040522313175
 21
1.78028066066772
 31
0.0
  0
LINE
  8
0
  6
CONTINUOUS
 62
0
 10
16.530221146563
 20
1.79935614260972
 30
0.0
 11
17.9746418439058
 21
1.12639441864897
 31
0.0
  0
LINE
  8
0
  6
CONTINUOUS
 62
0
 10
17.9351489159842
 20
1.19162640261023
 30
0.0
 11
17.9746418439057
 21
4.62639441864904
 31
0.0
  0
LINE
  8
0
  6
CONTINUOUS
 62
0
 10
17.935148915984
 20
4.69162640261025
 30
0.0
 11
17.9746418439058
 21
8.32639441864904
 31
0.0
  0
LINE
  8
0
  6
CONTINUOUS
 62
0
 10
17.935148915984
 20
8.39162640261025
 30
0.0
 11
17.9746418439058
 21
12.026394418649
 31
0.0
  0
LINE
  8
0
  6
CONTINUOUS
 62
0
 10
17.9351489159842
 20
12.0916264026102
 30
0.0
 11
17.9879756627385
 21
15.4891055321565
 31
0.0
  0
LINE
  8
0
  6
CONTINUOUS
 62
0
 10
18.0626902650954
 20
15.5043577871374
 30
0.0
 11
25.1197425964313
 21
14.8924742422693
 31
0.0
  0
LINE
  8
0
  6
CONTINUOUS
 62
0
 10
25.102232253347
 20
14.8182563807236
 30
0.0
 11
26.5103581560942
 21
15.473605581351
 31
0.0
  0
LINE
  8
0
  6
CONTINUOUS
 62
0
 10
26.5498510840158
 20
15.4083735973897
 30
0.0
 11
26.5103581560942
 21
11.973605581351
 31
0.0
  0
LINE
  8
0
  6
CONTINUOUS
 62
0
 10
26.5498510840158
 20
11.9083735973897
 30
0.0
 11
26.510358156094
 21
8.27360558135092
 31
0.0
  0
LINE
  8
0
  6
CONTINUOUS
 62
0
 10
26.5498510840158
 20
8.20837359738972
 30
0.0
 11
26.510358156094
 21
4.57360558135093
 31
0.0
  0
LINE
  8
0
  6
CONTINUOUS
 62
0
 10
26.5498510840158
 20
4.50837359738972
 30
0.0
 11
26.5103581560942
 21
1.073605581351
 31
0.0
  0
LINE
  8
0
  6
CONTINUOUS
 62
0
 10
26.5498510840158
 20
1.00837359738974
 30
0.0
 11
33.7834295186973
 21
1.77869292784198
 31
0.0
  0
LINE
  8
0
  6
CONTINUOUS
 62
0
 10
33.7098655629118
 20
1.7987739511358
 30
0.0
 11
35.1546418439058
 21
1.12639441864897
 31
0.0
  0
LINE
  8
0
  6
CONTINUOUS
 62
0
 10
35.1151489159842
 20
1.19162640261023
 30
0.0
 11
35.1546418439058
 21
4.62639441864904
 31
0.0
  0
LINE
  8
0
  6
CONTINUOUS
 62
0
 10
35.115148915984
 20
4.69162640261025
 30
0.0
 11
35.1546418439058
 21
8.32639441864904
 31
0.0
  0
LINE
  8
0
  6
CONTINUOUS
 62
0
 10
35.115148915984
 20
8.39162640261025
 30
0.0
 11
35.1546418439058
 21
12.026394418649
 31
0.0
  0
LINE
  8
0
  6
CONTINUOUS
 62
0
 10
35.1151489159842
 20
12.0916264026102
 30
0.0
 11
35.1679756627385
 21
15.4891055321565
 31
0.0
  0
LINE
  8
0
  6
CONTINUOUS
 62
0
 10
35.2426902650954
 20
15.5043577871374
 30
0.0
 11
42.2997425964313
 21
14.8924742422693
 31
0.0
  0
LINE
  8
0
  6
CONTINUOUS
 62
0
 10
42.8223097349046
 20
16.2956422128626
 30
0.0
 11
42.9103581560942
 21
19.773605581351
 31
0.0
  0
LINE
  8
0
  6
CONTINUOUS
 62
0
 10
42.9498510840158
 20
19.7083735973897
 30
0.0
 11
42.9103581560942
 21
23.4736055813509
 31
0.0
  0
LINE
  8
0
  6
CONTINUOUS
 62
0
 10
42.949851084016
 20
23.4083735973897
 30
0.0
 11
42.9103581560943
 21
27.1736055813509
 31
0.0
  0
LINE
  8
0
  6
CONTINUOUS
 62
0
 10
42.949851084016
 20
27.1083735973897
 30
0.0
 11
42.9103581560942
 21
30.673605581351
 31
0.0
  0
LINE
  8
0
  6
CONTINUOUS
 62
0
 10
42.9498510840158
 20
30.6083735973897
 30
0.0
 11
35.6882045984392
 21
30.0117988659452
 31
0.0
  0
LINE
  8
0
  6
CONTINUOUS
 62
0
 10
35.7631481049997
 20
29.9977143385561
 30
0.0
 11
34.3746418439058
 21
30.726394418649
 31
0.0
  0
LINE
  8
0
  6
CONTINUOUS
 62
0
 10
34.3351489159842
 20
30.7916264026102
 30
0.0
 11
34.374641843906
 21
27.2263944186491
 31
0.0
  0
LINE
  8
0
  6
CONTINUOUS
 62
0
 10
34.3351489159842
 20
27.2916264026103
 30
0.0
 11
34.374641843906
 21
23.526394418649
 31
0.0
  0
LINE
  8
0
  6
CONTINUOUS
 62
0
 10
34.3351489159842
 20
23.5916264026103
 30
0.0
 11
34.3746418439058
 21
19.826394418649
 31
0.0
  0
LINE
  8
0
  6
CONTINUOUS
 62
0
 10
34.3351489159842
 20
19.8916264026102
 30
0.0
 11
34.3746418439058
 21
16.326394418649
 31
0.0
  0
LINE
  8
0
  6
CONTINUOUS
 62
0
 10
34.3351489159842
 20
16.3916264026102
 30
0.0
 11
27.1742330189115
 21
16.9078998775193
 31
0.0
  0
LINE
  8
0
  6
CONTINUOUS
 62
0
 10
27.1923902039598
 20
16.9819621467153
 30
0.0
 11
25.7170243372615
 21
16.3108944678434
 31
0.0
  0
LINE
  8
0
  6
CONTINUOUS
 62
0
 10
25.6423097349046
 20
16.2956422128626
 30
0.0
 11
25.7303581560942
 21
19.773605581351
 31
0.0
  0
LINE
  8
0
  6
CONTINUOUS
 62
0
 10
25.7698510840158
 20
19.7083735973897
 30
0.0
 11
25.7303581560943
 21
23.4736055813509
 31
0.0
  0
LINE
  8
0
  6
CONTINUOUS
 62
0
 10
25.769851084016
 20
23.4083735973897
 30
0.0
 11
25.7303581560943
 21
27.1736055813509
 31
0.0
  0
LINE
  8
0
  6
CONTINUOUS
 62
0
 10
25.769851084016
 20
27.1083735973897
 30
0.0
 11
25.7303581560942
 21
30.673605581351
 31
0.0
  0
LINE
  8
0
  6
CONTINUOUS
 62
0
 10
25.7698510840158
 20
30.6083735973897
 30
0.0
 11
18.5082045984392
 21
30.0117988659452
 31
0.0
  0
LINE
  8
0
  6
CONTINUOUS
 62
0
 10
18.5831481049997
 20
29.9977143385561
 30
0.0
 11
17.1270243372615
 21
30.7108944678434
 31
0.0
  0
LINE
  8
0
  6
CONTINUOUS
 62
0
 10
17.0523097349046
 20
30.6956422128626
 30
0.0
 11
17.194641843906
 21
27.2263944186491
 31
0.0
  0
LINE
  8
0
  6
CONTINUOUS
 62
0
 10
17.1551489159842
 20
27.2916264026103
 30
0.0
 11
17.194641843906
 21
23.526394418649
 31
0.0
  0
LINE
  8
0
  6
CONTINUOUS
 62
0
 10
17.1551489159842
 20
23.5916264026103
 30
0.0
 11
17.1946418439058
 21
19.826394418649
 31
0.0
  0
LINE
  8
0
  6
CONTINUOUS
 62
0
 10
17.1551489159842
 20
19.8916264026102
 30
0.0
 11
17.1946418439058
 21
16.326394418649
 31
0.0
  0
LINE
  8
0
  6
CONTINUOUS
 62
0
 10
17.1551489159842
 20
16.3916264026102
 30
0.0
 11
9.99423301891147
 21
16.9078998775193
 31
0.0
  0
LINE
  8
0
  6
CONTINUOUS
 62
0
 10
10.0123902039598
 20
16.9819621467153
 30
0.0
 11
8.53702433726147
 21
16.3108944678434
 31
0.0
  0
LINE
  8
0
  6
CONTINUOUS
 62
0
 10
8.46230973490459
 20
16.2956422128626
 30
0.0
 11
8.55035815609419
 21
19.773605581351
 31
0.0
  0
LINE
  8
0
  6
CONTINUOUS
 62
0
 10
8.58985108401584
 20
19.7083735973897
 30
0.0
 11
8.55035815609425
 21
23.4736055813509
 31
0.0
  0
LINE
  8
0
  6
CONTINUOUS
 62
0
 10
8.58985108401599
 20
23.4083735973897
 30
0.0
 11
8.55035815609426
 21
27.1736055813509
 31
0.0
  0
LINE
  8
0
  6
CONTINUOUS
 62
0
 10
8.589851084016
 20
27.1083735973897
 30
0.0
 11
8.5503581560942
 21
30.673605581351
 31
0.0
  0
LINE
  8
0
  6
CONTINUOUS
 62
0
 10
8.58985108401585
 20
30.6083735973897
 30
0.0
 11
1.34242119178913
 21
30.0423784924835
 31
0.0
  0
LINE
  8
0
  6
CONTINUOUS
 62
0
 10
1.41087238810947
 20
30.0087728856646
 30
0.0
 11
0.74035815609419
 21
31.473605581351
 31
0.0
  0
LINE
  8
0
  6
CONTINUOUS
 62
0
 10
0.779851084015841
 20
31.4083735973897
 30
0.0
 11
0.740358156094033
 21
34.9736055813509
 31
0.0
  0
LINE
  8
0
  6
CONTINUOUS
 62
0
 10
0.779851084015774
 20
34.9083735973897
 30
0.0
 11
0.740358156094034
 21
38.6736055813509
 31
0.0
  0
LINE
  8
0
  6
CONTINUOUS
 62
0
 10
0.779851084015777
 20
38.6083735973897
 30
0.0
 11
0.740358156094192
 21
42.373605581351
 31
0.0
  0
LINE
  8
0
  6
CONTINUOUS
 62
0
 10
0.779851084015844
 20
42.3083735973897
 30
0.0
 11
0.807975662738536
 21
45.8891055321565
 31
0.0
  0
LINE
  8
0
  6
CONTINUOUS
 62
0
 10
0.882690265095417
 20
45.9043577871374
 30
0.0
 11
7.96435858622309
 21
45.2804105978222
 31
0.0
  0
LINE
  8
0
  6
CONTINUOUS
 62
0
 10
7.9310911284353
 20
45.2117944237836
 30
0.0
 11
9.33035815609419
 21
45.873605581351
 31
0.0
  0
LINE
  8
0
  6
CONTINUOUS
 62
0
 10
9.36985108401584
 20
45.8083735973897
 30
0.0
 11
9.33035815609419
 21
42.373605581351
 31
0.0
  0
LINE
  8
0
  6
CONTINUOUS
 62
0
 10
9.36985108401584
 20
42.3083735973897
 30
0.0
 11
9.33035815609403
 21
38.6736055813509
 31
0.0
  0
LINE
  8
0
  6
CONTINUOUS
 62
0
 10
9.36985108401578
 20
38.6083735973897
 30
0.0
 11
9.33035815609403
 21
34.9736055813509
 31
0.0
  0
LINE
  8
0
  6
CONTINUOUS
 62
0
 10
9.36985108401577
 20
34.9083735973897
 30
0.0
 11
9.33035815609419
 21
31.473605581351
 31
0.0
  0
LINE
  8
0
  6
CONTINUOUS
 62
0
 10
9.36985108401584
 20
31.4083735973897
 30
0.0
 11
16.6034295186974
 21
32.178692927842
 31
0.0
  0
LINE
  8
0
  6
CONTINUOUS
 62
0
 10
16.5298655629118
 20
32.1987739511358
 30
0.0
 11
17.9746418439058
 21
31.526394418649
 31
0.0
  0
LINE
  8
0
  6
CONTINUOUS
 62
0
 10
17.9351489159842
 20
31.5916264026102
 30
0.0
 11
17.9746418439058
 21
35.0263944186491
 31
0.0
  0
LINE
  8
0
  6
CONTINUOUS
 62
0
 10
17.935148915984
 20
35.0916264026103
 30
0.0
 11
17.9746418439058
 21
38.7263944186491
 31
0.0
  0
LINE
  8
0
  6
CONTINUOUS
 62
0
 10
17.935148915984
 20
38.7916264026103
 30
0.0
 11
17.9746418439058
 21
42.426394418649
 31
0.0
  0
LINE
  8
0
  6
CONTINUOUS
 62
0
 10
17.9351489159842
 20
42.4916264026103
 30
0.0
 11
17.9398849726805
 21
45.880670045964
 31
0.0
  0
LINE
  8
0
  6
CONTINUOUS
 62
0
 10
17.9680338407247
 20
45.8098001347521
 30
0.0
 11
25.1443585862231
 21
45.2804105978222
 31
0.0
  0
LINE
  8
0
  6
CONTINUOUS
 62
0
 10
25.1110911284353
 20
45.2117944237836
 30
0.0
 11
26.5103581560942
 21
45.873605581351
 31
0.0
  0
LINE
  8
0
  6
CONTINUOUS
 62
0
 10
26.5498510840158
 20
45.8083735973897
 30
0.0
 11
26.5103581560942
 21
42.373605581351
 31
0.0
  0
LINE
  8
0
  6
CONTINUOUS
 62
0
 10
26.5498510840158
 20
42.3083735973897
 30
0.0
 11
26.510358156094
 21
38.6736055813509
 31
0.0
  0
LINE
  8
0
  6
CONTINUOUS
 62
0
 10
26.5498510840158
 20
38.6083735973897
 30
0.0
 11
26.510358156094
 21
34.9736055813509
 31
0.0
  0
LINE
  8
0
  6
CONTINUOUS
 62
0
 10
26.5498510840158
 20
34.9083735973897
 30
0.0
 11
26.5103581560942
 21
31.473605581351
 31
0.0
  0
LINE
  8
0
  6
CONTINUOUS
 62
0
 10
26.5498510840158
 20
31.4083735973897
 30
0.0
 11
33.7834295186973
 21
32.178692927842
 31
0.0
  0
LINE
  8
0
  6
CONTINUOUS
 62
0
 10
33.7098655629118
 20
32.1987739511358
 30
0.0
 11
35.1546418439058
 21
31.526394418649
 31
0.0
  0
LINE
  8
0
  6
CONTINUOUS
 62
0
 10
35.1151489159842
 20
31.5916264026102
 30
0.0
 11
35.1546418439058
 21
35.0263944186491
 31
0.0
  0
LINE
  8
0
  6
CONTINUOUS
 62
0
 10
35.115148915984
 20
35.0916264026103
 30
0.0
 11
35.1546418439058
 21
38.7263944186491
 31
0.0
  0
LINE
  8
0
  6
CONTINUOUS
 62
0
 10
35.115148915984
 20
38.7916264026103
 30
0.0
 11
35.1546418439058
 21
42.426394418649
 31
0.0
  0
LINE
  8
0
  6
CONTINUOUS
 62
0
 10
35.1151489159842
 20
42.4916264026103
 30
0.0
 11
35.1003581560942
 21
45.873605581351
 31
0.0
  0
LINE
  8
0
  6
CONTINUOUS
 62
0
 10
35.1398510840158
 20
45.8083735973897
 30
0.0
 11
42.3243585862231
 21
45.2804105978222
 31
0.0
  0
LINE
  8
0
  6
CONTINUOUS
 62
0
 10
42.282232253347
 20
14.8182563807236
 30
0.0
 11
43.6903581560942
 21
15.473605581351
 31
0.0
  0
LINE
  8
0
  6
CONTINUOUS
 62
0
 10
43.7298510840158
 20
15.4083735973897
 30
0.0
 11
43.6903581560942
 21
11.973605581351
 31
0.0
  0
LINE
  8
0
  6
CONTINUOUS
 62
0
 10
43.7298510840158
 20
11.9083735973897
 30
0.0
 11
43.690358156094
 21
8.27360558135092
 31
0.0
  0
LINE
  8
0
  6
CONTINUOUS
 62
0
 10
43.7298510840158
 20
8.20837359738972
 30
0.0
 11
43.690358156094
 21
4.57360558135093
 31
0.0
  0
LINE
  8
0
  6
CONTINUOUS
 62
0
 10
43.7298510840158
 20
4.50837359738972
 30
0.0
 11
43.6903581560942
 21
1.073605581351
 31
0.0
  0
LINE
  8
0
  6
CONTINUOUS
 62
0
 10
43.7298510840158
 20
1.00837359738974
 30
0.0
 11
50.9634295186973
 21
1.77869292784198
 31
0.0
  0
LINE
  8
0
  6
CONTINUOUS
 62
0
 10
50.8898655629118
 20
1.7987739511358
 30
0.0
 11
52.3346418439058
 21
1.12639441864897
 31
0.0
  0
LINE
  8
0
  6
CONTINUOUS
 62
0
 10
52.2951489159842
 20
1.19162640261023
 30
0.0
 11
52.3346418439058
 21
4.62639441864904
 31
0.0
  0
LINE
  8
0
  6
CONTINUOUS
 62
0
 10
52.295148915984
 20
4.69162640261025
 30
0.0
 11
52.3346418439058
 21
8.32639441864904
 31
0.0
  0
LINE
  8
0
  6
CONTINUOUS
 62
0
 10
52.295148915984
 20
8.39162640261025
 30
0.0
 11
52.3346418439058
 21
12.026394418649
 31
0.0
  0
LINE
  8
0
  6
CONTINUOUS
 62
0
 10
52.2951489159842
 20
12.0916264026102
 30
0.0
 11
52.3479756627385
 21
15.4891055321565
 31
0.0
  0
LINE
  8
0
  6
CONTINUOUS
 62
0
 10
52.4226902650954
 20
15.5043577871374
 30
0.0
 11
59.4797425964313
 21
14.8924742422693
 31
0.0
  0
LINE
  8
0
  6
CONTINUOUS
 62
0
 10
60.0023097349046
 20
16.2956422128626
 30
0.0
 11
60.0903581560942
 21
19.773605581351
 31
0.0
  0
LINE
  8
0
  6
CONTINUOUS
 62
0
 10
60.1298510840158
 20
19.7083735973897
 30
0.0
 11
60.0903581560942
 21
23.4736055813509
 31
0.0
  0
LINE
  8
0
  6
CONTINUOUS
 62
0
 10
60.129851084016
 20
23.4083735973897
 30
0.0
 11
60.0903581560943
 21
27.1736055813509
 31
0.0
  0
LINE
  8
0
  6
CONTINUOUS
 62
0
 10
60.129851084016
 20
27.1083735973897
 30
0.0
 11
60.0903581560942
 21
30.673605581351
 31
0.0
  0
LINE
  8
0
  6
CONTINUOUS
 62
0
 10
60.1298510840158
 20
30.6083735973897
 30
0.0
 11
52.8682045984392
 21
30.0117988659452
 31
0.0
  0
LINE
  8
0
  6
CONTINUOUS
 62
0
 10
52.9431481049997
 20
29.9977143385561
 30
0.0
 11
51.5546418439058
 21
30.726394418649
 31
0.0
  0
LINE
  8
0
  6
CONTINUOUS
 62
0
 10
51.5151489159842
 20
30.7916264026102
 30
0.0
 11
51.554641843906
 21
27.2263944186491
 31
0.0
  0
LINE
  8
0
  6
CONTINUOUS
 62
0
 10
51.5151489159842
 20
27.2916264026103
 30
0.0
 11
51.554641843906
 21
23.526394418649
 31
0.0
  0
LINE
  8
0
  6
CONTINUOUS
 62
0
 10
51.5151489159842
 20
23.5916264026103
 30
0.0
 11
51.5546418439058
 21
19.826394418649
 31
0.0
  0
LINE
  8
0
  6
CONTINUOUS
 62
0
 10
51.5151489159842
 20
19.8916264026102
 30
0.0
 11
51.5546418439058
 21
16.326394418649
 31
0.0
  0
LINE
  8
0
  6
CONTINUOUS
 62
0
 10
51.5151489159842
 20
16.3916264026102
 30
0.0
 11
44.3542330189115
 21
16.9078998775193
 31
0.0
  0
LINE
  8
0
  6
CONTINUOUS
 62
0
 10
44.3723902039598
 20
16.9819621467153
 30
0.0
 11
42.8970243372615
 21
16.3108944678434
 31
0.0
  0
LINE
  8
0
  6
CONTINUOUS
 62
0
 10
42.2910911284353
 20
45.2117944237836
 30
0.0
 11
43.6903581560942
 21
45.873605581351
 31
0.0
  0
LINE
  8
0
  6
CONTINUOUS
 62
0
 10
43.7298510840158
 20
45.8083735973897
 30
0.0
 11
43.6903581560942
 21
42.373605581351
 31
0.0
  0
LINE
  8
0
  6
CONTINUOUS
 62
0
 10
43.7298510840158
 20
42.3083735973897
 30
0.0
 11
43.690358156094
 21
38.6736055813509
 31
0.0
  0
LINE
  8
0
  6
CONTINUOUS
 62
0
 10
43.7298510840158
 20
38.6083735973897
 30
0.0
 11
43.690358156094
 21
34.9736055813509
 31
0.0
  0
LINE
  8
0
  6
CONTINUOUS
 62
0
 10
43.7298510840158
 20
34.9083735973897
 30
0.0
 11
43.6903581560942
 21
31.473605581351
 31
0.0
  0
LINE
  8
0
  6
CONTINUOUS
 62
0
 10
43.7298510840158
 20
31.4083735973897
 30
0.0
 11
50.9634295186973
 21
32.178692927842
 31
0.0
  0
LINE
  8
0
  6
CONTINUOUS
 62
0
 10
50.8898655629118
 20
32.1987739511358
 30
0.0
 11
52.3346418439058
 21
31.526394418649
 31
0.0
  0
LINE
  8
0
  6
CONTINUOUS
 62
0
 10
52.2951489159842
 20
31.5916264026102
 30
0.0
 11
52.3346418439058
 21
35.0263944186491
 31
0.0
  0
LINE
  8
0
  6
CONTINUOUS
 62
0
 10
52.295148915984
 20
35.0916264026103
 30
0.0
 11
52.3346418439058
 21
38.7263944186491
 31
0.0
  0
LINE
  8
0
  6
CONTINUOUS
 62
0
 10
52.295148915984
 20
38.7916264026103
 30
0.0
 11
52.3346418439058
 21
42.426394418649
 31
0.0
  0
LINE
  8
0
  6
CONTINUOUS
 62
0
 10
52.2951489159842
 20
42.4916264026103
 30
0.0
 11
52.2803581560942
 21
45.873605581351
 31
0.0
  0
LINE
  8
0
  6
CONTINUOUS
 62
0
 10
52.3198510840158
 20
45.8083735973897
 30
0.0
 11
59.5043585862231
 21
45.2804105978222
 31
0.0
  0
LINE
  8
0
  6
CONTINUOUS
 62
0
 10
59.462232253347
 20
14.8182563807236
 30
0.0
 11
60.8703581560942
 21
15.473605581351
 31
0.0
  0
LINE
  8
0
  6
CONTINUOUS
 62
0
 10
60.9098510840158
 20
15.4083735973897
 30
0.0
 11
60.8703581560942
 21
11.973605581351
 31
0.0
  0
LINE
  8
0
  6
CONTINUOUS
 62
0
 10
60.9098510840158
 20
11.9083735973897
 30
0.0
 11
60.870358156094
 21
8.27360558135092
 31
0.0
  0
LINE
  8
0
  6
CONTINUOUS
 62
0
 10
60.9098510840158
 20
8.20837359738972
 30
0.0
 11
60.870358156094
 21
4.57360558135093
 31
0.0
  0
LINE
  8
0
  6
CONTINUOUS
 62
0
 10
60.9098510840158
 20
4.50837359738972
 30
0.0
 11
60.8703581560942
 21
1.073605581351
 31
0.0
  0
LINE
  8
0
  6
CONTINUOUS
 62
0
 10
60.9098510840158
 20
1.00837359738974
 30
0.0
 11
68.1434295186973
 21
1.77869292784198
 31
0.0
  0
LINE
  8
0
  6
CONTINUOUS
 62
0
 10
68.0698655629118
 20
1.7987739511358
 30
0.0
 11
69.5146418439058
 21
1.12639441864897
 31
0.0
  0
LINE
  8
0
  6
CONTINUOUS
 62
0
 10
69.4751489159842
 20
1.19162640261023
 30
0.0
 11
69.5146418439058
 21
4.62639441864904
 31
0.0
  0
LINE
  8
0
  6
CONTINUOUS
 62
0
 10
69.475148915984
 20
4.69162640261025
 30
0.0
 11
69.5146418439058
 21
8.32639441864904
 31
0.0
  0
LINE
  8
0
  6
CONTINUOUS
 62
0
 10
69.475148915984
 20
8.39162640261025
 30
0.0
 11
69.5146418439058
 21
12.026394418649
 31
0.0
  0
LINE
  8
0
  6
CONTINUOUS
 62
0
 10
69.4751489159842
 20
12.0916264026102
 30
0.0
 11
69.5279756627385
 21
15.4891055321565
 31
0.0
  0
LINE
  8
0
  6
CONTINUOUS
 62
0
 10
69.6026902650954
 20
15.5043577871374
 30
0.0
 11
76.6597425964313
 21
14.8924742422693
 31
0.0
  0
LINE
  8
0
  6
CONTINUOUS
 62
0
 10
77.1823097349046
 20
16.2956422128626
 30
0.0
 11
77.2703581560942
 21
19.773605581351
 31
0.0
  0
LINE
  8
0
  6
CONTINUOUS
 62
0
 10
77.3098510840158
 20
19.7083735973897
 30
0.0
 11
77.2703581560942
 21
23.4736055813509
 31
0.0
  0
LINE
  8
0
  6
CONTINUOUS
 62
0
 10
77.309851084016
 20
23.4083735973897
 30
0.0
 11
77.2703581560943
 21
27.1736055813509
 31
0.0
  0
LINE
  8
0
  6
CONTINUOUS
 62
0
 10
77.309851084016
 20
27.1083735973897
 30
0.0
 11
77.2703581560942
 21
30.673605581351
 31
0.0
  0
LINE
  8
0
  6
CONTINUOUS
 62
0
 10
77.3098510840158
 20
30.6083735973897
 30
0.0
 11
70.0482045984392
 21
30.0117988659452
 31
0.0
  0
LINE
  8
0
  6
CONTINUOUS
 62
0
 10
70.1231481049997
 20
29.9977143385561
 30
0.0
 11
68.7346418439058
 21
30.726394418649
 31
0.0
  0
LINE
  8
0
  6
CONTINUOUS
 62
0
 10
68.6951489159842
 20
30.7916264026102
 30
0.0
 11
68.734641843906
 21
27.2263944186491
 31
0.0
  0
LINE
  8
0
  6
CONTINUOUS
 62
0
 10
68.6951489159842
 20
27.2916264026103
 30
0.0
 11
68.734641843906
 21
23.526394418649
 31
0.0
  0
LINE
  8
0
  6
CONTINUOUS
 62
0
 10
68.6951489159842
 20
23.5916264026103
 30
0.0
 11
68.7346418439058
 21
19.826394418649
 31
0.0
  0
LINE
  8
0
  6
CONTINUOUS
 62
0
 10
68.6951489159842
 20
19.8916264026102
 30
0.0
 11
68.7346418439058
 21
16.326394418649
 31
0.0
  0
LINE
  8
0
  6
CONTINUOUS
 62
0
 10
68.6951489159842
 20
16.3916264026102
 30
0.0
 11
61.5342330189115
 21
16.9078998775193
 31
0.0
  0
LINE
  8
0
  6
CONTINUOUS
 62
0
 10
61.5523902039598
 20
16.9819621467153
 30
0.0
 11
60.0770243372615
 21
16.3108944678434
 31
0.0
  0
LINE
  8
0
  6
CONTINUOUS
 62
0
 10
59.4710911284353
 20
45.2117944237836
 30
0.0
 11
60.8703581560942
 21
45.873605581351
 31
0.0
  0
LINE
  8
0
  6
CONTINUOUS
 62
0
 10
60.9098510840158
 20
45.8083735973897
 30
0.0
 11
60.8703581560942
 21
42.373605581351
 31
0.0
  0
LINE
  8
0
  6
CONTINUOUS
 62
0
 10
60.9098510840158
 20
42.3083735973897
 30
0.0
 11
60.870358156094
 21
38.6736055813509
 31
0.0
  0
LINE
  8
0
  6
CONTINUOUS
 62
0
 10
60.9098510840158
 20
38.6083735973897
 30
0.0
 11
60.870358156094
 21
34.9736055813509
 31
0.0
  0
LINE
  8
0
  6
CONTINUOUS
 62
0
 10
60.9098510840158
 20
34.9083735973897
 30
0.0
 11
60.8703581560942
 21
31.473605581351
 31
0.0
  0
LINE
  8
0
  6
CONTINUOUS
 62
0
 10
60.9098510840158
 20
31.4083735973897
 30
0.0
 11
68.1434295186973
 21
32.178692927842
 31
0.0
  0
LINE
  8
0
  6
CONTINUOUS
 62
0
 10
68.0698655629118
 20
32.1987739511358
 30
0.0
 11
69.5146418439058
 21
31.526394418649
 31
0.0
  0
LINE
  8
0
  6
CONTINUOUS
 62
0
 10
69.4751489159842
 20
31.5916264026102
 30
0.0
 11
69.5146418439058
 21
35.0263944186491
 31
0.0
  0
LINE
  8
0
  6
CONTINUOUS
 62
0
 10
69.475148915984
 20
35.0916264026103
 30
0.0
 11
69.5146418439058
 21
38.7263944186491
 31
0.0
  0
LINE
  8
0
  6
CONTINUOUS
 62
0
 10
69.475148915984
 20
38.7916264026103
 30
0.0
 11
69.5146418439058
 21
42.426394418649
 31
0.0
  0
LINE
  8
0
  6
CONTINUOUS
 62
0
 10
69.4751489159842
 20
42.4916264026103
 30
0.0
 11
69.4603581560942
 21
45.873605581351
 31
0.0
  0
LINE
  8
0
  6
CONTINUOUS
 62
0
 10
69.4998510840158
 20
45.8083735973897
 30
0.0
 11
76.6843585862231
 21
45.2804105978222
 31
0.0
  0
LINE
  8
0
  6
CONTINUOUS
 62
0
 10
76.642232253347
 20
14.8182563807236
 30
0.0
 11
78.0503581560942
 21
15.473605581351
 31
0.0
  0
LINE
  8
0
  6
CONTINUOUS
 62
0
 10
78.0898510840158
 20
15.4083735973897
 30
0.0
 11
78.0503581560942
 21
11.973605581351
 31
0.0
  0
LINE
  8
0
  6
CONTINUOUS
 62
0
 10
78.0898510840158
 20
11.9083735973897
 30
0.0
 11
78.050358156094
 21
8.27360558135092
 31
0.0
  0
LINE
  8
0
  6
CONTINUOUS
 62
0
 10
78.0898510840158
 20
8.20837359738972
 30
0.0
 11
78.050358156094
 21
4.57360558135093
 31
0.0
  0
LINE
  8
0
  6
CONTINUOUS
 62
0
 10
78.0898510840158
 20
4.50837359738972
 30
0.0
 11
78.0503581560942
 21
1.073605581351
 31
0.0
  0
LINE
  8
0
  6
CONTINUOUS
 62
0
 10
78.0898510840158
 20
1.00837359738974
 30
0.0
 11
85.3234295186973
 21
1.77869292784198
 31
0.0
  0
LINE
  8
0
  6
CONTINUOUS
 62
0
 10
85.2498655629118
 20
1.7987739511358
 30
0.0
 11
86.6946418439058
 21
1.12639441864897
 31
0.0
  0
LINE
  8
0
  6
CONTINUOUS
 62
0
 10
86.6551489159842
 20
1.19162640261023
 30
0.0
 11
86.6946418439058
 21
4.62639441864904
 31
0.0
  0
LINE
  8
0
  6
CONTINUOUS
 62
0
 10
86.655148915984
 20
4.69162640261025
 30
0.0
 11
86.6946418439058
 21
8.32639441864904
 31
0.0
  0
LINE
  8
0
  6
CONTINUOUS
 62
0
 10
86.655148915984
 20
8.39162640261025
 30
0.0
 11
86.6946418439058
 21
12.026394418649
 31
0.0
  0
LINE
  8
0
  6
CONTINUOUS
 62
0
 10
86.6551489159842
 20
12.0916264026102
 30
0.0
 11
86.7079756627385
 21
15.4891055321565
 31
0.0
  0
LINE
  8
0
  6
CONTINUOUS
 62
0
 10
86.7826902650954
 20
15.5043577871374
 30
0.0
 11
93.8397425964313
 21
14.8924742422693
 31
0.0
  0
LINE
  8
0
  6
CONTINUOUS
 62
0
 10
94.3623097349046
 20
16.2956422128626
 30
0.0
 11
94.4503581560942
 21
19.773605581351
 31
0.0
  0
LINE
  8
0
  6
CONTINUOUS
 62
0
 10
94.4898510840158
 20
19.7083735973897
 30
0.0
 11
94.4503581560942
 21
23.4736055813509
 31
0.0
  0
LINE
  8
0
  6
CONTINUOUS
 62
0
 10
94.489851084016
 20
23.4083735973897
 30
0.0
 11
94.4503581560943
 21
27.1736055813509
 31
0.0
  0
LINE
  8
0
  6
CONTINUOUS
 62
0
 10
94.489851084016
 20
27.1083735973897
 30
0.0
 11
94.4503581560942
 21
30.673605581351
 31
0.0
  0
LINE
  8
0
  6
CONTINUOUS
 62
0
 10
94.4898510840158
 20
30.6083735973897
 30
0.0
 11
87.2282045984392
 21
30.0117988659452
 31
0.0
  0
LINE
  8
0
  6
CONTINUOUS
 62
0
 10
87.3031481049997
 20
29.9977143385561
 30
0.0
 11
85.9146418439058
 21
30.726394418649
 31
0.0
  0
LINE
  8
0
  6
CONTINUOUS
 62
0
 10
85.8751489159842
 20
30.7916264026102
 30
0.0
 11
85.914641843906
 21
27.2263944186491
 31
0.0
  0
LINE
  8
0
  6
CONTINUOUS
 62
0
 10
85.8751489159842
 20
27.2916264026103
 30
0.0
 11
85.914641843906
 21
23.526394418649
 31
0.0
  0
LINE
  8
0
  6
CONTINUOUS
 62
0
 10
85.8751489159842
 20
23.5916264026103
 30
0.0
 11
85.9146418439058
 21
19.826394418649
 31
0.0
  0
LINE
  8
0
  6
CONTINUOUS
 62
0
 10
85.8751489159842
 20
19.8916264026102
 30
0.0
 11
85.9146418439058
 21
16.326394418649
 31
0.0
  0
LINE
  8
0
  6
CONTINUOUS
 62
0
 10
85.8751489159842
 20
16.3916264026102
 30
0.0
 11
78.7142330189115
 21
16.9078998775193
 31
0.0
  0
LINE
  8
0
  6
CONTINUOUS
 62
0
 10
78.7323902039598
 20
16.9819621467153
 30
0.0
 11
77.2570243372615
 21
16.3108944678434
 31
0.0
  0
LINE
  8
0
  6
CONTINUOUS
 62
0
 10
76.6510911284353
 20
45.2117944237836
 30
0.0
 11
78.0503581560942
 21
45.873605581351
 31
0.0
  0
LINE
  8
0
  6
CONTINUOUS
 62
0
 10
78.0898510840158
 20
45.8083735973897
 30
0.0
 11
78.0503581560942
 21
42.373605581351
 31
0.0
  0
LINE
  8
0
  6
CONTINUOUS
 62
0
 10
78.0898510840158
 20
42.3083735973897
 30
0.0
 11
78.050358156094
 21
38.6736055813509
 31
0.0
  0
LINE
  8
0
  6
CONTINUOUS
 62
0
 10
78.0898510840158
 20
38.6083735973897
 30
0.0
 11
78.050358156094
 21
34.9736055813509
 31
0.0
  0
LINE
  8
0
  6
CONTINUOUS
 62
0
 10
78.0898510840158
 20
34.9083735973897
 30
0.0
 11
78.0503581560942
 21
31.473605581351
 31
0.0
  0
LINE
  8
0
  6
CONTINUOUS
 62
0
 10
78.0898510840158
 20
31.4083735973897
 30
0.0
 11
85.3234295186973
 21
32.178692927842
 31
0.0
  0
LINE
  8
0
  6
CONTINUOUS
 62
0
 10
85.2498655629118
 20
32.1987739511358
 30
0.0
 11
86.6946418439058
 21
31.526394418649
 31
0.0
  0
LINE
  8
0
  6
CONTINUOUS
 62
0
 10
86.6551489159842
 20
31.5916264026102
 30
0.0
 11
86.6946418439058
 21
35.0263944186491
 31
0.0
  0
LINE
  8
0
  6
CONTINUOUS
 62
0
 10
86.655148915984
 20
35.0916264026103
 30
0.0
 11
86.6946418439058
 21
38.7263944186491
 31
0.0
  0
LINE
  8
0
  6
CONTINUOUS
 62
0
 10
86.655148915984
 20
38.7916264026103
 30
0.0
 11
86.6946418439058
 21
42.426394418649
 31
0.0
  0
LINE
  8
0
  6
CONTINUOUS
 62
0
 10
86.6551489159842
 20
42.4916264026103
 30
0.0
 11
86.6403581560942
 21
45.873605581351
 31
0.0
  0
LINE
  8
0
  6
CONTINUOUS
 62
0
 10
86.6798510840158
 20
45.8083735973897
 30
0.0
 11
93.8643585862231
 21
45.2804105978222
 31
0.0
  0
LINE
  8
0
  6
CONTINUOUS
 62
0
 10
93.822232253347
 20
14.8182563807236
 30
0.0
 11
94.4370243372615
 21
16.3108944678434
 31
0.0
  0
ARC
  8
8
  6
CONTINUOUS
 62
8
 10
0.7425
 20
1.09999999999998
 30
0.0
 40
0.139999999999997
 50
90
 51
270
  0
LINE
  8
8
  6
CONTINUOUS
 62
8
 10
0.7425
 20
0.959999999999987
 30
0.0
 11
0.792499999999997
 21
0.959999999999987
 31
0.0
  0
ARC
  8
8
  6
CONTINUOUS
 62
8
 10
0.792499999999998
 20
1.09999999999998
 30
0.0
 40
0.139999999999997
 50
270
 51
90
  0
LINE
  8
8
  6
CONTINUOUS
 62
8
 10
0.792499999999997
 20
1.23999999999998
 30
0.0
 11
0.7425
 21
1.23999999999998
 31
0.0
  0
ARC
  8
8
  6
CONTINUOUS
 62
8
 10
0.742499999999777
 20
4.59999999999998
 30
0.0
 40
0.14
 50
89.9999999999992
 51
269.999999999999
  0
LINE
  8
8
  6
CONTINUOUS
 62
8
 10
0.7425
 20
4.45999999999998
 30
0.0
 11
0.792499999999997
 21
4.45999999999998
 31
0.0
  0
ARC
  8
8
  6
CONTINUOUS
 62
8
 10
0.792499999999998
 20
4.59999999999998
 30
0.0
 40
0.14
 50
270
 51
90
  0
LINE
  8
8
  6
CONTINUOUS
 62
8
 10
0.792499999999997
 20
4.73999999999998
 30
0.0
 11
0.742499999999779
 21
4.73999999999998
 31
0.0
  0
ARC
  8
8
  6
CONTINUOUS
 62
8
 10
0.742499999999777
 20
8.29999999999999
 30
0.0
 40
0.140000000000005
 50
89.9999999999992
 51
269.999999999999
  0
LINE
  8
8
  6
CONTINUOUS
 62
8
 10
0.7425
 20
8.15999999999998
 30
0.0
 11
0.7925
 21
8.15999999999998
 31
0.0
  0
ARC
  8
8
  6
CONTINUOUS
 62
8
 10
0.792500000000001
 20
8.29999999999999
 30
0.0
 40
0.140000000000005
 50
270
 51
90
  0
LINE
  8
8
  6
CONTINUOUS
 62
8
 10
0.7925
 20
8.43999999999999
 30
0.0
 11
0.742499999999779
 21
8.43999999999999
 31
0.0
  0
ARC
  8
8
  6
CONTINUOUS
 62
8
 10
0.7425
 20
12
 30
0.0
 40
0.140000000000001
 50
90
 51
270
  0
LINE
  8
8
  6
CONTINUOUS
 62
8
 10
0.7425
 20
11.86
 30
0.0
 11
0.7925
 21
11.86
 31
0.0
  0
ARC
  8
8
  6
CONTINUOUS
 62
8
 10
0.792500000000001
 20
12
 30
0.0
 40
0.140000000000001
 50
270
 51
90
  0
LINE
  8
8
  6
CONTINUOUS
 62
8
 10
0.7925
 20
12.14
 30
0.0
 11
0.7425
 21
12.14
 31
0.0
  0
ARC
  8
8
  6
CONTINUOUS
 62
8
 10
0.7925
 20
15.5
 30
0.0
 40
0.14
 50
359.999999999999
 51
89.9999999999997
  0
LINE
  8
8
  6
CONTINUOUS
 62
8
 10
0.7925
 20
15.64
 30
0.0
 11
0.7425
 21
15.64
 31
0.0
  0
ARC
  8
8
  6
CONTINUOUS
 62
8
 10
0.7425
 20
15.5
 30
0.0
 40
0.140000000000001
 50
90
 51
270
  0
LINE
  8
8
  6
CONTINUOUS
 62
8
 10
0.7425
 20
15.36
 30
0.0
 11
0.7925
 21
15.36
 31
0.0
  0
ARC
  8
8
  6
CONTINUOUS
 62
8
 10
0.792500000000002
 20
15.5
 30
0.0
 40
0.14
 50
269.999999999999
 51
1.0813885916976E-13
  0
ARC
  8
8
  6
CONTINUOUS
 62
8
 10
5.42250000000003
 20
12.3
 30
0.0
 40
3.49999999999994
 50
359.999999999999
 51
44.9999999999998
  0
LINE
  8
8
  6
CONTINUOUS
 62
8
 10
8.9225
 20
12.3
 30
0.0
 11
8.9225
 21
4.29999999999998
 31
0.0
  0
ARC
  8
8
  6
CONTINUOUS
 62
8
 10
5.42250000004742
 20
4.29999999995257
 30
0.0
 40
3.49999999995258
 50
269.999999999223
 51
7.76463298111163E-10
  0
LINE
  8
8
  6
CONTINUOUS
 62
8
 10
5.4225
 20
0.799999999999984
 30
0.0
 11
2.9225
 21
0.799999999999984
 31
0.0
  0
ARC
  8
8
  6
CONTINUOUS
 62
8
 10
2.91317796243345
 20
-3.36300475155002
 30
0.0
 40
4.1630151887559
 50
89.8717002386078
 51
116.116994773477
  0
ARC
  8
8
  6
CONTINUOUS
 62
8
 10
0.742500000000041
 20
1.1
 30
0.0
 40
0.799999999999993
 50
246.421821521795
 51
295.000086326116
  0
LINE
  8
8
  6
CONTINUOUS
 62
8
 10
0.422499999999999
 20
0.366787888807085
 30
0.0
 11
0.422499999999999
 21
16.2332121111929
 31
0.0
  0
ARC
  8
8
  6
CONTINUOUS
 62
8
 10
0.742500000000066
 20
15.5
 30
0.0
 40
0.800000000000005
 50
64.9914671708372
 51
113.578178478207
  0
ARC
  8
8
  6
CONTINUOUS
 62
8
 10
2.90385592486704
 20
19.9225835782401
 30
0.0
 40
4.12262573624049
 50
243.753678617697
 51
270.259114100487
  0
LINE
  8
8
  6
CONTINUOUS
 62
8
 10
2.9225
 20
15.8
 30
0.0
 11
5.4225
 21
15.8
 31
0.0
  0
ARC
  8
8
  6
CONTINUOUS
 62
8
 10
5.42249999999994
 20
12.2999999999999
 30
0.0
 40
3.50000000000006
 50
44.9999999999998
 51
89.9999999999993
  0
ARC
  8
8
  6
CONTINUOUS
 62
8
 10
9.3825
 20
15.5
 30
0.0
 40
0.140000000000001
 50
270
 51
90
  0
LINE
  8
8
  6
CONTINUOUS
 62
8
 10
9.3825
 20
15.64
 30
0.0
 11
9.3325
 21
15.64
 31
0.0
  0
ARC
  8
8
  6
CONTINUOUS
 62
8
 10
9.3325
 20
15.5
 30
0.0
 40
0.140000000000001
 50
90
 51
270
  0
LINE
  8
8
  6
CONTINUOUS
 62
8
 10
9.3325
 20
15.36
 30
0.0
 11
9.3825
 21
15.36
 31
0.0
  0
ARC
  8
8
  6
CONTINUOUS
 62
8
 10
9.3825
 20
12
 30
0.0
 40
0.140000000000001
 50
270
 51
90
  0
LINE
  8
8
  6
CONTINUOUS
 62
8
 10
9.3825
 20
12.14
 30
0.0
 11
9.3325
 21
12.14
 31
0.0
  0
ARC
  8
8
  6
CONTINUOUS
 62
8
 10
9.3325
 20
12
 30
0.0
 40
0.140000000000001
 50
90
 51
270
  0
LINE
  8
8
  6
CONTINUOUS
 62
8
 10
9.3325
 20
11.86
 30
0.0
 11
9.3825
 21
11.86
 31
0.0
  0
ARC
  8
8
  6
CONTINUOUS
 62
8
 10
9.3825
 20
8.29999999999999
 30
0.0
 40
0.140000000000005
 50
270
 51
90
  0
LINE
  8
8
  6
CONTINUOUS
 62
8
 10
9.3825
 20
8.43999999999999
 30
0.0
 11
9.33249999999978
 21
8.43999999999999
 31
0.0
  0
ARC
  8
8
  6
CONTINUOUS
 62
8
 10
9.33249999999978
 20
8.29999999999999
 30
0.0
 40
0.140000000000005
 50
89.9999999999992
 51
269.999999999999
  0
LINE
  8
8
  6
CONTINUOUS
 62
8
 10
9.3325
 20
8.15999999999998
 30
0.0
 11
9.3825
 21
8.15999999999998
 31
0.0
  0
ARC
  8
8
  6
CONTINUOUS
 62
8
 10
9.3825
 20
4.59999999999998
 30
0.0
 40
0.14
 50
270
 51
90
  0
LINE
  8
8
  6
CONTINUOUS
 62
8
 10
9.3825
 20
4.73999999999998
 30
0.0
 11
9.33249999999978
 21
4.73999999999998
 31
0.0
  0
ARC
  8
8
  6
CONTINUOUS
 62
8
 10
9.33249999999978
 20
4.59999999999998
 30
0.0
 40
0.14
 50
89.9999999999992
 51
269.999999999999
  0
LINE
  8
8
  6
CONTINUOUS
 62
8
 10
9.3325
 20
4.45999999999998
 30
0.0
 11
9.3825
 21
4.45999999999998
 31
0.0
  0
ARC
  8
8
  6
CONTINUOUS
 62
8
 10
9.38250000000001
 20
1.09999999999999
 30
0.0
 40
0.139999999999995
 50
1.99738833995909E-12
 51
90.000000000002
  0
LINE
  8
8
  6
CONTINUOUS
 62
8
 10
9.3825
 20
1.23999999999998
 30
0.0
 11
9.3325
 21
1.23999999999998
 31
0.0
  0
ARC
  8
8
  6
CONTINUOUS
 62
8
 10
9.3325
 20
1.09999999999998
 30
0.0
 40
0.139999999999997
 50
90
 51
270
  0
LINE
  8
8
  6
CONTINUOUS
 62
8
 10
9.3325
 20
0.959999999999987
 30
0.0
 11
9.3825
 21
0.959999999999987
 31
0.0
  0
ARC
  8
8
  6
CONTINUOUS
 62
8
 10
9.3825
 20
1.09999999999999
 30
0.0
 40
0.140000000000001
 50
270
 51
5.1524985839709E-13
  0
ARC
  8
8
  6
CONTINUOUS
 62
8
 10
14.0125000000475
 20
4.29999999995255
 30
0.0
 40
3.49999999995256
 50
269.999999999223
 51
314.999999999999
  0
LINE
  8
8
  6
CONTINUOUS
 62
8
 10
14.0125
 20
0.799999999999984
 30
0.0
 11
11.5125
 21
0.799999999999984
 31
0.0
  0
ARC
  8
8
  6
CONTINUOUS
 62
8
 10
11.5031779624334
 20
-3.36300475155002
 30
0.0
 40
4.1630151887559
 50
89.8717002386078
 51
116.116994773477
  0
ARC
  8
8
  6
CONTINUOUS
 62
8
 10
9.33250000000004
 20
1.09999999999999
 30
0.0
 40
0.799999999999992
 50
246.421821521795
 51
295.000086326116
  0
LINE
  8
8
  6
CONTINUOUS
 62
8
 10
9.0125
 20
0.366787888807085
 30
0.0
 11
9.0125
 21
16.2332121111929
 31
0.0
  0
ARC
  8
8
  6
CONTINUOUS
 62
8
 10
9.33250000000007
 20
15.5
 30
0.0
 40
0.800000000000005
 50
64.9914671708372
 51
113.578178478207
  0
ARC
  8
8
  6
CONTINUOUS
 62
8
 10
11.493855924867
 20
19.9225835782401
 30
0.0
 40
4.12262573624049
 50
243.753678617697
 51
270.259114100487
  0
LINE
  8
8
  6
CONTINUOUS
 62
8
 10
11.5125
 20
15.8
 30
0.0
 11
14.0125
 21
15.8
 31
0.0
  0
ARC
  8
8
  6
CONTINUOUS
 62
8
 10
14.0125
 20
12.3
 30
0.0
 40
3.5
 50
359.999999999999
 51
89.9999999999998
  0
LINE
  8
8
  6
CONTINUOUS
 62
8
 10
17.5125
 20
12.3
 30
0.0
 11
17.5125
 21
4.29999999999998
 31
0.0
  0
ARC
  8
8
  6
CONTINUOUS
 62
8
 10
14.0125000000474
 20
4.29999999995256
 30
0.0
 40
3.49999999995258
 50
315
 51
7.7671774248568E-10
  0
ARC
  8
8
  6
CONTINUOUS
 62
8
 10
17.9225
 20
1.09999999999998
 30
0.0
 40
0.139999999999997
 50
90
 51
270
  0
LINE
  8
8
  6
CONTINUOUS
 62
8
 10
17.9225
 20
0.959999999999987
 30
0.0
 11
17.9725
 21
0.959999999999987
 31
0.0
  0
ARC
  8
8
  6
CONTINUOUS
 62
8
 10
17.9725
 20
1.09999999999998
 30
0.0
 40
0.139999999999997
 50
270
 51
90
  0
LINE
  8
8
  6
CONTINUOUS
 62
8
 10
17.9725
 20
1.23999999999998
 30
0.0
 11
17.9225
 21
1.23999999999998
 31
0.0
  0
ARC
  8
8
  6
CONTINUOUS
 62
8
 10
17.9224999999998
 20
4.59999999999998
 30
0.0
 40
0.14
 50
89.9999999999992
 51
269.999999999999
  0
LINE
  8
8
  6
CONTINUOUS
 62
8
 10
17.9225
 20
4.45999999999998
 30
0.0
 11
17.9725
 21
4.45999999999998
 31
0.0
  0
ARC
  8
8
  6
CONTINUOUS
 62
8
 10
17.9725
 20
4.59999999999998
 30
0.0
 40
0.14
 50
270
 51
90
  0
LINE
  8
8
  6
CONTINUOUS
 62
8
 10
17.9725
 20
4.73999999999998
 30
0.0
 11
17.9224999999998
 21
4.73999999999998
 31
0.0
  0
ARC
  8
8
  6
CONTINUOUS
 62
8
 10
17.9224999999998
 20
8.29999999999999
 30
0.0
 40
0.140000000000005
 50
89.9999999999992
 51
269.999999999999
  0
LINE
  8
8
  6
CONTINUOUS
 62
8
 10
17.9225
 20
8.15999999999998
 30
0.0
 11
17.9725
 21
8.15999999999998
 31
0.0
  0
ARC
  8
8
  6
CONTINUOUS
 62
8
 10
17.9725
 20
8.29999999999999
 30
0.0
 40
0.140000000000005
 50
270
 51
90
  0
LINE
  8
8
  6
CONTINUOUS
 62
8
 10
17.9725
 20
8.43999999999999
 30
0.0
 11
17.9224999999998
 21
8.43999999999999
 31
0.0
  0
ARC
  8
8
  6
CONTINUOUS
 62
8
 10
17.9225
 20
12
 30
0.0
 40
0.140000000000001
 50
90
 51
270
  0
LINE
  8
8
  6
CONTINUOUS
 62
8
 10
17.9225
 20
11.86
 30
0.0
 11
17.9725
 21
11.86
 31
0.0
  0
ARC
  8
8
  6
CONTINUOUS
 62
8
 10
17.9725
 20
12
 30
0.0
 40
0.140000000000001
 50
270
 51
90
  0
LINE
  8
8
  6
CONTINUOUS
 62
8
 10
17.9725
 20
12.14
 30
0.0
 11
17.9225
 21
12.14
 31
0.0
  0
ARC
  8
8
  6
CONTINUOUS
 62
8
 10
17.9725
 20
15.5
 30
0.0
 40
0.140000000000001
 50
359.999999999999
 51
89.9999999999998
  0
LINE
  8
8
  6
CONTINUOUS
 62
8
 10
17.9725
 20
15.64
 30
0.0
 11
17.9225
 21
15.64
 31
0.0
  0
ARC
  8
8
  6
CONTINUOUS
 62
8
 10
17.9225
 20
15.5
 30
0.0
 40
0.140000000000001
 50
90
 51
270
  0
LINE
  8
8
  6
CONTINUOUS
 62
8
 10
17.9225
 20
15.36
 30
0.0
 11
17.9725
 21
15.36
 31
0.0
  0
ARC
  8
8
  6
CONTINUOUS
 62
8
 10
17.9725
 20
15.5
 30
0.0
 40
0.14
 50
269.999999999999
 51
360
  0
ARC
  8
8
  6
CONTINUOUS
 62
8
 10
22.6025
 20
12.3
 30
0.0
 40
3.49999999999995
 50
8.44834837263747E-16
 51
45.0000000000005
  0
LINE
  8
8
  6
CONTINUOUS
 62
8
 10
26.1025
 20
12.3
 30
0.0
 11
26.1025
 21
4.29999999999998
 31
0.0
  0
ARC
  8
8
  6
CONTINUOUS
 62
8
 10
22.6025000000474
 20
4.29999999995257
 30
0.0
 40
3.49999999995258
 50
269.999999999223
 51
7.76463298111163E-10
  0
LINE
  8
8
  6
CONTINUOUS
 62
8
 10
22.6025
 20
0.799999999999984
 30
0.0
 11
20.1025
 21
0.799999999999984
 31
0.0
  0
ARC
  8
8
  6
CONTINUOUS
 62
8
 10
20.0931779624334
 20
-3.36300475155004
 30
0.0
 40
4.16301518875592
 50
89.8717002386077
 51
116.116994773477
  0
ARC
  8
8
  6
CONTINUOUS
 62
8
 10
17.9225
 20
1.09999999999998
 30
0.0
 40
0.799999999999981
 50
246.421821521795
 51
295.000086326116
  0
LINE
  8
8
  6
CONTINUOUS
 62
8
 10
17.6025
 20
0.366787888807085
 30
0.0
 11
17.6025
 21
16.2332121111929
 31
0.0
  0
ARC
  8
8
  6
CONTINUOUS
 62
8
 10
17.9225000000001
 20
15.5
 30
0.0
 40
0.800000000000003
 50
64.9914671708372
 51
113.578178478207
  0
ARC
  8
8
  6
CONTINUOUS
 62
8
 10
20.083855924867
 20
19.9225835782401
 30
0.0
 40
4.12262573624049
 50
243.753678617697
 51
270.259114100487
  0
LINE
  8
8
  6
CONTINUOUS
 62
8
 10
20.1025
 20
15.8
 30
0.0
 11
22.6025
 21
15.8
 31
0.0
  0
ARC
  8
8
  6
CONTINUOUS
 62
8
 10
22.6024999999999
 20
12.3
 30
0.0
 40
3.50000000000002
 50
44.9999999999995
 51
89.9999999999991
  0
ARC
  8
8
  6
CONTINUOUS
 62
8
 10
26.5625
 20
15.5
 30
0.0
 40
0.140000000000001
 50
270
 51
90
  0
LINE
  8
8
  6
CONTINUOUS
 62
8
 10
26.5625
 20
15.64
 30
0.0
 11
26.5125
 21
15.64
 31
0.0
  0
ARC
  8
8
  6
CONTINUOUS
 62
8
 10
26.5125
 20
15.5
 30
0.0
 40
0.140000000000001
 50
90
 51
270
  0
LINE
  8
8
  6
CONTINUOUS
 62
8
 10
26.5125
 20
15.36
 30
0.0
 11
26.5625
 21
15.36
 31
0.0
  0
ARC
  8
8
  6
CONTINUOUS
 62
8
 10
26.5625
 20
12
 30
0.0
 40
0.140000000000001
 50
270
 51
90
  0
LINE
  8
8
  6
CONTINUOUS
 62
8
 10
26.5625
 20
12.14
 30
0.0
 11
26.5125
 21
12.14
 31
0.0
  0
ARC
  8
8
  6
CONTINUOUS
 62
8
 10
26.5125
 20
12
 30
0.0
 40
0.140000000000001
 50
90
 51
270
  0
LINE
  8
8
  6
CONTINUOUS
 62
8
 10
26.5125
 20
11.86
 30
0.0
 11
26.5625
 21
11.86
 31
0.0
  0
ARC
  8
8
  6
CONTINUOUS
 62
8
 10
26.5625
 20
8.29999999999999
 30
0.0
 40
0.140000000000005
 50
270
 51
90
  0
LINE
  8
8
  6
CONTINUOUS
 62
8
 10
26.5625
 20
8.43999999999999
 30
0.0
 11
26.5124999999998
 21
8.43999999999999
 31
0.0
  0
ARC
  8
8
  6
CONTINUOUS
 62
8
 10
26.5124999999998
 20
8.29999999999999
 30
0.0
 40
0.140000000000005
 50
89.9999999999992
 51
269.999999999999
  0
LINE
  8
8
  6
CONTINUOUS
 62
8
 10
26.5125
 20
8.15999999999998
 30
0.0
 11
26.5625
 21
8.15999999999998
 31
0.0
  0
ARC
  8
8
  6
CONTINUOUS
 62
8
 10
26.5625
 20
4.59999999999998
 30
0.0
 40
0.14
 50
270
 51
90
  0
LINE
  8
8
  6
CONTINUOUS
 62
8
 10
26.5625
 20
4.73999999999998
 30
0.0
 11
26.5124999999998
 21
4.73999999999998
 31
0.0
  0
ARC
  8
8
  6
CONTINUOUS
 62
8
 10
26.5124999999998
 20
4.59999999999998
 30
0.0
 40
0.14
 50
89.9999999999992
 51
269.999999999999
  0
LINE
  8
8
  6
CONTINUOUS
 62
8
 10
26.5125
 20
4.45999999999998
 30
0.0
 11
26.5625
 21
4.45999999999998
 31
0.0
  0
ARC
  8
8
  6
CONTINUOUS
 62
8
 10
26.5625
 20
1.09999999999998
 30
0.0
 40
0.139999999999997
 50
270
 51
90
  0
LINE
  8
8
  6
CONTINUOUS
 62
8
 10
26.5625
 20
1.23999999999998
 30
0.0
 11
26.5125
 21
1.23999999999998
 31
0.0
  0
ARC
  8
8
  6
CONTINUOUS
 62
8
 10
26.5125
 20
1.09999999999998
 30
0.0
 40
0.139999999999997
 50
90
 51
270
  0
LINE
  8
8
  6
CONTINUOUS
 62
8
 10
26.5125
 20
0.959999999999987
 30
0.0
 11
26.5625
 21
0.959999999999987
 31
0.0
  0
ARC
  8
8
  6
CONTINUOUS
 62
8
 10
31.1925000000475
 20
4.29999999995256
 30
0.0
 40
3.49999999995257
 50
269.999999999223
 51
314.999999999999
  0
LINE
  8
8
  6
CONTINUOUS
 62
8
 10
31.1925
 20
0.799999999999984
 30
0.0
 11
28.6925
 21
0.799999999999984
 31
0.0
  0
ARC
  8
8
  6
CONTINUOUS
 62
8
 10
28.6831779624334
 20
-3.36300475155004
 30
0.0
 40
4.16301518875592
 50
89.8717002386077
 51
116.116994773477
  0
ARC
  8
8
  6
CONTINUOUS
 62
8
 10
26.5125
 20
1.09999999999998
 30
0.0
 40
0.799999999999981
 50
246.421821521795
 51
295.000086326116
  0
LINE
  8
8
  6
CONTINUOUS
 62
8
 10
26.1925
 20
0.366787888807085
 30
0.0
 11
26.1925
 21
16.2332121111929
 31
0.0
  0
ARC
  8
8
  6
CONTINUOUS
 62
8
 10
26.5125000000001
 20
15.5
 30
0.0
 40
0.800000000000003
 50
64.9914671708372
 51
113.578178478207
  0
ARC
  8
8
  6
CONTINUOUS
 62
8
 10
28.673855924867
 20
19.9225835782401
 30
0.0
 40
4.12262573624049
 50
243.753678617697
 51
270.259114100487
  0
LINE
  8
8
  6
CONTINUOUS
 62
8
 10
28.6925
 20
15.8
 30
0.0
 11
31.1925
 21
15.8
 31
0.0
  0
ARC
  8
8
  6
CONTINUOUS
 62
8
 10
31.1925
 20
12.3
 30
0.0
 40
3.5
 50
359.999999999999
 51
89.9999999999998
  0
LINE
  8
8
  6
CONTINUOUS
 62
8
 10
34.6925
 20
12.3
 30
0.0
 11
34.6925
 21
4.29999999999998
 31
0.0
  0
ARC
  8
8
  6
CONTINUOUS
 62
8
 10
31.1925000000474
 20
4.29999999995256
 30
0.0
 40
3.49999999995258
 50
315
 51
7.7671774248568E-10
  0
ARC
  8
8
  6
CONTINUOUS
 62
8
 10
35.1025
 20
1.09999999999998
 30
0.0
 40
0.139999999999997
 50
90
 51
270
  0
LINE
  8
8
  6
CONTINUOUS
 62
8
 10
35.1025
 20
0.959999999999987
 30
0.0
 11
35.1525
 21
0.959999999999987
 31
0.0
  0
ARC
  8
8
  6
CONTINUOUS
 62
8
 10
35.1525
 20
1.09999999999998
 30
0.0
 40
0.139999999999997
 50
270
 51
90
  0
LINE
  8
8
  6
CONTINUOUS
 62
8
 10
35.1525
 20
1.23999999999998
 30
0.0
 11
35.1025
 21
1.23999999999998
 31
0.0
  0
ARC
  8
8
  6
CONTINUOUS
 62
8
 10
35.1024999999998
 20
4.59999999999998
 30
0.0
 40
0.14
 50
89.9999999999992
 51
269.999999999999
  0
LINE
  8
8
  6
CONTINUOUS
 62
8
 10
35.1025
 20
4.45999999999998
 30
0.0
 11
35.1525
 21
4.45999999999998
 31
0.0
  0
ARC
  8
8
  6
CONTINUOUS
 62
8
 10
35.1525
 20
4.59999999999998
 30
0.0
 40
0.14
 50
270
 51
90
  0
LINE
  8
8
  6
CONTINUOUS
 62
8
 10
35.1525
 20
4.73999999999998
 30
0.0
 11
35.1024999999998
 21
4.73999999999998
 31
0.0
  0
ARC
  8
8
  6
CONTINUOUS
 62
8
 10
35.1024999999998
 20
8.29999999999999
 30
0.0
 40
0.140000000000005
 50
89.9999999999992
 51
269.999999999999
  0
LINE
  8
8
  6
CONTINUOUS
 62
8
 10
35.1025
 20
8.15999999999998
 30
0.0
 11
35.1525
 21
8.15999999999998
 31
0.0
  0
ARC
  8
8
  6
CONTINUOUS
 62
8
 10
35.1525
 20
8.29999999999999
 30
0.0
 40
0.140000000000005
 50
270
 51
90
  0
LINE
  8
8
  6
CONTINUOUS
 62
8
 10
35.1525
 20
8.43999999999999
 30
0.0
 11
35.1024999999998
 21
8.43999999999999
 31
0.0
  0
ARC
  8
8
  6
CONTINUOUS
 62
8
 10
35.1025
 20
12
 30
0.0
 40
0.140000000000001
 50
90
 51
270
  0
LINE
  8
8
  6
CONTINUOUS
 62
8
 10
35.1025
 20
11.86
 30
0.0
 11
35.1525
 21
11.86
 31
0.0
  0
ARC
  8
8
  6
CONTINUOUS
 62
8
 10
35.1525
 20
12
 30
0.0
 40
0.140000000000001
 50
270
 51
90
  0
LINE
  8
8
  6
CONTINUOUS
 62
8
 10
35.1525
 20
12.14
 30
0.0
 11
35.1025
 21
12.14
 31
0.0
  0
ARC
  8
8
  6
CONTINUOUS
 62
8
 10
35.1525
 20
15.5
 30
0.0
 40
0.139999999999997
 50
359.999999999998
 51
89.9999999999983
  0
LINE
  8
8
  6
CONTINUOUS
 62
8
 10
35.1525
 20
15.64
 30
0.0
 11
35.1025
 21
15.64
 31
0.0
  0
ARC
  8
8
  6
CONTINUOUS
 62
8
 10
35.1025
 20
15.5
 30
0.0
 40
0.140000000000001
 50
90
 51
270
  0
LINE
  8
8
  6
CONTINUOUS
 62
8
 10
35.1025
 20
15.36
 30
0.0
 11
35.1525
 21
15.36
 31
0.0
  0
ARC
  8
8
  6
CONTINUOUS
 62
8
 10
35.1525
 20
15.5
 30
0.0
 40
0.139999999999997
 50
270.000000000001
 51
1.45033293474736E-12
  0
ARC
  8
8
  6
CONTINUOUS
 62
8
 10
39.7825
 20
12.3
 30
0.0
 40
3.49999999999995
 50
8.44834837263747E-16
 51
45.0000000000005
  0
LINE
  8
8
  6
CONTINUOUS
 62
8
 10
43.2825
 20
12.3
 30
0.0
 11
43.2825
 21
4.29999999999998
 31
0.0
  0
ARC
  8
8
  6
CONTINUOUS
 62
8
 10
39.7825000000474
 20
4.29999999995257
 30
0.0
 40
3.49999999995258
 50
269.999999999223
 51
7.76463298111163E-10
  0
LINE
  8
8
  6
CONTINUOUS
 62
8
 10
39.7825
 20
0.799999999999984
 30
0.0
 11
37.2825
 21
0.799999999999984
 31
0.0
  0
ARC
  8
8
  6
CONTINUOUS
 62
8
 10
37.2731779624334
 20
-3.36300475155004
 30
0.0
 40
4.16301518875592
 50
89.8717002386077
 51
116.116994773477
  0
ARC
  8
8
  6
CONTINUOUS
 62
8
 10
35.1025
 20
1.09999999999998
 30
0.0
 40
0.799999999999981
 50
246.421821521795
 51
295.000086326116
  0
ARC
  8
8
  6
CONTINUOUS
 62
8
 10
35.1025000000001
 20
15.5
 30
0.0
 40
0.800000000000003
 50
64.9914671708372
 51
113.578178478207
  0
ARC
  8
8
  6
CONTINUOUS
 62
8
 10
37.263855924867
 20
19.9225835782401
 30
0.0
 40
4.12262573624049
 50
243.753678617697
 51
270.259114100487
  0
LINE
  8
8
  6
CONTINUOUS
 62
8
 10
37.2825
 20
15.8
 30
0.0
 11
39.7825
 21
15.8
 31
0.0
  0
ARC
  8
8
  6
CONTINUOUS
 62
8
 10
39.7824999999999
 20
12.3
 30
0.0
 40
3.50000000000002
 50
44.9999999999995
 51
89.9999999999991
  0
ARC
  8
8
  6
CONTINUOUS
 62
8
 10
42.9125
 20
16.3
 30
0.0
 40
0.140000000000001
 50
179.999999999999
 51
269.999999999999
  0
LINE
  8
8
  6
CONTINUOUS
 62
8
 10
42.9125
 20
16.16
 30
0.0
 11
42.9625
 21
16.16
 31
0.0
  0
ARC
  8
8
  6
CONTINUOUS
 62
8
 10
42.9625
 20
16.3
 30
0.0
 40
0.140000000000001
 50
270
 51
90
  0
LINE
  8
8
  6
CONTINUOUS
 62
8
 10
42.9625
 20
16.44
 30
0.0
 11
42.9125
 21
16.44
 31
0.0
  0
ARC
  8
8
  6
CONTINUOUS
 62
8
 10
42.9125
 20
16.3
 30
0.0
 40
0.140000000000001
 50
89.9999999999998
 51
180
  0
ARC
  8
8
  6
CONTINUOUS
 62
8
 10
42.9625
 20
19.8
 30
0.0
 40
0.140000000000001
 50
270
 51
90
  0
LINE
  8
8
  6
CONTINUOUS
 62
8
 10
42.9625
 20
19.94
 30
0.0
 11
42.9125
 21
19.94
 31
0.0
  0
ARC
  8
8
  6
CONTINUOUS
 62
8
 10
42.9125
 20
19.8
 30
0.0
 40
0.140000000000001
 50
90
 51
270
  0
LINE
  8
8
  6
CONTINUOUS
 62
8
 10
42.9125
 20
19.66
 30
0.0
 11
42.9625
 21
19.66
 31
0.0
  0
ARC
  8
8
  6
CONTINUOUS
 62
8
 10
42.9625000000002
 20
23.5
 30
0.0
 40
0.140000000000001
 50
269.999999999999
 51
89.9999999999996
  0
LINE
  8
8
  6
CONTINUOUS
 62
8
 10
42.9625
 20
23.64
 30
0.0
 11
42.9125
 21
23.64
 31
0.0
  0
ARC
  8
8
  6
CONTINUOUS
 62
8
 10
42.9125
 20
23.5
 30
0.0
 40
0.140000000000001
 50
90
 51
270
  0
LINE
  8
8
  6
CONTINUOUS
 62
8
 10
42.9125
 20
23.36
 30
0.0
 11
42.9625000000002
 21
23.36
 31
0.0
  0
ARC
  8
8
  6
CONTINUOUS
 62
8
 10
42.9625000000002
 20
27.2
 30
0.0
 40
0.140000000000001
 50
269.999999999999
 51
89.9999999999996
  0
LINE
  8
8
  6
CONTINUOUS
 62
8
 10
42.9625
 20
27.34
 30
0.0
 11
42.9125
 21
27.34
 31
0.0
  0
ARC
  8
8
  6
CONTINUOUS
 62
8
 10
42.9125
 20
27.2
 30
0.0
 40
0.140000000000001
 50
90
 51
270
  0
LINE
  8
8
  6
CONTINUOUS
 62
8
 10
42.9125
 20
27.06
 30
0.0
 11
42.9625000000002
 21
27.06
 31
0.0
  0
ARC
  8
8
  6
CONTINUOUS
 62
8
 10
42.9625
 20
30.7
 30
0.0
 40
0.140000000000001
 50
270
 51
90
  0
LINE
  8
8
  6
CONTINUOUS
 62
8
 10
42.9625
 20
30.84
 30
0.0
 11
42.9125
 21
30.84
 31
0.0
  0
ARC
  8
8
  6
CONTINUOUS
 62
8
 10
42.9125
 20
30.7
 30
0.0
 40
0.140000000000001
 50
90
 51
270
  0
LINE
  8
8
  6
CONTINUOUS
 62
8
 10
42.9125
 20
30.56
 30
0.0
 11
42.9625
 21
30.56
 31
0.0
  0
ARC
  8
8
  6
CONTINUOUS
 62
8
 10
38.2824999999526
 20
27.5000000000474
 30
0.0
 40
3.49999999995258
 50
89.9999999992237
 51
135
  0
LINE
  8
8
  6
CONTINUOUS
 62
8
 10
38.2825
 20
31
 30
0.0
 11
40.7825
 21
31
 31
0.0
  0
ARC
  8
8
  6
CONTINUOUS
 62
8
 10
40.7918220375666
 20
35.16300475155
 30
0.0
 40
4.16301518875592
 50
269.871700238607
 51
296.116994773477
  0
ARC
  8
8
  6
CONTINUOUS
 62
8
 10
42.9625
 20
30.7
 30
0.0
 40
0.799999999999981
 50
66.4218215217947
 51
115.000086326116
  0
LINE
  8
8
  6
CONTINUOUS
 62
8
 10
43.2825
 20
31.4332121111929
 30
0.0
 11
43.2825
 21
15.5667878888071
 31
0.0
  0
ARC
  8
8
  6
CONTINUOUS
 62
8
 10
42.9624999999999
 20
16.3
 30
0.0
 40
0.800000000000003
 50
244.991467170837
 51
293.578178478207
  0
ARC
  8
8
  6
CONTINUOUS
 62
8
 10
40.801144075133
 20
11.8774164217599
 30
0.0
 40
4.12262573624049
 50
63.7536786176975
 51
90.2591141004872
  0
LINE
  8
8
  6
CONTINUOUS
 62
8
 10
40.7825
 20
16
 30
0.0
 11
38.2825
 21
16
 31
0.0
  0
ARC
  8
8
  6
CONTINUOUS
 62
8
 10
38.2825
 20
19.5
 30
0.0
 40
3.50000000000001
 50
180
 51
270
  0
LINE
  8
8
  6
CONTINUOUS
 62
8
 10
34.7825
 20
19.5
 30
0.0
 11
34.7825
 21
27.5
 31
0.0
  0
ARC
  8
8
  6
CONTINUOUS
 62
8
 10
38.2824999999526
 20
27.5000000000474
 30
0.0
 40
3.49999999995258
 50
135
 51
180.000000000776
  0
ARC
  8
8
  6
CONTINUOUS
 62
8
 10
34.3225
 20
30.7
 30
0.0
 40
0.140000000000001
 50
90
 51
270
  0
LINE
  8
8
  6
CONTINUOUS
 62
8
 10
34.3225
 20
30.56
 30
0.0
 11
34.3725
 21
30.56
 31
0.0
  0
ARC
  8
8
  6
CONTINUOUS
 62
8
 10
34.3725
 20
30.7
 30
0.0
 40
0.140000000000001
 50
270
 51
90
  0
LINE
  8
8
  6
CONTINUOUS
 62
8
 10
34.3725
 20
30.84
 30
0.0
 11
34.3225
 21
30.84
 31
0.0
  0
ARC
  8
8
  6
CONTINUOUS
 62
8
 10
34.3225
 20
27.2
 30
0.0
 40
0.140000000000001
 50
90
 51
270
  0
LINE
  8
8
  6
CONTINUOUS
 62
8
 10
34.3225
 20
27.06
 30
0.0
 11
34.3725000000002
 21
27.06
 31
0.0
  0
ARC
  8
8
  6
CONTINUOUS
 62
8
 10
34.3725000000002
 20
27.2
 30
0.0
 40
0.140000000000001
 50
269.999999999999
 51
89.9999999999996
  0
LINE
  8
8
  6
CONTINUOUS
 62
8
 10
34.3725
 20
27.34
 30
0.0
 11
34.3225
 21
27.34
 31
0.0
  0
ARC
  8
8
  6
CONTINUOUS
 62
8
 10
34.3225
 20
23.5
 30
0.0
 40
0.140000000000001
 50
90
 51
270
  0
LINE
  8
8
  6
CONTINUOUS
 62
8
 10
34.3225
 20
23.36
 30
0.0
 11
34.3725000000002
 21
23.36
 31
0.0
  0
ARC
  8
8
  6
CONTINUOUS
 62
8
 10
34.3725000000002
 20
23.5
 30
0.0
 40
0.140000000000001
 50
269.999999999999
 51
89.9999999999996
  0
LINE
  8
8
  6
CONTINUOUS
 62
8
 10
34.3725
 20
23.64
 30
0.0
 11
34.3225
 21
23.64
 31
0.0
  0
ARC
  8
8
  6
CONTINUOUS
 62
8
 10
34.3225
 20
19.8
 30
0.0
 40
0.140000000000001
 50
90
 51
270
  0
LINE
  8
8
  6
CONTINUOUS
 62
8
 10
34.3225
 20
19.66
 30
0.0
 11
34.3725
 21
19.66
 31
0.0
  0
ARC
  8
8
  6
CONTINUOUS
 62
8
 10
34.3725
 20
19.8
 30
0.0
 40
0.140000000000001
 50
270
 51
90
  0
LINE
  8
8
  6
CONTINUOUS
 62
8
 10
34.3725
 20
19.94
 30
0.0
 11
34.3225
 21
19.94
 31
0.0
  0
ARC
  8
8
  6
CONTINUOUS
 62
8
 10
34.3225
 20
16.3
 30
0.0
 40
0.140000000000001
 50
90
 51
270
  0
LINE
  8
8
  6
CONTINUOUS
 62
8
 10
34.3225
 20
16.16
 30
0.0
 11
34.3725
 21
16.16
 31
0.0
  0
ARC
  8
8
  6
CONTINUOUS
 62
8
 10
34.3725
 20
16.3
 30
0.0
 40
0.140000000000001
 50
270
 51
90
  0
LINE
  8
8
  6
CONTINUOUS
 62
8
 10
34.3725
 20
16.44
 30
0.0
 11
34.3225
 21
16.44
 31
0.0
  0
ARC
  8
8
  6
CONTINUOUS
 62
8
 10
29.6925
 20
19.5
 30
0.0
 40
3.49999999999999
 50
180
 51
225
  0
LINE
  8
8
  6
CONTINUOUS
 62
8
 10
26.1925
 20
19.5
 30
0.0
 11
26.1925
 21
27.5
 31
0.0
  0
ARC
  8
8
  6
CONTINUOUS
 62
8
 10
29.6924999999763
 20
27.5000000000237
 30
0.0
 40
3.49999999997629
 50
89.9999999996117
 51
180.000000000388
  0
LINE
  8
8
  6
CONTINUOUS
 62
8
 10
29.6925
 20
31
 30
0.0
 11
32.1925
 21
31
 31
0.0
  0
ARC
  8
8
  6
CONTINUOUS
 62
8
 10
32.2018220375666
 20
35.16300475155
 30
0.0
 40
4.16301518875592
 50
269.871700238607
 51
296.116994773477
  0
ARC
  8
8
  6
CONTINUOUS
 62
8
 10
34.3725
 20
30.7
 30
0.0
 40
0.799999999999981
 50
66.4218215217947
 51
115.000086326116
  0
LINE
  8
8
  6
CONTINUOUS
 62
8
 10
34.6925
 20
31.4332121111929
 30
0.0
 11
34.6925
 21
15.5667878888071
 31
0.0
  0
ARC
  8
8
  6
CONTINUOUS
 62
8
 10
34.3724999999999
 20
16.3
 30
0.0
 40
0.800000000000003
 50
244.991467170837
 51
293.578178478207
  0
ARC
  8
8
  6
CONTINUOUS
 62
8
 10
32.211144075133
 20
11.8774164217599
 30
0.0
 40
4.12262573624049
 50
63.7536786176975
 51
90.2591141004872
  0
LINE
  8
8
  6
CONTINUOUS
 62
8
 10
32.1925
 20
16
 30
0.0
 11
29.6925
 21
16
 31
0.0
  0
ARC
  8
8
  6
CONTINUOUS
 62
8
 10
29.6925
 20
19.5
 30
0.0
 40
3.49999999999998
 50
224.999999999999
 51
269.999999999999
  0
ARC
  8
8
  6
CONTINUOUS
 62
8
 10
25.7325
 20
16.3
 30
0.0
 40
0.140000000000001
 50
179.999999999999
 51
269.999999999999
  0
LINE
  8
8
  6
CONTINUOUS
 62
8
 10
25.7325
 20
16.16
 30
0.0
 11
25.7825
 21
16.16
 31
0.0
  0
ARC
  8
8
  6
CONTINUOUS
 62
8
 10
25.7825
 20
16.3
 30
0.0
 40
0.140000000000001
 50
270
 51
90
  0
LINE
  8
8
  6
CONTINUOUS
 62
8
 10
25.7825
 20
16.44
 30
0.0
 11
25.7325
 21
16.44
 31
0.0
  0
ARC
  8
8
  6
CONTINUOUS
 62
8
 10
25.7325
 20
16.3
 30
0.0
 40
0.140000000000001
 50
89.9999999999998
 51
180
  0
ARC
  8
8
  6
CONTINUOUS
 62
8
 10
25.7825
 20
19.8
 30
0.0
 40
0.140000000000001
 50
270
 51
90
  0
LINE
  8
8
  6
CONTINUOUS
 62
8
 10
25.7825
 20
19.94
 30
0.0
 11
25.7325
 21
19.94
 31
0.0
  0
ARC
  8
8
  6
CONTINUOUS
 62
8
 10
25.7325
 20
19.8
 30
0.0
 40
0.140000000000001
 50
90
 51
270
  0
LINE
  8
8
  6
CONTINUOUS
 62
8
 10
25.7325
 20
19.66
 30
0.0
 11
25.7825
 21
19.66
 31
0.0
  0
ARC
  8
8
  6
CONTINUOUS
 62
8
 10
25.7825000000002
 20
23.5
 30
0.0
 40
0.140000000000001
 50
269.999999999999
 51
89.9999999999996
  0
LINE
  8
8
  6
CONTINUOUS
 62
8
 10
25.7825
 20
23.64
 30
0.0
 11
25.7325
 21
23.64
 31
0.0
  0
ARC
  8
8
  6
CONTINUOUS
 62
8
 10
25.7325
 20
23.5
 30
0.0
 40
0.140000000000001
 50
90
 51
270
  0
LINE
  8
8
  6
CONTINUOUS
 62
8
 10
25.7325
 20
23.36
 30
0.0
 11
25.7825000000002
 21
23.36
 31
0.0
  0
ARC
  8
8
  6
CONTINUOUS
 62
8
 10
25.7825000000002
 20
27.2
 30
0.0
 40
0.140000000000001
 50
269.999999999999
 51
89.9999999999996
  0
LINE
  8
8
  6
CONTINUOUS
 62
8
 10
25.7825
 20
27.34
 30
0.0
 11
25.7325
 21
27.34
 31
0.0
  0
ARC
  8
8
  6
CONTINUOUS
 62
8
 10
25.7325
 20
27.2
 30
0.0
 40
0.140000000000001
 50
90
 51
270
  0
LINE
  8
8
  6
CONTINUOUS
 62
8
 10
25.7325
 20
27.06
 30
0.0
 11
25.7825000000002
 21
27.06
 31
0.0
  0
ARC
  8
8
  6
CONTINUOUS
 62
8
 10
25.7825
 20
30.7
 30
0.0
 40
0.140000000000001
 50
270
 51
90
  0
LINE
  8
8
  6
CONTINUOUS
 62
8
 10
25.7825
 20
30.84
 30
0.0
 11
25.7325
 21
30.84
 31
0.0
  0
ARC
  8
8
  6
CONTINUOUS
 62
8
 10
25.7325
 20
30.7
 30
0.0
 40
0.140000000000001
 50
90
 51
270
  0
LINE
  8
8
  6
CONTINUOUS
 62
8
 10
25.7325
 20
30.56
 30
0.0
 11
25.7825
 21
30.56
 31
0.0
  0
ARC
  8
8
  6
CONTINUOUS
 62
8
 10
21.1024999999526
 20
27.5000000000474
 30
0.0
 40
3.49999999995258
 50
89.9999999992237
 51
135
  0
LINE
  8
8
  6
CONTINUOUS
 62
8
 10
21.1025
 20
31
 30
0.0
 11
23.6025
 21
31
 31
0.0
  0
ARC
  8
8
  6
CONTINUOUS
 62
8
 10
23.6118220375666
 20
35.16300475155
 30
0.0
 40
4.16301518875593
 50
269.871700238607
 51
296.116994773477
  0
ARC
  8
8
  6
CONTINUOUS
 62
8
 10
25.7825
 20
30.7
 30
0.0
 40
0.799999999999977
 50
66.4218215217947
 51
115.000086326116
  0
LINE
  8
8
  6
CONTINUOUS
 62
8
 10
26.1025
 20
31.4332121111929
 30
0.0
 11
26.1025
 21
15.5667878888071
 31
0.0
  0
ARC
  8
8
  6
CONTINUOUS
 62
8
 10
25.7824999999999
 20
16.3
 30
0.0
 40
0.800000000000003
 50
244.991467170837
 51
293.578178478207
  0
ARC
  8
8
  6
CONTINUOUS
 62
8
 10
23.621144075133
 20
11.8774164217599
 30
0.0
 40
4.12262573624049
 50
63.7536786176975
 51
90.2591141004872
  0
LINE
  8
8
  6
CONTINUOUS
 62
8
 10
23.6025
 20
16
 30
0.0
 11
21.1025
 21
16
 31
0.0
  0
ARC
  8
8
  6
CONTINUOUS
 62
8
 10
21.1025
 20
19.5
 30
0.0
 40
3.50000000000001
 50
180
 51
270
  0
LINE
  8
8
  6
CONTINUOUS
 62
8
 10
17.6025
 20
19.5
 30
0.0
 11
17.6025
 21
27.5
 31
0.0
  0
ARC
  8
8
  6
CONTINUOUS
 62
8
 10
21.1024999999526
 20
27.5000000000474
 30
0.0
 40
3.49999999995258
 50
135
 51
180.000000000776
  0
ARC
  8
8
  6
CONTINUOUS
 62
8
 10
17.1425
 20
30.7
 30
0.0
 40
0.139999999999999
 50
179.999999999999
 51
269.999999999999
  0
LINE
  8
8
  6
CONTINUOUS
 62
8
 10
17.1425
 20
30.56
 30
0.0
 11
17.1925
 21
30.56
 31
0.0
  0
ARC
  8
8
  6
CONTINUOUS
 62
8
 10
17.1925
 20
30.7
 30
0.0
 40
0.140000000000001
 50
270
 51
90
  0
LINE
  8
8
  6
CONTINUOUS
 62
8
 10
17.1925
 20
30.84
 30
0.0
 11
17.1425
 21
30.84
 31
0.0
  0
ARC
  8
8
  6
CONTINUOUS
 62
8
 10
17.1425
 20
30.7
 30
0.0
 40
0.139999999999999
 50
90.0000000000005
 51
180.000000000001
  0
ARC
  8
8
  6
CONTINUOUS
 62
8
 10
17.1425
 20
27.2
 30
0.0
 40
0.140000000000001
 50
90
 51
270
  0
LINE
  8
8
  6
CONTINUOUS
 62
8
 10
17.1425
 20
27.06
 30
0.0
 11
17.1925000000002
 21
27.06
 31
0.0
  0
ARC
  8
8
  6
CONTINUOUS
 62
8
 10
17.1925000000002
 20
27.2
 30
0.0
 40
0.140000000000001
 50
269.999999999999
 51
89.9999999999996
  0
LINE
  8
8
  6
CONTINUOUS
 62
8
 10
17.1925
 20
27.34
 30
0.0
 11
17.1425
 21
27.34
 31
0.0
  0
ARC
  8
8
  6
CONTINUOUS
 62
8
 10
17.1425
 20
23.5
 30
0.0
 40
0.140000000000001
 50
90
 51
270
  0
LINE
  8
8
  6
CONTINUOUS
 62
8
 10
17.1425
 20
23.36
 30
0.0
 11
17.1925000000002
 21
23.36
 31
0.0
  0
ARC
  8
8
  6
CONTINUOUS
 62
8
 10
17.1925000000002
 20
23.5
 30
0.0
 40
0.140000000000001
 50
269.999999999999
 51
89.9999999999996
  0
LINE
  8
8
  6
CONTINUOUS
 62
8
 10
17.1925
 20
23.64
 30
0.0
 11
17.1425
 21
23.64
 31
0.0
  0
ARC
  8
8
  6
CONTINUOUS
 62
8
 10
17.1425
 20
19.8
 30
0.0
 40
0.140000000000001
 50
90
 51
270
  0
LINE
  8
8
  6
CONTINUOUS
 62
8
 10
17.1425
 20
19.66
 30
0.0
 11
17.1925
 21
19.66
 31
0.0
  0
ARC
  8
8
  6
CONTINUOUS
 62
8
 10
17.1925
 20
19.8
 30
0.0
 40
0.140000000000001
 50
270
 51
90
  0
LINE
  8
8
  6
CONTINUOUS
 62
8
 10
17.1925
 20
19.94
 30
0.0
 11
17.1425
 21
19.94
 31
0.0
  0
ARC
  8
8
  6
CONTINUOUS
 62
8
 10
17.1425
 20
16.3
 30
0.0
 40
0.140000000000001
 50
90
 51
270
  0
LINE
  8
8
  6
CONTINUOUS
 62
8
 10
17.1425
 20
16.16
 30
0.0
 11
17.1925
 21
16.16
 31
0.0
  0
ARC
  8
8
  6
CONTINUOUS
 62
8
 10
17.1925
 20
16.3
 30
0.0
 40
0.140000000000001
 50
270
 51
90
  0
LINE
  8
8
  6
CONTINUOUS
 62
8
 10
17.1925
 20
16.44
 30
0.0
 11
17.1425
 21
16.44
 31
0.0
  0
ARC
  8
8
  6
CONTINUOUS
 62
8
 10
12.5125
 20
19.5
 30
0.0
 40
3.49999999999999
 50
180
 51
225
  0
LINE
  8
8
  6
CONTINUOUS
 62
8
 10
9.0125
 20
19.5
 30
0.0
 11
9.0125
 21
27.5
 31
0.0
  0
ARC
  8
8
  6
CONTINUOUS
 62
8
 10
12.5124999999763
 20
27.5000000000237
 30
0.0
 40
3.49999999997629
 50
89.9999999996117
 51
180.000000000388
  0
LINE
  8
8
  6
CONTINUOUS
 62
8
 10
12.5125
 20
31
 30
0.0
 11
15.0125
 21
31
 31
0.0
  0
ARC
  8
8
  6
CONTINUOUS
 62
8
 10
15.0218220375666
 20
35.16300475155
 30
0.0
 40
4.16301518875593
 50
269.871700238607
 51
296.116994773477
  0
ARC
  8
8
  6
CONTINUOUS
 62
8
 10
17.1925
 20
30.7
 30
0.0
 40
0.799999999999977
 50
66.4218215217947
 51
115.000086326116
  0
LINE
  8
8
  6
CONTINUOUS
 62
8
 10
17.5125
 20
31.4332121111929
 30
0.0
 11
17.5125
 21
15.5667878888071
 31
0.0
  0
ARC
  8
8
  6
CONTINUOUS
 62
8
 10
17.1924999999999
 20
16.3
 30
0.0
 40
0.800000000000003
 50
244.991467170837
 51
293.578178478207
  0
ARC
  8
8
  6
CONTINUOUS
 62
8
 10
15.031144075133
 20
11.8774164217599
 30
0.0
 40
4.12262573624049
 50
63.7536786176975
 51
90.2591141004872
  0
LINE
  8
8
  6
CONTINUOUS
 62
8
 10
15.0125
 20
16
 30
0.0
 11
12.5125
 21
16
 31
0.0
  0
ARC
  8
8
  6
CONTINUOUS
 62
8
 10
12.5125
 20
19.5
 30
0.0
 40
3.49999999999999
 50
224.999999999999
 51
269.999999999999
  0
ARC
  8
8
  6
CONTINUOUS
 62
8
 10
8.5525
 20
16.3
 30
0.0
 40
0.140000000000001
 50
179.999999999999
 51
269.999999999999
  0
LINE
  8
8
  6
CONTINUOUS
 62
8
 10
8.5525
 20
16.16
 30
0.0
 11
8.60250000000001
 21
16.16
 31
0.0
  0
ARC
  8
8
  6
CONTINUOUS
 62
8
 10
8.60250000000001
 20
16.3
 30
0.0
 40
0.140000000000001
 50
270
 51
90
  0
LINE
  8
8
  6
CONTINUOUS
 62
8
 10
8.60250000000001
 20
16.44
 30
0.0
 11
8.5525
 21
16.44
 31
0.0
  0
ARC
  8
8
  6
CONTINUOUS
 62
8
 10
8.5525
 20
16.3
 30
0.0
 40
0.140000000000001
 50
89.9999999999998
 51
180
  0
ARC
  8
8
  6
CONTINUOUS
 62
8
 10
8.60250000000001
 20
19.8
 30
0.0
 40
0.140000000000001
 50
270
 51
90
  0
LINE
  8
8
  6
CONTINUOUS
 62
8
 10
8.60250000000001
 20
19.94
 30
0.0
 11
8.5525
 21
19.94
 31
0.0
  0
ARC
  8
8
  6
CONTINUOUS
 62
8
 10
8.5525
 20
19.8
 30
0.0
 40
0.140000000000001
 50
90
 51
270
  0
LINE
  8
8
  6
CONTINUOUS
 62
8
 10
8.5525
 20
19.66
 30
0.0
 11
8.60250000000001
 21
19.66
 31
0.0
  0
ARC
  8
8
  6
CONTINUOUS
 62
8
 10
8.60250000000022
 20
23.5
 30
0.0
 40
0.140000000000001
 50
269.999999999999
 51
89.9999999999996
  0
LINE
  8
8
  6
CONTINUOUS
 62
8
 10
8.60250000000001
 20
23.64
 30
0.0
 11
8.5525
 21
23.64
 31
0.0
  0
ARC
  8
8
  6
CONTINUOUS
 62
8
 10
8.5525
 20
23.5
 30
0.0
 40
0.140000000000001
 50
90
 51
270
  0
LINE
  8
8
  6
CONTINUOUS
 62
8
 10
8.5525
 20
23.36
 30
0.0
 11
8.60250000000022
 21
23.36
 31
0.0
  0
ARC
  8
8
  6
CONTINUOUS
 62
8
 10
8.60250000000022
 20
27.2
 30
0.0
 40
0.140000000000001
 50
269.999999999999
 51
89.9999999999996
  0
LINE
  8
8
  6
CONTINUOUS
 62
8
 10
8.60250000000001
 20
27.34
 30
0.0
 11
8.55250000000001
 21
27.34
 31
0.0
  0
ARC
  8
8
  6
CONTINUOUS
 62
8
 10
8.55250000000001
 20
27.2
 30
0.0
 40
0.140000000000001
 50
90
 51
270
  0
LINE
  8
8
  6
CONTINUOUS
 62
8
 10
8.55250000000001
 20
27.06
 30
0.0
 11
8.60250000000022
 21
27.06
 31
0.0
  0
ARC
  8
8
  6
CONTINUOUS
 62
8
 10
8.60250000000001
 20
30.7
 30
0.0
 40
0.140000000000001
 50
270
 51
90
  0
LINE
  8
8
  6
CONTINUOUS
 62
8
 10
8.60250000000001
 20
30.84
 30
0.0
 11
8.55250000000001
 21
30.84
 31
0.0
  0
ARC
  8
8
  6
CONTINUOUS
 62
8
 10
8.55250000000001
 20
30.7
 30
0.0
 40
0.140000000000001
 50
90
 51
270
  0
LINE
  8
8
  6
CONTINUOUS
 62
8
 10
8.55250000000001
 20
30.56
 30
0.0
 11
8.60250000000001
 21
30.56
 31
0.0
  0
ARC
  8
8
  6
CONTINUOUS
 62
8
 10
3.92249999995255
 20
27.5000000000474
 30
0.0
 40
3.49999999995262
 50
89.9999999992235
 51
135
  0
LINE
  8
8
  6
CONTINUOUS
 62
8
 10
3.9225
 20
31
 30
0.0
 11
6.4225
 21
31
 31
0.0
  0
ARC
  8
8
  6
CONTINUOUS
 62
8
 10
6.43182203756658
 20
35.16300475155
 30
0.0
 40
4.16301518875592
 50
269.871700238607
 51
296.116994773477
  0
ARC
  8
8
  6
CONTINUOUS
 62
8
 10
8.60249999999996
 20
30.7
 30
0.0
 40
0.799999999999979
 50
66.4218215217947
 51
115.000086326116
  0
LINE
  8
8
  6
CONTINUOUS
 62
8
 10
8.9225
 20
31.4332121111929
 30
0.0
 11
8.9225
 21
15.5667878888071
 31
0.0
  0
ARC
  8
8
  6
CONTINUOUS
 62
8
 10
8.60249999999993
 20
16.3
 30
0.0
 40
0.79999999999999
 50
244.991467170837
 51
293.578178478207
  0
ARC
  8
8
  6
CONTINUOUS
 62
8
 10
6.44114407513299
 20
11.8774164217599
 30
0.0
 40
4.12262573624051
 50
63.7536786176976
 51
90.2591141004873
  0
LINE
  8
8
  6
CONTINUOUS
 62
8
 10
6.4225
 20
16
 30
0.0
 11
3.9225
 21
16
 31
0.0
  0
ARC
  8
8
  6
CONTINUOUS
 62
8
 10
3.92250000000001
 20
19.5
 30
0.0
 40
3.5
 50
180
 51
270
  0
LINE
  8
8
  6
CONTINUOUS
 62
8
 10
0.422499999999999
 20
19.5
 30
0.0
 11
0.422499999999999
 21
27.5
 31
0.0
  0
ARC
  8
8
  6
CONTINUOUS
 62
8
 10
3.92249999995256
 20
27.5000000000474
 30
0.0
 40
3.49999999995256
 50
135
 51
180.000000000776
  0
ARC
  8
8
  6
CONTINUOUS
 62
8
 10
0.792500000000001
 20
31.5
 30
0.0
 40
0.140000000000001
 50
270
 51
90
  0
LINE
  8
8
  6
CONTINUOUS
 62
8
 10
0.7925
 20
31.64
 30
0.0
 11
0.742500000000003
 21
31.64
 31
0.0
  0
ARC
  8
8
  6
CONTINUOUS
 62
8
 10
0.742500000000003
 20
31.5
 30
0.0
 40
0.140000000000001
 50
90
 51
270
  0
LINE
  8
8
  6
CONTINUOUS
 62
8
 10
0.742500000000003
 20
31.36
 30
0.0
 11
0.7925
 21
31.36
 31
0.0
  0
ARC
  8
8
  6
CONTINUOUS
 62
8
 10
0.792500000000001
 20
35
 30
0.0
 40
0.140000000000001
 50
270
 51
90
  0
LINE
  8
8
  6
CONTINUOUS
 62
8
 10
0.7925
 20
35.14
 30
0.0
 11
0.742499999999783
 21
35.14
 31
0.0
  0
ARC
  8
8
  6
CONTINUOUS
 62
8
 10
0.742499999999781
 20
35
 30
0.0
 40
0.140000000000001
 50
89.9999999999992
 51
269.999999999999
  0
LINE
  8
8
  6
CONTINUOUS
 62
8
 10
0.742500000000003
 20
34.86
 30
0.0
 11
0.7925
 21
34.86
 31
0.0
  0
ARC
  8
8
  6
CONTINUOUS
 62
8
 10
0.792500000000005
 20
38.7
 30
0.0
 40
0.140000000000001
 50
270
 51
90
  0
LINE
  8
8
  6
CONTINUOUS
 62
8
 10
0.792500000000004
 20
38.84
 30
0.0
 11
0.742499999999783
 21
38.84
 31
0.0
  0
ARC
  8
8
  6
CONTINUOUS
 62
8
 10
0.742499999999781
 20
38.7
 30
0.0
 40
0.140000000000001
 50
89.9999999999992
 51
269.999999999999
  0
LINE
  8
8
  6
CONTINUOUS
 62
8
 10
0.742500000000003
 20
38.56
 30
0.0
 11
0.792500000000004
 21
38.56
 31
0.0
  0
ARC
  8
8
  6
CONTINUOUS
 62
8
 10
0.792500000000005
 20
42.4
 30
0.0
 40
0.140000000000001
 50
270
 51
90
  0
LINE
  8
8
  6
CONTINUOUS
 62
8
 10
0.792500000000004
 20
42.54
 30
0.0
 11
0.742500000000003
 21
42.54
 31
0.0
  0
ARC
  8
8
  6
CONTINUOUS
 62
8
 10
0.742500000000003
 20
42.4
 30
0.0
 40
0.140000000000001
 50
90
 51
270
  0
LINE
  8
8
  6
CONTINUOUS
 62
8
 10
0.742500000000003
 20
42.26
 30
0.0
 11
0.792500000000004
 21
42.26
 31
0.0
  0
ARC
  8
8
  6
CONTINUOUS
 62
8
 10
0.792500000000004
 20
45.9
 30
0.0
 40
0.140000000000001
 50
360
 51
89.9999999999999
  0
LINE
  8
8
  6
CONTINUOUS
 62
8
 10
0.792500000000004
 20
46.04
 30
0.0
 11
0.742500000000003
 21
46.04
 31
0.0
  0
ARC
  8
8
  6
CONTINUOUS
 62
8
 10
0.742500000000003
 20
45.9
 30
0.0
 40
0.140000000000001
 50
90
 51
270
  0
LINE
  8
8
  6
CONTINUOUS
 62
8
 10
0.742500000000003
 20
45.76
 30
0.0
 11
0.792500000000004
 21
45.76
 31
0.0
  0
ARC
  8
8
  6
CONTINUOUS
 62
8
 10
0.792500000000006
 20
45.9
 30
0.0
 40
0.14
 50
269.999999999999
 51
360
  0
ARC
  8
8
  6
CONTINUOUS
 62
8
 10
5.42250000000004
 20
42.7
 30
0.0
 40
3.49999999999993
 50
359.999999999999
 51
44.9999999999999
  0
LINE
  8
8
  6
CONTINUOUS
 62
8
 10
8.9225
 20
42.7
 30
0.0
 11
8.9225
 21
34.7
 31
0.0
  0
ARC
  8
8
  6
CONTINUOUS
 62
8
 10
5.42250000004742
 20
34.6999999999526
 30
0.0
 40
3.49999999995258
 50
269.999999999224
 51
7.76514186986066E-10
  0
LINE
  8
8
  6
CONTINUOUS
 62
8
 10
5.4225
 20
31.2
 30
0.0
 11
2.9225
 21
31.2
 31
0.0
  0
ARC
  8
8
  6
CONTINUOUS
 62
8
 10
2.91317796243345
 20
27.03699524845
 30
0.0
 40
4.1630151887559
 50
89.8717002386078
 51
116.116994773477
  0
ARC
  8
8
  6
CONTINUOUS
 62
8
 10
0.742500000000047
 20
31.5
 30
0.0
 40
0.799999999999988
 50
246.421821521794
 51
295.000086326116
  0
LINE
  8
8
  6
CONTINUOUS
 62
8
 10
0.422500000000003
 20
30.7667878888071
 30
0.0
 11
0.422500000000003
 21
46.6332121111929
 31
0.0
  0
ARC
  8
8
  6
CONTINUOUS
 62
8
 10
0.742500000000068
 20
45.9
 30
0.0
 40
0.8
 50
64.9914671708372
 51
113.578178478207
  0
ARC
  8
8
  6
CONTINUOUS
 62
8
 10
2.90385592486703
 20
50.3225835782401
 30
0.0
 40
4.12262573624051
 50
243.753678617697
 51
270.259114100487
  0
LINE
  8
8
  6
CONTINUOUS
 62
8
 10
2.92250000000001
 20
46.2
 30
0.0
 11
5.42250000000001
 21
46.2
 31
0.0
  0
ARC
  8
8
  6
CONTINUOUS
 62
8
 10
5.42249999999993
 20
42.7
 30
0.0
 40
3.50000000000005
 50
44.9999999999996
 51
89.9999999999991
  0
ARC
  8
8
  6
CONTINUOUS
 62
8
 10
9.3825
 20
45.9
 30
0.0
 40
0.140000000000001
 50
270
 51
90
  0
LINE
  8
8
  6
CONTINUOUS
 62
8
 10
9.3825
 20
46.04
 30
0.0
 11
9.3325
 21
46.04
 31
0.0
  0
ARC
  8
8
  6
CONTINUOUS
 62
8
 10
9.3325
 20
45.9
 30
0.0
 40
0.140000000000001
 50
90
 51
270
  0
LINE
  8
8
  6
CONTINUOUS
 62
8
 10
9.3325
 20
45.76
 30
0.0
 11
9.3825
 21
45.76
 31
0.0
  0
ARC
  8
8
  6
CONTINUOUS
 62
8
 10
9.3825
 20
42.4
 30
0.0
 40
0.140000000000001
 50
270
 51
90
  0
LINE
  8
8
  6
CONTINUOUS
 62
8
 10
9.3825
 20
42.54
 30
0.0
 11
9.3325
 21
42.54
 31
0.0
  0
ARC
  8
8
  6
CONTINUOUS
 62
8
 10
9.3325
 20
42.4
 30
0.0
 40
0.140000000000001
 50
90
 51
270
  0
LINE
  8
8
  6
CONTINUOUS
 62
8
 10
9.3325
 20
42.26
 30
0.0
 11
9.3825
 21
42.26
 31
0.0
  0
ARC
  8
8
  6
CONTINUOUS
 62
8
 10
9.3825
 20
38.7
 30
0.0
 40
0.140000000000001
 50
270
 51
90
  0
LINE
  8
8
  6
CONTINUOUS
 62
8
 10
9.3825
 20
38.84
 30
0.0
 11
9.33249999999978
 21
38.84
 31
0.0
  0
ARC
  8
8
  6
CONTINUOUS
 62
8
 10
9.33249999999978
 20
38.7
 30
0.0
 40
0.140000000000001
 50
89.9999999999992
 51
269.999999999999
  0
LINE
  8
8
  6
CONTINUOUS
 62
8
 10
9.3325
 20
38.56
 30
0.0
 11
9.3825
 21
38.56
 31
0.0
  0
ARC
  8
8
  6
CONTINUOUS
 62
8
 10
9.3825
 20
35
 30
0.0
 40
0.140000000000001
 50
270
 51
90
  0
LINE
  8
8
  6
CONTINUOUS
 62
8
 10
9.3825
 20
35.14
 30
0.0
 11
9.33249999999978
 21
35.14
 31
0.0
  0
ARC
  8
8
  6
CONTINUOUS
 62
8
 10
9.33249999999978
 20
35
 30
0.0
 40
0.140000000000001
 50
89.9999999999992
 51
269.999999999999
  0
LINE
  8
8
  6
CONTINUOUS
 62
8
 10
9.3325
 20
34.86
 30
0.0
 11
9.3825
 21
34.86
 31
0.0
  0
ARC
  8
8
  6
CONTINUOUS
 62
8
 10
9.3825
 20
31.5
 30
0.0
 40
0.140000000000001
 50
270
 51
90
  0
LINE
  8
8
  6
CONTINUOUS
 62
8
 10
9.3825
 20
31.64
 30
0.0
 11
9.3325
 21
31.64
 31
0.0
  0
ARC
  8
8
  6
CONTINUOUS
 62
8
 10
9.3325
 20
31.5
 30
0.0
 40
0.140000000000001
 50
90
 51
270
  0
LINE
  8
8
  6
CONTINUOUS
 62
8
 10
9.3325
 20
31.36
 30
0.0
 11
9.3825
 21
31.36
 31
0.0
  0
ARC
  8
8
  6
CONTINUOUS
 62
8
 10
14.0125000000474
 20
34.6999999999526
 30
0.0
 40
3.49999999995258
 50
269.999999999224
 51
315
  0
LINE
  8
8
  6
CONTINUOUS
 62
8
 10
14.0125
 20
31.2
 30
0.0
 11
11.5125
 21
31.2
 31
0.0
  0
ARC
  8
8
  6
CONTINUOUS
 62
8
 10
11.5031779624335
 20
27.03699524845
 30
0.0
 40
4.1630151887559
 50
89.8717002386078
 51
116.116994773477
  0
ARC
  8
8
  6
CONTINUOUS
 62
8
 10
9.33250000000004
 20
31.5
 30
0.0
 40
0.799999999999992
 50
246.421821521794
 51
295.000086326116
  0
LINE
  8
8
  6
CONTINUOUS
 62
8
 10
9.0125
 20
30.7667878888071
 30
0.0
 11
9.0125
 21
46.6332121111929
 31
0.0
  0
ARC
  8
8
  6
CONTINUOUS
 62
8
 10
9.33250000000007
 20
45.9
 30
0.0
 40
0.800000000000005
 50
64.9914671708372
 51
113.578178478207
  0
ARC
  8
8
  6
CONTINUOUS
 62
8
 10
11.493855924867
 20
50.3225835782401
 30
0.0
 40
4.12262573624049
 50
243.753678617697
 51
270.259114100487
  0
LINE
  8
8
  6
CONTINUOUS
 62
8
 10
11.5125
 20
46.2
 30
0.0
 11
14.0125
 21
46.2
 31
0.0
  0
ARC
  8
8
  6
CONTINUOUS
 62
8
 10
14.0125
 20
42.7
 30
0.0
 40
3.5
 50
359.999999999999
 51
89.9999999999998
  0
LINE
  8
8
  6
CONTINUOUS
 62
8
 10
17.5125
 20
42.7
 30
0.0
 11
17.5125
 21
34.7
 31
0.0
  0
ARC
  8
8
  6
CONTINUOUS
 62
8
 10
14.0125000000474
 20
34.6999999999526
 30
0.0
 40
3.49999999995255
 50
315
 51
7.7656507586097E-10
  0
ARC
  8
8
  6
CONTINUOUS
 62
8
 10
17.9225
 20
31.5
 30
0.0
 40
0.140000000000001
 50
90
 51
270
  0
LINE
  8
8
  6
CONTINUOUS
 62
8
 10
17.9225
 20
31.36
 30
0.0
 11
17.9725
 21
31.36
 31
0.0
  0
ARC
  8
8
  6
CONTINUOUS
 62
8
 10
17.9725
 20
31.5
 30
0.0
 40
0.140000000000001
 50
270
 51
90
  0
LINE
  8
8
  6
CONTINUOUS
 62
8
 10
17.9725
 20
31.64
 30
0.0
 11
17.9225
 21
31.64
 31
0.0
  0
ARC
  8
8
  6
CONTINUOUS
 62
8
 10
17.9224999999998
 20
35
 30
0.0
 40
0.140000000000001
 50
89.9999999999992
 51
269.999999999999
  0
LINE
  8
8
  6
CONTINUOUS
 62
8
 10
17.9225
 20
34.86
 30
0.0
 11
17.9725
 21
34.86
 31
0.0
  0
ARC
  8
8
  6
CONTINUOUS
 62
8
 10
17.9725
 20
35
 30
0.0
 40
0.140000000000001
 50
270
 51
90
  0
LINE
  8
8
  6
CONTINUOUS
 62
8
 10
17.9725
 20
35.14
 30
0.0
 11
17.9224999999998
 21
35.14
 31
0.0
  0
ARC
  8
8
  6
CONTINUOUS
 62
8
 10
17.9224999999998
 20
38.7
 30
0.0
 40
0.140000000000001
 50
89.9999999999992
 51
269.999999999999
  0
LINE
  8
8
  6
CONTINUOUS
 62
8
 10
17.9225
 20
38.56
 30
0.0
 11
17.9725
 21
38.56
 31
0.0
  0
ARC
  8
8
  6
CONTINUOUS
 62
8
 10
17.9725
 20
38.7
 30
0.0
 40
0.140000000000001
 50
270
 51
90
  0
LINE
  8
8
  6
CONTINUOUS
 62
8
 10
17.9725
 20
38.84
 30
0.0
 11
17.9224999999998
 21
38.84
 31
0.0
  0
ARC
  8
8
  6
CONTINUOUS
 62
8
 10
17.9225
 20
42.4
 30
0.0
 40
0.140000000000001
 50
90
 51
270
  0
LINE
  8
8
  6
CONTINUOUS
 62
8
 10
17.9225
 20
42.26
 30
0.0
 11
17.9725
 21
42.26
 31
0.0
  0
ARC
  8
8
  6
CONTINUOUS
 62
8
 10
17.9725
 20
42.4
 30
0.0
 40
0.140000000000001
 50
270
 51
90
  0
LINE
  8
8
  6
CONTINUOUS
 62
8
 10
17.9725
 20
42.54
 30
0.0
 11
17.9225
 21
42.54
 31
0.0
  0
ARC
  8
8
  6
CONTINUOUS
 62
8
 10
17.9725
 20
45.9
 30
0.0
 40
0.140000000000001
 50
270
 51
90
  0
LINE
  8
8
  6
CONTINUOUS
 62
8
 10
17.9725
 20
46.04
 30
0.0
 11
17.9225
 21
46.04
 31
0.0
  0
ARC
  8
8
  6
CONTINUOUS
 62
8
 10
17.9225
 20
45.9
 30
0.0
 40
0.140000000000001
 50
90
 51
270
  0
LINE
  8
8
  6
CONTINUOUS
 62
8
 10
17.9225
 20
45.76
 30
0.0
 11
17.9725
 21
45.76
 31
0.0
  0
ARC
  8
8
  6
CONTINUOUS
 62
8
 10
22.6025
 20
42.7
 30
0.0
 40
3.49999999999995
 50
5.173370974068E-14
 51
45.0000000000005
  0
LINE
  8
8
  6
CONTINUOUS
 62
8
 10
26.1025
 20
42.7
 30
0.0
 11
26.1025
 21
34.7
 31
0.0
  0
ARC
  8
8
  6
CONTINUOUS
 62
8
 10
22.6025000000474
 20
34.6999999999526
 30
0.0
 40
3.49999999995258
 50
269.999999999224
 51
7.76514186986066E-10
  0
LINE
  8
8
  6
CONTINUOUS
 62
8
 10
22.6025
 20
31.2
 30
0.0
 11
20.1025
 21
31.2
 31
0.0
  0
ARC
  8
8
  6
CONTINUOUS
 62
8
 10
20.0931779624334
 20
27.03699524845
 30
0.0
 40
4.16301518875592
 50
89.8717002386078
 51
116.116994773477
  0
ARC
  8
8
  6
CONTINUOUS
 62
8
 10
17.9225
 20
31.5
 30
0.0
 40
0.799999999999981
 50
246.421821521794
 51
295.000086326116
  0
LINE
  8
8
  6
CONTINUOUS
 62
8
 10
17.6025
 20
30.7667878888071
 30
0.0
 11
17.6025
 21
46.6332121111929
 31
0.0
  0
ARC
  8
8
  6
CONTINUOUS
 62
8
 10
17.9225000000001
 20
45.9
 30
0.0
 40
0.800000000000003
 50
64.9914671708372
 51
113.578178478207
  0
ARC
  8
8
  6
CONTINUOUS
 62
8
 10
20.083855924867
 20
50.3225835782401
 30
0.0
 40
4.12262573624049
 50
243.753678617697
 51
270.259114100487
  0
LINE
  8
8
  6
CONTINUOUS
 62
8
 10
20.1025
 20
46.2
 30
0.0
 11
22.6025
 21
46.2
 31
0.0
  0
ARC
  8
8
  6
CONTINUOUS
 62
8
 10
22.6024999999999
 20
42.7
 30
0.0
 40
3.50000000000003
 50
44.9999999999994
 51
89.999999999999
  0
ARC
  8
8
  6
CONTINUOUS
 62
8
 10
26.5625
 20
45.9
 30
0.0
 40
0.140000000000001
 50
270
 51
90
  0
LINE
  8
8
  6
CONTINUOUS
 62
8
 10
26.5625
 20
46.04
 30
0.0
 11
26.5125
 21
46.04
 31
0.0
  0
ARC
  8
8
  6
CONTINUOUS
 62
8
 10
26.5125
 20
45.9
 30
0.0
 40
0.140000000000001
 50
90
 51
270
  0
LINE
  8
8
  6
CONTINUOUS
 62
8
 10
26.5125
 20
45.76
 30
0.0
 11
26.5625
 21
45.76
 31
0.0
  0
ARC
  8
8
  6
CONTINUOUS
 62
8
 10
26.5625
 20
42.4
 30
0.0
 40
0.140000000000001
 50
270
 51
90
  0
LINE
  8
8
  6
CONTINUOUS
 62
8
 10
26.5625
 20
42.54
 30
0.0
 11
26.5125
 21
42.54
 31
0.0
  0
ARC
  8
8
  6
CONTINUOUS
 62
8
 10
26.5125
 20
42.4
 30
0.0
 40
0.140000000000001
 50
90
 51
270
  0
LINE
  8
8
  6
CONTINUOUS
 62
8
 10
26.5125
 20
42.26
 30
0.0
 11
26.5625
 21
42.26
 31
0.0
  0
ARC
  8
8
  6
CONTINUOUS
 62
8
 10
26.5625
 20
38.7
 30
0.0
 40
0.140000000000001
 50
270
 51
90
  0
LINE
  8
8
  6
CONTINUOUS
 62
8
 10
26.5625
 20
38.84
 30
0.0
 11
26.5124999999998
 21
38.84
 31
0.0
  0
ARC
  8
8
  6
CONTINUOUS
 62
8
 10
26.5124999999998
 20
38.7
 30
0.0
 40
0.140000000000001
 50
89.9999999999992
 51
269.999999999999
  0
LINE
  8
8
  6
CONTINUOUS
 62
8
 10
26.5125
 20
38.56
 30
0.0
 11
26.5625
 21
38.56
 31
0.0
  0
ARC
  8
8
  6
CONTINUOUS
 62
8
 10
26.5625
 20
35
 30
0.0
 40
0.140000000000001
 50
270
 51
90
  0
LINE
  8
8
  6
CONTINUOUS
 62
8
 10
26.5625
 20
35.14
 30
0.0
 11
26.5124999999998
 21
35.14
 31
0.0
  0
ARC
  8
8
  6
CONTINUOUS
 62
8
 10
26.5124999999998
 20
35
 30
0.0
 40
0.140000000000001
 50
89.9999999999992
 51
269.999999999999
  0
LINE
  8
8
  6
CONTINUOUS
 62
8
 10
26.5125
 20
34.86
 30
0.0
 11
26.5625
 21
34.86
 31
0.0
  0
ARC
  8
8
  6
CONTINUOUS
 62
8
 10
26.5625
 20
31.5
 30
0.0
 40
0.140000000000001
 50
270
 51
90
  0
LINE
  8
8
  6
CONTINUOUS
 62
8
 10
26.5625
 20
31.64
 30
0.0
 11
26.5125
 21
31.64
 31
0.0
  0
ARC
  8
8
  6
CONTINUOUS
 62
8
 10
26.5125
 20
31.5
 30
0.0
 40
0.140000000000001
 50
90
 51
270
  0
LINE
  8
8
  6
CONTINUOUS
 62
8
 10
26.5125
 20
31.36
 30
0.0
 11
26.5625
 21
31.36
 31
0.0
  0
ARC
  8
8
  6
CONTINUOUS
 62
8
 10
31.1925000000474
 20
34.6999999999526
 30
0.0
 40
3.49999999995258
 50
269.999999999224
 51
315
  0
LINE
  8
8
  6
CONTINUOUS
 62
8
 10
31.1925
 20
31.2
 30
0.0
 11
28.6925
 21
31.2
 31
0.0
  0
ARC
  8
8
  6
CONTINUOUS
 62
8
 10
28.6831779624334
 20
27.03699524845
 30
0.0
 40
4.16301518875592
 50
89.8717002386078
 51
116.116994773477
  0
ARC
  8
8
  6
CONTINUOUS
 62
8
 10
26.5125
 20
31.5
 30
0.0
 40
0.799999999999981
 50
246.421821521794
 51
295.000086326116
  0
LINE
  8
8
  6
CONTINUOUS
 62
8
 10
26.1925
 20
30.7667878888071
 30
0.0
 11
26.1925
 21
46.6332121111929
 31
0.0
  0
ARC
  8
8
  6
CONTINUOUS
 62
8
 10
26.5125000000001
 20
45.9
 30
0.0
 40
0.800000000000003
 50
64.9914671708372
 51
113.578178478207
  0
ARC
  8
8
  6
CONTINUOUS
 62
8
 10
28.673855924867
 20
50.3225835782401
 30
0.0
 40
4.12262573624049
 50
243.753678617697
 51
270.259114100487
  0
LINE
  8
8
  6
CONTINUOUS
 62
8
 10
28.6925
 20
46.2
 30
0.0
 11
31.1925
 21
46.2
 31
0.0
  0
ARC
  8
8
  6
CONTINUOUS
 62
8
 10
31.1925
 20
42.7
 30
0.0
 40
3.5
 50
359.999999999999
 51
89.9999999999998
  0
LINE
  8
8
  6
CONTINUOUS
 62
8
 10
34.6925
 20
42.7
 30
0.0
 11
34.6925
 21
34.7
 31
0.0
  0
ARC
  8
8
  6
CONTINUOUS
 62
8
 10
31.1925000000474
 20
34.6999999999526
 30
0.0
 40
3.49999999995255
 50
315
 51
7.7656507586097E-10
  0
ARC
  8
8
  6
CONTINUOUS
 62
8
 10
35.1025
 20
31.5
 30
0.0
 40
0.140000000000001
 50
90
 51
270
  0
LINE
  8
8
  6
CONTINUOUS
 62
8
 10
35.1025
 20
31.36
 30
0.0
 11
35.1525
 21
31.36
 31
0.0
  0
ARC
  8
8
  6
CONTINUOUS
 62
8
 10
35.1525
 20
31.5
 30
0.0
 40
0.140000000000001
 50
270
 51
90
  0
LINE
  8
8
  6
CONTINUOUS
 62
8
 10
35.1525
 20
31.64
 30
0.0
 11
35.1025
 21
31.64
 31
0.0
  0
ARC
  8
8
  6
CONTINUOUS
 62
8
 10
35.1024999999998
 20
35
 30
0.0
 40
0.140000000000001
 50
89.9999999999992
 51
269.999999999999
  0
LINE
  8
8
  6
CONTINUOUS
 62
8
 10
35.1025
 20
34.86
 30
0.0
 11
35.1525
 21
34.86
 31
0.0
  0
ARC
  8
8
  6
CONTINUOUS
 62
8
 10
35.1525
 20
35
 30
0.0
 40
0.140000000000001
 50
270
 51
90
  0
LINE
  8
8
  6
CONTINUOUS
 62
8
 10
35.1525
 20
35.14
 30
0.0
 11
35.1024999999998
 21
35.14
 31
0.0
  0
ARC
  8
8
  6
CONTINUOUS
 62
8
 10
35.1024999999998
 20
38.7
 30
0.0
 40
0.140000000000001
 50
89.9999999999992
 51
269.999999999999
  0
LINE
  8
8
  6
CONTINUOUS
 62
8
 10
35.1025
 20
38.56
 30
0.0
 11
35.1525
 21
38.56
 31
0.0
  0
ARC
  8
8
  6
CONTINUOUS
 62
8
 10
35.1525
 20
38.7
 30
0.0
 40
0.140000000000001
 50
270
 51
90
  0
LINE
  8
8
  6
CONTINUOUS
 62
8
 10
35.1525
 20
38.84
 30
0.0
 11
35.1024999999998
 21
38.84
 31
0.0
  0
ARC
  8
8
  6
CONTINUOUS
 62
8
 10
35.1025
 20
42.4
 30
0.0
 40
0.140000000000001
 50
90
 51
270
  0
LINE
  8
8
  6
CONTINUOUS
 62
8
 10
35.1025
 20
42.26
 30
0.0
 11
35.1525
 21
42.26
 31
0.0
  0
ARC
  8
8
  6
CONTINUOUS
 62
8
 10
35.1525
 20
42.4
 30
0.0
 40
0.140000000000001
 50
270
 51
90
  0
LINE
  8
8
  6
CONTINUOUS
 62
8
 10
35.1525
 20
42.54
 30
0.0
 11
35.1025
 21
42.54
 31
0.0
  0
ARC
  8
8
  6
CONTINUOUS
 62
8
 10
35.1525
 20
45.9
 30
0.0
 40
0.140000000000001
 50
270
 51
90
  0
LINE
  8
8
  6
CONTINUOUS
 62
8
 10
35.1525
 20
46.04
 30
0.0
 11
35.1025
 21
46.04
 31
0.0
  0
ARC
  8
8
  6
CONTINUOUS
 62
8
 10
35.1025
 20
45.9
 30
0.0
 40
0.140000000000001
 50
90
 51
270
  0
LINE
  8
8
  6
CONTINUOUS
 62
8
 10
35.1025
 20
45.76
 30
0.0
 11
35.1525
 21
45.76
 31
0.0
  0
ARC
  8
8
  6
CONTINUOUS
 62
8
 10
39.7825
 20
42.7
 30
0.0
 40
3.49999999999995
 50
5.173370974068E-14
 51
45.0000000000005
  0
LINE
  8
8
  6
CONTINUOUS
 62
8
 10
43.2825
 20
42.7
 30
0.0
 11
43.2825
 21
34.7
 31
0.0
  0
ARC
  8
8
  6
CONTINUOUS
 62
8
 10
39.7825000000474
 20
34.6999999999526
 30
0.0
 40
3.49999999995258
 50
269.999999999224
 51
7.76514186986066E-10
  0
LINE
  8
8
  6
CONTINUOUS
 62
8
 10
39.7825
 20
31.2
 30
0.0
 11
37.2825
 21
31.2
 31
0.0
  0
ARC
  8
8
  6
CONTINUOUS
 62
8
 10
37.2731779624334
 20
27.03699524845
 30
0.0
 40
4.16301518875592
 50
89.8717002386078
 51
116.116994773477
  0
ARC
  8
8
  6
CONTINUOUS
 62
8
 10
35.1025
 20
31.5
 30
0.0
 40
0.799999999999981
 50
246.421821521794
 51
295.000086326116
  0
LINE
  8
8
  6
CONTINUOUS
 62
8
 10
34.7825
 20
30.7667878888071
 30
0.0
 11
34.7825
 21
46.6332121111929
 31
0.0
  0
ARC
  8
8
  6
CONTINUOUS
 62
8
 10
35.1025000000001
 20
45.9
 30
0.0
 40
0.800000000000003
 50
64.9914671708372
 51
113.578178478207
  0
ARC
  8
8
  6
CONTINUOUS
 62
8
 10
37.263855924867
 20
50.3225835782401
 30
0.0
 40
4.12262573624049
 50
243.753678617697
 51
270.259114100487
  0
LINE
  8
8
  6
CONTINUOUS
 62
8
 10
37.2825
 20
46.2
 30
0.0
 11
39.7825
 21
46.2
 31
0.0
  0
ARC
  8
8
  6
CONTINUOUS
 62
8
 10
39.7824999999999
 20
42.7
 30
0.0
 40
3.50000000000003
 50
44.9999999999994
 51
89.999999999999
  0
LINE
  8
8
  6
CONTINUOUS
 62
8
 10
34.7825
 20
0.366787888807085
 30
0.0
 11
34.7825
 21
16.2332121111929
 31
0.0
  0
ARC
  8
8
  6
CONTINUOUS
 62
8
 10
43.7425
 20
15.5
 30
0.0
 40
0.140000000000001
 50
270
 51
90
  0
LINE
  8
8
  6
CONTINUOUS
 62
8
 10
43.7425
 20
15.64
 30
0.0
 11
43.6925
 21
15.64
 31
0.0
  0
ARC
  8
8
  6
CONTINUOUS
 62
8
 10
43.6925
 20
15.5
 30
0.0
 40
0.140000000000001
 50
90
 51
270
  0
LINE
  8
8
  6
CONTINUOUS
 62
8
 10
43.6925
 20
15.36
 30
0.0
 11
43.7425
 21
15.36
 31
0.0
  0
ARC
  8
8
  6
CONTINUOUS
 62
8
 10
43.7425
 20
12
 30
0.0
 40
0.140000000000001
 50
270
 51
90
  0
LINE
  8
8
  6
CONTINUOUS
 62
8
 10
43.7425
 20
12.14
 30
0.0
 11
43.6925
 21
12.14
 31
0.0
  0
ARC
  8
8
  6
CONTINUOUS
 62
8
 10
43.6925
 20
12
 30
0.0
 40
0.140000000000001
 50
90
 51
270
  0
LINE
  8
8
  6
CONTINUOUS
 62
8
 10
43.6925
 20
11.86
 30
0.0
 11
43.7425
 21
11.86
 31
0.0
  0
ARC
  8
8
  6
CONTINUOUS
 62
8
 10
43.7425
 20
8.29999999999999
 30
0.0
 40
0.140000000000005
 50
270
 51
90
  0
LINE
  8
8
  6
CONTINUOUS
 62
8
 10
43.7425
 20
8.43999999999999
 30
0.0
 11
43.6924999999998
 21
8.43999999999999
 31
0.0
  0
ARC
  8
8
  6
CONTINUOUS
 62
8
 10
43.6924999999998
 20
8.29999999999999
 30
0.0
 40
0.140000000000005
 50
89.9999999999992
 51
269.999999999999
  0
LINE
  8
8
  6
CONTINUOUS
 62
8
 10
43.6925
 20
8.15999999999998
 30
0.0
 11
43.7425
 21
8.15999999999998
 31
0.0
  0
ARC
  8
8
  6
CONTINUOUS
 62
8
 10
43.7425
 20
4.59999999999998
 30
0.0
 40
0.14
 50
270
 51
90
  0
LINE
  8
8
  6
CONTINUOUS
 62
8
 10
43.7425
 20
4.73999999999998
 30
0.0
 11
43.6924999999998
 21
4.73999999999998
 31
0.0
  0
ARC
  8
8
  6
CONTINUOUS
 62
8
 10
43.6924999999998
 20
4.59999999999998
 30
0.0
 40
0.14
 50
89.9999999999992
 51
269.999999999999
  0
LINE
  8
8
  6
CONTINUOUS
 62
8
 10
43.6925
 20
4.45999999999998
 30
0.0
 11
43.7425
 21
4.45999999999998
 31
0.0
  0
ARC
  8
8
  6
CONTINUOUS
 62
8
 10
43.7425
 20
1.09999999999998
 30
0.0
 40
0.139999999999997
 50
270
 51
90
  0
LINE
  8
8
  6
CONTINUOUS
 62
8
 10
43.7425
 20
1.23999999999998
 30
0.0
 11
43.6925
 21
1.23999999999998
 31
0.0
  0
ARC
  8
8
  6
CONTINUOUS
 62
8
 10
43.6925
 20
1.09999999999998
 30
0.0
 40
0.139999999999997
 50
90
 51
270
  0
LINE
  8
8
  6
CONTINUOUS
 62
8
 10
43.6925
 20
0.959999999999987
 30
0.0
 11
43.7425
 21
0.959999999999987
 31
0.0
  0
ARC
  8
8
  6
CONTINUOUS
 62
8
 10
48.3725000000475
 20
4.29999999995255
 30
0.0
 40
3.49999999995256
 50
269.999999999223
 51
314.999999999999
  0
LINE
  8
8
  6
CONTINUOUS
 62
8
 10
48.3725
 20
0.799999999999984
 30
0.0
 11
45.8725
 21
0.799999999999984
 31
0.0
  0
ARC
  8
8
  6
CONTINUOUS
 62
8
 10
45.8631779624334
 20
-3.36300475155004
 30
0.0
 40
4.16301518875592
 50
89.8717002386077
 51
116.116994773477
  0
ARC
  8
8
  6
CONTINUOUS
 62
8
 10
43.6925
 20
1.09999999999998
 30
0.0
 40
0.799999999999981
 50
246.421821521795
 51
295.000086326116
  0
LINE
  8
8
  6
CONTINUOUS
 62
8
 10
43.3725
 20
0.366787888807085
 30
0.0
 11
43.3725
 21
16.2332121111929
 31
0.0
  0
ARC
  8
8
  6
CONTINUOUS
 62
8
 10
43.6925000000001
 20
15.5
 30
0.0
 40
0.800000000000003
 50
64.9914671708372
 51
113.578178478207
  0
ARC
  8
8
  6
CONTINUOUS
 62
8
 10
45.853855924867
 20
19.9225835782401
 30
0.0
 40
4.12262573624049
 50
243.753678617697
 51
270.259114100487
  0
LINE
  8
8
  6
CONTINUOUS
 62
8
 10
45.8725
 20
15.8
 30
0.0
 11
48.3725
 21
15.8
 31
0.0
  0
ARC
  8
8
  6
CONTINUOUS
 62
8
 10
48.3725
 20
12.3
 30
0.0
 40
3.5
 50
359.999999999999
 51
89.9999999999998
  0
LINE
  8
8
  6
CONTINUOUS
 62
8
 10
51.8725
 20
12.3
 30
0.0
 11
51.8725
 21
4.29999999999998
 31
0.0
  0
ARC
  8
8
  6
CONTINUOUS
 62
8
 10
48.3725000000474
 20
4.29999999995256
 30
0.0
 40
3.49999999995259
 50
315
 51
7.76615964735873E-10
  0
ARC
  8
8
  6
CONTINUOUS
 62
8
 10
52.2825
 20
1.09999999999998
 30
0.0
 40
0.139999999999997
 50
90
 51
270
  0
LINE
  8
8
  6
CONTINUOUS
 62
8
 10
52.2825
 20
0.959999999999987
 30
0.0
 11
52.3325
 21
0.959999999999987
 31
0.0
  0
ARC
  8
8
  6
CONTINUOUS
 62
8
 10
52.3325
 20
1.09999999999998
 30
0.0
 40
0.139999999999997
 50
270
 51
90
  0
LINE
  8
8
  6
CONTINUOUS
 62
8
 10
52.3325
 20
1.23999999999998
 30
0.0
 11
52.2825
 21
1.23999999999998
 31
0.0
  0
ARC
  8
8
  6
CONTINUOUS
 62
8
 10
52.2824999999998
 20
4.59999999999998
 30
0.0
 40
0.14
 50
89.9999999999992
 51
269.999999999999
  0
LINE
  8
8
  6
CONTINUOUS
 62
8
 10
52.2825
 20
4.45999999999998
 30
0.0
 11
52.3325
 21
4.45999999999998
 31
0.0
  0
ARC
  8
8
  6
CONTINUOUS
 62
8
 10
52.3325
 20
4.59999999999998
 30
0.0
 40
0.14
 50
270
 51
90
  0
LINE
  8
8
  6
CONTINUOUS
 62
8
 10
52.3325
 20
4.73999999999998
 30
0.0
 11
52.2824999999998
 21
4.73999999999998
 31
0.0
  0
ARC
  8
8
  6
CONTINUOUS
 62
8
 10
52.2824999999998
 20
8.29999999999999
 30
0.0
 40
0.140000000000005
 50
89.9999999999992
 51
269.999999999999
  0
LINE
  8
8
  6
CONTINUOUS
 62
8
 10
52.2825
 20
8.15999999999998
 30
0.0
 11
52.3325
 21
8.15999999999998
 31
0.0
  0
ARC
  8
8
  6
CONTINUOUS
 62
8
 10
52.3325
 20
8.29999999999999
 30
0.0
 40
0.140000000000005
 50
270
 51
90
  0
LINE
  8
8
  6
CONTINUOUS
 62
8
 10
52.3325
 20
8.43999999999999
 30
0.0
 11
52.2824999999998
 21
8.43999999999999
 31
0.0
  0
ARC
  8
8
  6
CONTINUOUS
 62
8
 10
52.2825
 20
12
 30
0.0
 40
0.140000000000001
 50
90
 51
270
  0
LINE
  8
8
  6
CONTINUOUS
 62
8
 10
52.2825
 20
11.86
 30
0.0
 11
52.3325
 21
11.86
 31
0.0
  0
ARC
  8
8
  6
CONTINUOUS
 62
8
 10
52.3325
 20
12
 30
0.0
 40
0.140000000000001
 50
270
 51
90
  0
LINE
  8
8
  6
CONTINUOUS
 62
8
 10
52.3325
 20
12.14
 30
0.0
 11
52.2825
 21
12.14
 31
0.0
  0
ARC
  8
8
  6
CONTINUOUS
 62
8
 10
52.3325
 20
15.5
 30
0.0
 40
0.140000000000001
 50
359.999999999999
 51
89.9999999999998
  0
LINE
  8
8
  6
CONTINUOUS
 62
8
 10
52.3325
 20
15.64
 30
0.0
 11
52.2825
 21
15.64
 31
0.0
  0
ARC
  8
8
  6
CONTINUOUS
 62
8
 10
52.2825
 20
15.5
 30
0.0
 40
0.140000000000001
 50
90
 51
270
  0
LINE
  8
8
  6
CONTINUOUS
 62
8
 10
52.2825
 20
15.36
 30
0.0
 11
52.3325
 21
15.36
 31
0.0
  0
ARC
  8
8
  6
CONTINUOUS
 62
8
 10
52.3325
 20
15.5
 30
0.0
 40
0.14
 50
269.999999999999
 51
360
  0
ARC
  8
8
  6
CONTINUOUS
 62
8
 10
56.9625
 20
12.3
 30
0.0
 40
3.49999999999995
 50
359.999999999999
 51
45.0000000000003
  0
LINE
  8
8
  6
CONTINUOUS
 62
8
 10
60.4625
 20
12.3
 30
0.0
 11
60.4625
 21
4.29999999999998
 31
0.0
  0
ARC
  8
8
  6
CONTINUOUS
 62
8
 10
56.9625000000474
 20
4.29999999995257
 30
0.0
 40
3.49999999995258
 50
269.999999999223
 51
7.76463298111163E-10
  0
LINE
  8
8
  6
CONTINUOUS
 62
8
 10
56.9625
 20
0.799999999999984
 30
0.0
 11
54.4625
 21
0.799999999999984
 31
0.0
  0
ARC
  8
8
  6
CONTINUOUS
 62
8
 10
54.4531779624334
 20
-3.36300475155004
 30
0.0
 40
4.16301518875592
 50
89.8717002386077
 51
116.116994773477
  0
ARC
  8
8
  6
CONTINUOUS
 62
8
 10
52.2825
 20
1.09999999999998
 30
0.0
 40
0.799999999999981
 50
246.421821521795
 51
295.000086326116
  0
ARC
  8
8
  6
CONTINUOUS
 62
8
 10
52.2825000000001
 20
15.5
 30
0.0
 40
0.800000000000012
 50
64.9914671708372
 51
113.578178478207
  0
ARC
  8
8
  6
CONTINUOUS
 62
8
 10
54.443855924867
 20
19.9225835782401
 30
0.0
 40
4.12262573624048
 50
243.753678617697
 51
270.259114100487
  0
LINE
  8
8
  6
CONTINUOUS
 62
8
 10
54.4625
 20
15.8
 30
0.0
 11
56.9625
 21
15.8
 31
0.0
  0
ARC
  8
8
  6
CONTINUOUS
 62
8
 10
56.9624999999999
 20
12.3
 30
0.0
 40
3.50000000000003
 50
44.9999999999996
 51
89.9999999999991
  0
ARC
  8
8
  6
CONTINUOUS
 62
8
 10
60.0925
 20
16.3
 30
0.0
 40
0.140000000000001
 50
179.999999999999
 51
269.999999999999
  0
LINE
  8
8
  6
CONTINUOUS
 62
8
 10
60.0925
 20
16.16
 30
0.0
 11
60.1425
 21
16.16
 31
0.0
  0
ARC
  8
8
  6
CONTINUOUS
 62
8
 10
60.1425
 20
16.3
 30
0.0
 40
0.140000000000001
 50
270
 51
90
  0
LINE
  8
8
  6
CONTINUOUS
 62
8
 10
60.1425
 20
16.44
 30
0.0
 11
60.0925
 21
16.44
 31
0.0
  0
ARC
  8
8
  6
CONTINUOUS
 62
8
 10
60.0925
 20
16.3
 30
0.0
 40
0.140000000000001
 50
89.9999999999998
 51
180
  0
ARC
  8
8
  6
CONTINUOUS
 62
8
 10
60.1425
 20
19.8
 30
0.0
 40
0.140000000000001
 50
270
 51
90
  0
LINE
  8
8
  6
CONTINUOUS
 62
8
 10
60.1425
 20
19.94
 30
0.0
 11
60.0925
 21
19.94
 31
0.0
  0
ARC
  8
8
  6
CONTINUOUS
 62
8
 10
60.0925
 20
19.8
 30
0.0
 40
0.140000000000001
 50
90
 51
270
  0
LINE
  8
8
  6
CONTINUOUS
 62
8
 10
60.0925
 20
19.66
 30
0.0
 11
60.1425
 21
19.66
 31
0.0
  0
ARC
  8
8
  6
CONTINUOUS
 62
8
 10
60.1425000000002
 20
23.5
 30
0.0
 40
0.140000000000001
 50
269.999999999999
 51
89.9999999999996
  0
LINE
  8
8
  6
CONTINUOUS
 62
8
 10
60.1425
 20
23.64
 30
0.0
 11
60.0925
 21
23.64
 31
0.0
  0
ARC
  8
8
  6
CONTINUOUS
 62
8
 10
60.0925
 20
23.5
 30
0.0
 40
0.140000000000001
 50
90
 51
270
  0
LINE
  8
8
  6
CONTINUOUS
 62
8
 10
60.0925
 20
23.36
 30
0.0
 11
60.1425000000002
 21
23.36
 31
0.0
  0
ARC
  8
8
  6
CONTINUOUS
 62
8
 10
60.1425000000002
 20
27.2
 30
0.0
 40
0.140000000000001
 50
269.999999999999
 51
89.9999999999996
  0
LINE
  8
8
  6
CONTINUOUS
 62
8
 10
60.1425
 20
27.34
 30
0.0
 11
60.0925
 21
27.34
 31
0.0
  0
ARC
  8
8
  6
CONTINUOUS
 62
8
 10
60.0925
 20
27.2
 30
0.0
 40
0.140000000000001
 50
90
 51
270
  0
LINE
  8
8
  6
CONTINUOUS
 62
8
 10
60.0925
 20
27.06
 30
0.0
 11
60.1425000000002
 21
27.06
 31
0.0
  0
ARC
  8
8
  6
CONTINUOUS
 62
8
 10
60.1425
 20
30.7
 30
0.0
 40
0.140000000000001
 50
270
 51
90
  0
LINE
  8
8
  6
CONTINUOUS
 62
8
 10
60.1425
 20
30.84
 30
0.0
 11
60.0925
 21
30.84
 31
0.0
  0
ARC
  8
8
  6
CONTINUOUS
 62
8
 10
60.0925
 20
30.7
 30
0.0
 40
0.140000000000001
 50
90
 51
270
  0
LINE
  8
8
  6
CONTINUOUS
 62
8
 10
60.0925
 20
30.56
 30
0.0
 11
60.1425
 21
30.56
 31
0.0
  0
ARC
  8
8
  6
CONTINUOUS
 62
8
 10
55.4624999999526
 20
27.5000000000474
 30
0.0
 40
3.49999999995257
 50
89.9999999992238
 51
135
  0
LINE
  8
8
  6
CONTINUOUS
 62
8
 10
55.4625
 20
31
 30
0.0
 11
57.9625
 21
31
 31
0.0
  0
ARC
  8
8
  6
CONTINUOUS
 62
8
 10
57.9718220375666
 20
35.16300475155
 30
0.0
 40
4.16301518875592
 50
269.871700238607
 51
296.116994773477
  0
ARC
  8
8
  6
CONTINUOUS
 62
8
 10
60.1424999999999
 20
30.7
 30
0.0
 40
0.799999999999981
 50
66.4218215217947
 51
115.000086326116
  0
LINE
  8
8
  6
CONTINUOUS
 62
8
 10
60.4625
 20
31.4332121111929
 30
0.0
 11
60.4625
 21
15.5667878888071
 31
0.0
  0
ARC
  8
8
  6
CONTINUOUS
 62
8
 10
60.1424999999999
 20
16.3
 30
0.0
 40
0.799999999999994
 50
244.991467170837
 51
293.578178478207
  0
ARC
  8
8
  6
CONTINUOUS
 62
8
 10
57.981144075133
 20
11.8774164217599
 30
0.0
 40
4.12262573624051
 50
63.7536786176975
 51
90.2591141004872
  0
LINE
  8
8
  6
CONTINUOUS
 62
8
 10
57.9625
 20
16
 30
0.0
 11
55.4625
 21
16
 31
0.0
  0
ARC
  8
8
  6
CONTINUOUS
 62
8
 10
55.4625
 20
19.5
 30
0.0
 40
3.50000000000001
 50
180
 51
270
  0
LINE
  8
8
  6
CONTINUOUS
 62
8
 10
51.9625
 20
19.5
 30
0.0
 11
51.9625
 21
27.5
 31
0.0
  0
ARC
  8
8
  6
CONTINUOUS
 62
8
 10
55.4624999999526
 20
27.5000000000474
 30
0.0
 40
3.49999999995258
 50
134.999999999999
 51
180.000000000776
  0
ARC
  8
8
  6
CONTINUOUS
 62
8
 10
51.5025
 20
30.7
 30
0.0
 40
0.140000000000001
 50
90
 51
270
  0
LINE
  8
8
  6
CONTINUOUS
 62
8
 10
51.5025
 20
30.56
 30
0.0
 11
51.5525
 21
30.56
 31
0.0
  0
ARC
  8
8
  6
CONTINUOUS
 62
8
 10
51.5525
 20
30.7
 30
0.0
 40
0.140000000000001
 50
270
 51
90
  0
LINE
  8
8
  6
CONTINUOUS
 62
8
 10
51.5525
 20
30.84
 30
0.0
 11
51.5025
 21
30.84
 31
0.0
  0
ARC
  8
8
  6
CONTINUOUS
 62
8
 10
51.5025
 20
27.2
 30
0.0
 40
0.140000000000001
 50
90
 51
270
  0
LINE
  8
8
  6
CONTINUOUS
 62
8
 10
51.5025
 20
27.06
 30
0.0
 11
51.5525000000002
 21
27.06
 31
0.0
  0
ARC
  8
8
  6
CONTINUOUS
 62
8
 10
51.5525000000002
 20
27.2
 30
0.0
 40
0.140000000000001
 50
269.999999999999
 51
89.9999999999996
  0
LINE
  8
8
  6
CONTINUOUS
 62
8
 10
51.5525
 20
27.34
 30
0.0
 11
51.5025
 21
27.34
 31
0.0
  0
ARC
  8
8
  6
CONTINUOUS
 62
8
 10
51.5025
 20
23.5
 30
0.0
 40
0.140000000000001
 50
90
 51
270
  0
LINE
  8
8
  6
CONTINUOUS
 62
8
 10
51.5025
 20
23.36
 30
0.0
 11
51.5525000000002
 21
23.36
 31
0.0
  0
ARC
  8
8
  6
CONTINUOUS
 62
8
 10
51.5525000000002
 20
23.5
 30
0.0
 40
0.140000000000001
 50
269.999999999999
 51
89.9999999999996
  0
LINE
  8
8
  6
CONTINUOUS
 62
8
 10
51.5525
 20
23.64
 30
0.0
 11
51.5025
 21
23.64
 31
0.0
  0
ARC
  8
8
  6
CONTINUOUS
 62
8
 10
51.5025
 20
19.8
 30
0.0
 40
0.140000000000001
 50
90
 51
270
  0
LINE
  8
8
  6
CONTINUOUS
 62
8
 10
51.5025
 20
19.66
 30
0.0
 11
51.5525
 21
19.66
 31
0.0
  0
ARC
  8
8
  6
CONTINUOUS
 62
8
 10
51.5525
 20
19.8
 30
0.0
 40
0.140000000000001
 50
270
 51
90
  0
LINE
  8
8
  6
CONTINUOUS
 62
8
 10
51.5525
 20
19.94
 30
0.0
 11
51.5025
 21
19.94
 31
0.0
  0
ARC
  8
8
  6
CONTINUOUS
 62
8
 10
51.5025
 20
16.3
 30
0.0
 40
0.140000000000001
 50
90
 51
270
  0
LINE
  8
8
  6
CONTINUOUS
 62
8
 10
51.5025
 20
16.16
 30
0.0
 11
51.5525
 21
16.16
 31
0.0
  0
ARC
  8
8
  6
CONTINUOUS
 62
8
 10
51.5525
 20
16.3
 30
0.0
 40
0.140000000000001
 50
270
 51
90
  0
LINE
  8
8
  6
CONTINUOUS
 62
8
 10
51.5525
 20
16.44
 30
0.0
 11
51.5025
 21
16.44
 31
0.0
  0
ARC
  8
8
  6
CONTINUOUS
 62
8
 10
46.8725
 20
19.5
 30
0.0
 40
3.49999999999999
 50
180
 51
225
  0
LINE
  8
8
  6
CONTINUOUS
 62
8
 10
43.3725
 20
19.5
 30
0.0
 11
43.3725
 21
27.5
 31
0.0
  0
ARC
  8
8
  6
CONTINUOUS
 62
8
 10
46.8724999999763
 20
27.5000000000237
 30
0.0
 40
3.49999999997629
 50
89.9999999996117
 51
180.000000000388
  0
LINE
  8
8
  6
CONTINUOUS
 62
8
 10
46.8725
 20
31
 30
0.0
 11
49.3725
 21
31
 31
0.0
  0
ARC
  8
8
  6
CONTINUOUS
 62
8
 10
49.3818220375666
 20
35.16300475155
 30
0.0
 40
4.16301518875592
 50
269.871700238607
 51
296.116994773477
  0
ARC
  8
8
  6
CONTINUOUS
 62
8
 10
51.5525
 20
30.7
 30
0.0
 40
0.799999999999981
 50
66.4218215217947
 51
115.000086326116
  0
LINE
  8
8
  6
CONTINUOUS
 62
8
 10
51.8725
 20
31.4332121111929
 30
0.0
 11
51.8725
 21
15.5667878888071
 31
0.0
  0
ARC
  8
8
  6
CONTINUOUS
 62
8
 10
51.5524999999999
 20
16.3
 30
0.0
 40
0.800000000000012
 50
244.991467170837
 51
293.578178478207
  0
ARC
  8
8
  6
CONTINUOUS
 62
8
 10
49.391144075133
 20
11.8774164217599
 30
0.0
 40
4.12262573624048
 50
63.7536786176974
 51
90.2591141004871
  0
LINE
  8
8
  6
CONTINUOUS
 62
8
 10
49.3725
 20
16
 30
0.0
 11
46.8725
 21
16
 31
0.0
  0
ARC
  8
8
  6
CONTINUOUS
 62
8
 10
46.8725
 20
19.5
 30
0.0
 40
3.49999999999999
 50
224.999999999999
 51
269.999999999999
  0
ARC
  8
8
  6
CONTINUOUS
 62
8
 10
43.7425
 20
45.9
 30
0.0
 40
0.140000000000001
 50
270
 51
90
  0
LINE
  8
8
  6
CONTINUOUS
 62
8
 10
43.7425
 20
46.04
 30
0.0
 11
43.6925
 21
46.04
 31
0.0
  0
ARC
  8
8
  6
CONTINUOUS
 62
8
 10
43.6925
 20
45.9
 30
0.0
 40
0.140000000000001
 50
90
 51
270
  0
LINE
  8
8
  6
CONTINUOUS
 62
8
 10
43.6925
 20
45.76
 30
0.0
 11
43.7425
 21
45.76
 31
0.0
  0
ARC
  8
8
  6
CONTINUOUS
 62
8
 10
43.7425
 20
42.4
 30
0.0
 40
0.140000000000001
 50
270
 51
90
  0
LINE
  8
8
  6
CONTINUOUS
 62
8
 10
43.7425
 20
42.54
 30
0.0
 11
43.6925
 21
42.54
 31
0.0
  0
ARC
  8
8
  6
CONTINUOUS
 62
8
 10
43.6925
 20
42.4
 30
0.0
 40
0.140000000000001
 50
90
 51
270
  0
LINE
  8
8
  6
CONTINUOUS
 62
8
 10
43.6925
 20
42.26
 30
0.0
 11
43.7425
 21
42.26
 31
0.0
  0
ARC
  8
8
  6
CONTINUOUS
 62
8
 10
43.7425
 20
38.7
 30
0.0
 40
0.140000000000001
 50
270
 51
90
  0
LINE
  8
8
  6
CONTINUOUS
 62
8
 10
43.7425
 20
38.84
 30
0.0
 11
43.6924999999998
 21
38.84
 31
0.0
  0
ARC
  8
8
  6
CONTINUOUS
 62
8
 10
43.6924999999998
 20
38.7
 30
0.0
 40
0.140000000000001
 50
89.9999999999992
 51
269.999999999999
  0
LINE
  8
8
  6
CONTINUOUS
 62
8
 10
43.6925
 20
38.56
 30
0.0
 11
43.7425
 21
38.56
 31
0.0
  0
ARC
  8
8
  6
CONTINUOUS
 62
8
 10
43.7425
 20
35
 30
0.0
 40
0.140000000000001
 50
270
 51
90
  0
LINE
  8
8
  6
CONTINUOUS
 62
8
 10
43.7425
 20
35.14
 30
0.0
 11
43.6924999999998
 21
35.14
 31
0.0
  0
ARC
  8
8
  6
CONTINUOUS
 62
8
 10
43.6924999999998
 20
35
 30
0.0
 40
0.140000000000001
 50
89.9999999999992
 51
269.999999999999
  0
LINE
  8
8
  6
CONTINUOUS
 62
8
 10
43.6925
 20
34.86
 30
0.0
 11
43.7425
 21
34.86
 31
0.0
  0
ARC
  8
8
  6
CONTINUOUS
 62
8
 10
43.7425
 20
31.5
 30
0.0
 40
0.140000000000001
 50
270
 51
90
  0
LINE
  8
8
  6
CONTINUOUS
 62
8
 10
43.7425
 20
31.64
 30
0.0
 11
43.6925
 21
31.64
 31
0.0
  0
ARC
  8
8
  6
CONTINUOUS
 62
8
 10
43.6925
 20
31.5
 30
0.0
 40
0.140000000000001
 50
90
 51
270
  0
LINE
  8
8
  6
CONTINUOUS
 62
8
 10
43.6925
 20
31.36
 30
0.0
 11
43.7425
 21
31.36
 31
0.0
  0
ARC
  8
8
  6
CONTINUOUS
 62
8
 10
48.3725000000474
 20
34.6999999999526
 30
0.0
 40
3.49999999995258
 50
269.999999999224
 51
315
  0
LINE
  8
8
  6
CONTINUOUS
 62
8
 10
48.3725
 20
31.2
 30
0.0
 11
45.8725
 21
31.2
 31
0.0
  0
ARC
  8
8
  6
CONTINUOUS
 62
8
 10
45.8631779624334
 20
27.03699524845
 30
0.0
 40
4.16301518875592
 50
89.8717002386078
 51
116.116994773477
  0
ARC
  8
8
  6
CONTINUOUS
 62
8
 10
43.6925
 20
31.5
 30
0.0
 40
0.799999999999981
 50
246.421821521794
 51
295.000086326116
  0
LINE
  8
8
  6
CONTINUOUS
 62
8
 10
43.3725
 20
30.7667878888071
 30
0.0
 11
43.3725
 21
46.6332121111929
 31
0.0
  0
ARC
  8
8
  6
CONTINUOUS
 62
8
 10
43.6925000000001
 20
45.9
 30
0.0
 40
0.800000000000003
 50
64.9914671708372
 51
113.578178478207
  0
ARC
  8
8
  6
CONTINUOUS
 62
8
 10
45.853855924867
 20
50.3225835782401
 30
0.0
 40
4.12262573624049
 50
243.753678617697
 51
270.259114100487
  0
LINE
  8
8
  6
CONTINUOUS
 62
8
 10
45.8725
 20
46.2
 30
0.0
 11
48.3725
 21
46.2
 31
0.0
  0
ARC
  8
8
  6
CONTINUOUS
 62
8
 10
48.3725
 20
42.7
 30
0.0
 40
3.5
 50
359.999999999999
 51
89.9999999999998
  0
LINE
  8
8
  6
CONTINUOUS
 62
8
 10
51.8725
 20
42.7
 30
0.0
 11
51.8725
 21
34.7
 31
0.0
  0
ARC
  8
8
  6
CONTINUOUS
 62
8
 10
48.3725000000474
 20
34.6999999999526
 30
0.0
 40
3.49999999995256
 50
314.999999999999
 51
7.76412409236259E-10
  0
ARC
  8
8
  6
CONTINUOUS
 62
8
 10
52.2825
 20
31.5
 30
0.0
 40
0.140000000000001
 50
90
 51
270
  0
LINE
  8
8
  6
CONTINUOUS
 62
8
 10
52.2825
 20
31.36
 30
0.0
 11
52.3325
 21
31.36
 31
0.0
  0
ARC
  8
8
  6
CONTINUOUS
 62
8
 10
52.3325
 20
31.5
 30
0.0
 40
0.140000000000001
 50
270
 51
90
  0
LINE
  8
8
  6
CONTINUOUS
 62
8
 10
52.3325
 20
31.64
 30
0.0
 11
52.2825
 21
31.64
 31
0.0
  0
ARC
  8
8
  6
CONTINUOUS
 62
8
 10
52.2824999999998
 20
35
 30
0.0
 40
0.140000000000001
 50
89.9999999999992
 51
269.999999999999
  0
LINE
  8
8
  6
CONTINUOUS
 62
8
 10
52.2825
 20
34.86
 30
0.0
 11
52.3325
 21
34.86
 31
0.0
  0
ARC
  8
8
  6
CONTINUOUS
 62
8
 10
52.3325
 20
35
 30
0.0
 40
0.140000000000001
 50
270
 51
90
  0
LINE
  8
8
  6
CONTINUOUS
 62
8
 10
52.3325
 20
35.14
 30
0.0
 11
52.2824999999998
 21
35.14
 31
0.0
  0
ARC
  8
8
  6
CONTINUOUS
 62
8
 10
52.2824999999998
 20
38.7
 30
0.0
 40
0.140000000000001
 50
89.9999999999992
 51
269.999999999999
  0
LINE
  8
8
  6
CONTINUOUS
 62
8
 10
52.2825
 20
38.56
 30
0.0
 11
52.3325
 21
38.56
 31
0.0
  0
ARC
  8
8
  6
CONTINUOUS
 62
8
 10
52.3325
 20
38.7
 30
0.0
 40
0.140000000000001
 50
270
 51
90
  0
LINE
  8
8
  6
CONTINUOUS
 62
8
 10
52.3325
 20
38.84
 30
0.0
 11
52.2824999999998
 21
38.84
 31
0.0
  0
ARC
  8
8
  6
CONTINUOUS
 62
8
 10
52.2825
 20
42.4
 30
0.0
 40
0.140000000000001
 50
90
 51
270
  0
LINE
  8
8
  6
CONTINUOUS
 62
8
 10
52.2825
 20
42.26
 30
0.0
 11
52.3325
 21
42.26
 31
0.0
  0
ARC
  8
8
  6
CONTINUOUS
 62
8
 10
52.3325
 20
42.4
 30
0.0
 40
0.140000000000001
 50
270
 51
90
  0
LINE
  8
8
  6
CONTINUOUS
 62
8
 10
52.3325
 20
42.54
 30
0.0
 11
52.2825
 21
42.54
 31
0.0
  0
ARC
  8
8
  6
CONTINUOUS
 62
8
 10
52.3325
 20
45.9
 30
0.0
 40
0.140000000000001
 50
270
 51
90
  0
LINE
  8
8
  6
CONTINUOUS
 62
8
 10
52.3325
 20
46.04
 30
0.0
 11
52.2825
 21
46.04
 31
0.0
  0
ARC
  8
8
  6
CONTINUOUS
 62
8
 10
52.2825
 20
45.9
 30
0.0
 40
0.140000000000001
 50
90
 51
270
  0
LINE
  8
8
  6
CONTINUOUS
 62
8
 10
52.2825
 20
45.76
 30
0.0
 11
52.3325
 21
45.76
 31
0.0
  0
ARC
  8
8
  6
CONTINUOUS
 62
8
 10
56.9625
 20
42.7
 30
0.0
 40
3.49999999999994
 50
360
 51
45.0000000000004
  0
LINE
  8
8
  6
CONTINUOUS
 62
8
 10
60.4625
 20
42.7
 30
0.0
 11
60.4625
 21
34.7
 31
0.0
  0
ARC
  8
8
  6
CONTINUOUS
 62
8
 10
56.9625000000474
 20
34.6999999999526
 30
0.0
 40
3.49999999995258
 50
269.999999999224
 51
7.76514186986066E-10
  0
LINE
  8
8
  6
CONTINUOUS
 62
8
 10
56.9625
 20
31.2
 30
0.0
 11
54.4625
 21
31.2
 31
0.0
  0
ARC
  8
8
  6
CONTINUOUS
 62
8
 10
54.4531779624334
 20
27.03699524845
 30
0.0
 40
4.16301518875592
 50
89.8717002386078
 51
116.116994773477
  0
ARC
  8
8
  6
CONTINUOUS
 62
8
 10
52.2825
 20
31.5
 30
0.0
 40
0.799999999999981
 50
246.421821521794
 51
295.000086326116
  0
LINE
  8
8
  6
CONTINUOUS
 62
8
 10
51.9625
 20
30.7667878888071
 30
0.0
 11
51.9625
 21
46.6332121111929
 31
0.0
  0
ARC
  8
8
  6
CONTINUOUS
 62
8
 10
52.2825000000001
 20
45.9
 30
0.0
 40
0.800000000000012
 50
64.9914671708372
 51
113.578178478207
  0
ARC
  8
8
  6
CONTINUOUS
 62
8
 10
54.443855924867
 20
50.3225835782401
 30
0.0
 40
4.12262573624048
 50
243.753678617697
 51
270.259114100487
  0
LINE
  8
8
  6
CONTINUOUS
 62
8
 10
54.4625
 20
46.2
 30
0.0
 11
56.9625
 21
46.2
 31
0.0
  0
ARC
  8
8
  6
CONTINUOUS
 62
8
 10
56.9624999999999
 20
42.7
 30
0.0
 40
3.50000000000003
 50
44.9999999999995
 51
89.999999999999
  0
LINE
  8
8
  6
CONTINUOUS
 62
8
 10
51.9625
 20
0.366787888807085
 30
0.0
 11
51.9625
 21
16.2332121111929
 31
0.0
  0
ARC
  8
8
  6
CONTINUOUS
 62
8
 10
60.9225
 20
15.5
 30
0.0
 40
0.140000000000001
 50
270
 51
90
  0
LINE
  8
8
  6
CONTINUOUS
 62
8
 10
60.9225
 20
15.64
 30
0.0
 11
60.8725
 21
15.64
 31
0.0
  0
ARC
  8
8
  6
CONTINUOUS
 62
8
 10
60.8725
 20
15.5
 30
0.0
 40
0.140000000000001
 50
90
 51
270
  0
LINE
  8
8
  6
CONTINUOUS
 62
8
 10
60.8725
 20
15.36
 30
0.0
 11
60.9225
 21
15.36
 31
0.0
  0
ARC
  8
8
  6
CONTINUOUS
 62
8
 10
60.9225
 20
12
 30
0.0
 40
0.140000000000001
 50
270
 51
90
  0
LINE
  8
8
  6
CONTINUOUS
 62
8
 10
60.9225
 20
12.14
 30
0.0
 11
60.8725
 21
12.14
 31
0.0
  0
ARC
  8
8
  6
CONTINUOUS
 62
8
 10
60.8725
 20
12
 30
0.0
 40
0.140000000000001
 50
90
 51
270
  0
LINE
  8
8
  6
CONTINUOUS
 62
8
 10
60.8725
 20
11.86
 30
0.0
 11
60.9225
 21
11.86
 31
0.0
  0
ARC
  8
8
  6
CONTINUOUS
 62
8
 10
60.9225
 20
8.29999999999999
 30
0.0
 40
0.140000000000005
 50
270
 51
90
  0
LINE
  8
8
  6
CONTINUOUS
 62
8
 10
60.9225
 20
8.43999999999999
 30
0.0
 11
60.8724999999998
 21
8.43999999999999
 31
0.0
  0
ARC
  8
8
  6
CONTINUOUS
 62
8
 10
60.8724999999998
 20
8.29999999999999
 30
0.0
 40
0.140000000000005
 50
89.9999999999992
 51
269.999999999999
  0
LINE
  8
8
  6
CONTINUOUS
 62
8
 10
60.8725
 20
8.15999999999998
 30
0.0
 11
60.9225
 21
8.15999999999998
 31
0.0
  0
ARC
  8
8
  6
CONTINUOUS
 62
8
 10
60.9225
 20
4.59999999999998
 30
0.0
 40
0.14
 50
270
 51
90
  0
LINE
  8
8
  6
CONTINUOUS
 62
8
 10
60.9225
 20
4.73999999999998
 30
0.0
 11
60.8724999999998
 21
4.73999999999998
 31
0.0
  0
ARC
  8
8
  6
CONTINUOUS
 62
8
 10
60.8724999999998
 20
4.59999999999998
 30
0.0
 40
0.14
 50
89.9999999999992
 51
269.999999999999
  0
LINE
  8
8
  6
CONTINUOUS
 62
8
 10
60.8725
 20
4.45999999999998
 30
0.0
 11
60.9225
 21
4.45999999999998
 31
0.0
  0
ARC
  8
8
  6
CONTINUOUS
 62
8
 10
60.9225
 20
1.09999999999998
 30
0.0
 40
0.139999999999997
 50
270
 51
90
  0
LINE
  8
8
  6
CONTINUOUS
 62
8
 10
60.9225
 20
1.23999999999998
 30
0.0
 11
60.8725
 21
1.23999999999998
 31
0.0
  0
ARC
  8
8
  6
CONTINUOUS
 62
8
 10
60.8725
 20
1.09999999999998
 30
0.0
 40
0.139999999999997
 50
90
 51
270
  0
LINE
  8
8
  6
CONTINUOUS
 62
8
 10
60.8725
 20
0.959999999999987
 30
0.0
 11
60.9225
 21
0.959999999999987
 31
0.0
  0
ARC
  8
8
  6
CONTINUOUS
 62
8
 10
65.5525000000474
 20
4.29999999995254
 30
0.0
 40
3.49999999995255
 50
269.999999999223
 51
314.999999999999
  0
LINE
  8
8
  6
CONTINUOUS
 62
8
 10
65.5525
 20
0.799999999999984
 30
0.0
 11
63.0525
 21
0.799999999999984
 31
0.0
  0
ARC
  8
8
  6
CONTINUOUS
 62
8
 10
63.0431779624334
 20
-3.36300475155004
 30
0.0
 40
4.16301518875592
 50
89.8717002386077
 51
116.116994773477
  0
ARC
  8
8
  6
CONTINUOUS
 62
8
 10
60.8725
 20
1.09999999999998
 30
0.0
 40
0.799999999999981
 50
246.421821521795
 51
295.000086326116
  0
LINE
  8
8
  6
CONTINUOUS
 62
8
 10
60.5525
 20
0.366787888807085
 30
0.0
 11
60.5525
 21
16.2332121111929
 31
0.0
  0
ARC
  8
8
  6
CONTINUOUS
 62
8
 10
60.8725000000001
 20
15.5
 30
0.0
 40
0.799999999999994
 50
64.9914671708372
 51
113.578178478207
  0
ARC
  8
8
  6
CONTINUOUS
 62
8
 10
63.033855924867
 20
19.9225835782401
 30
0.0
 40
4.12262573624051
 50
243.753678617697
 51
270.259114100487
  0
LINE
  8
8
  6
CONTINUOUS
 62
8
 10
63.0525
 20
15.8
 30
0.0
 11
65.5525
 21
15.8
 31
0.0
  0
ARC
  8
8
  6
CONTINUOUS
 62
8
 10
65.5525
 20
12.3
 30
0.0
 40
3.5
 50
359.999999999999
 51
89.9999999999998
  0
LINE
  8
8
  6
CONTINUOUS
 62
8
 10
69.0525
 20
12.3
 30
0.0
 11
69.0525
 21
4.29999999999998
 31
0.0
  0
ARC
  8
8
  6
CONTINUOUS
 62
8
 10
65.5525000000474
 20
4.29999999995256
 30
0.0
 40
3.49999999995259
 50
315
 51
7.76615964735873E-10
  0
ARC
  8
8
  6
CONTINUOUS
 62
8
 10
69.4625
 20
1.09999999999998
 30
0.0
 40
0.139999999999997
 50
90
 51
270
  0
LINE
  8
8
  6
CONTINUOUS
 62
8
 10
69.4625
 20
0.959999999999987
 30
0.0
 11
69.5125
 21
0.959999999999987
 31
0.0
  0
ARC
  8
8
  6
CONTINUOUS
 62
8
 10
69.5125
 20
1.09999999999998
 30
0.0
 40
0.139999999999997
 50
270
 51
90
  0
LINE
  8
8
  6
CONTINUOUS
 62
8
 10
69.5125
 20
1.23999999999998
 30
0.0
 11
69.4625
 21
1.23999999999998
 31
0.0
  0
ARC
  8
8
  6
CONTINUOUS
 62
8
 10
69.4624999999998
 20
4.59999999999998
 30
0.0
 40
0.14
 50
89.9999999999992
 51
269.999999999999
  0
LINE
  8
8
  6
CONTINUOUS
 62
8
 10
69.4625
 20
4.45999999999998
 30
0.0
 11
69.5125
 21
4.45999999999998
 31
0.0
  0
ARC
  8
8
  6
CONTINUOUS
 62
8
 10
69.5125
 20
4.59999999999998
 30
0.0
 40
0.14
 50
270
 51
90
  0
LINE
  8
8
  6
CONTINUOUS
 62
8
 10
69.5125
 20
4.73999999999998
 30
0.0
 11
69.4624999999998
 21
4.73999999999998
 31
0.0
  0
ARC
  8
8
  6
CONTINUOUS
 62
8
 10
69.4624999999998
 20
8.29999999999999
 30
0.0
 40
0.140000000000005
 50
89.9999999999992
 51
269.999999999999
  0
LINE
  8
8
  6
CONTINUOUS
 62
8
 10
69.4625
 20
8.15999999999998
 30
0.0
 11
69.5125
 21
8.15999999999998
 31
0.0
  0
ARC
  8
8
  6
CONTINUOUS
 62
8
 10
69.5125
 20
8.29999999999999
 30
0.0
 40
0.140000000000005
 50
270
 51
90
  0
LINE
  8
8
  6
CONTINUOUS
 62
8
 10
69.5125
 20
8.43999999999999
 30
0.0
 11
69.4624999999998
 21
8.43999999999999
 31
0.0
  0
ARC
  8
8
  6
CONTINUOUS
 62
8
 10
69.4625
 20
12
 30
0.0
 40
0.140000000000001
 50
90
 51
270
  0
LINE
  8
8
  6
CONTINUOUS
 62
8
 10
69.4625
 20
11.86
 30
0.0
 11
69.5125
 21
11.86
 31
0.0
  0
ARC
  8
8
  6
CONTINUOUS
 62
8
 10
69.5125
 20
12
 30
0.0
 40
0.140000000000001
 50
270
 51
90
  0
LINE
  8
8
  6
CONTINUOUS
 62
8
 10
69.5125
 20
12.14
 30
0.0
 11
69.4625
 21
12.14
 31
0.0
  0
ARC
  8
8
  6
CONTINUOUS
 62
8
 10
69.5125
 20
15.5
 30
0.0
 40
0.140000000000001
 50
359.999999999999
 51
89.9999999999998
  0
LINE
  8
8
  6
CONTINUOUS
 62
8
 10
69.5125
 20
15.64
 30
0.0
 11
69.4625
 21
15.64
 31
0.0
  0
ARC
  8
8
  6
CONTINUOUS
 62
8
 10
69.4625
 20
15.5
 30
0.0
 40
0.140000000000001
 50
90
 51
270
  0
LINE
  8
8
  6
CONTINUOUS
 62
8
 10
69.4625
 20
15.36
 30
0.0
 11
69.5125
 21
15.36
 31
0.0
  0
ARC
  8
8
  6
CONTINUOUS
 62
8
 10
69.5125
 20
15.5
 30
0.0
 40
0.14
 50
269.999999999999
 51
360
  0
ARC
  8
8
  6
CONTINUOUS
 62
8
 10
74.1425
 20
12.3
 30
0.0
 40
3.49999999999995
 50
359.999999999999
 51
45.0000000000003
  0
LINE
  8
8
  6
CONTINUOUS
 62
8
 10
77.6425
 20
12.3
 30
0.0
 11
77.6425
 21
4.29999999999998
 31
0.0
  0
ARC
  8
8
  6
CONTINUOUS
 62
8
 10
74.1425000000474
 20
4.29999999995257
 30
0.0
 40
3.49999999995258
 50
269.999999999223
 51
7.76463298111163E-10
  0
LINE
  8
8
  6
CONTINUOUS
 62
8
 10
74.1425
 20
0.799999999999984
 30
0.0
 11
71.6425
 21
0.799999999999984
 31
0.0
  0
ARC
  8
8
  6
CONTINUOUS
 62
8
 10
71.6331779624334
 20
-3.36300475155001
 30
0.0
 40
4.16301518875589
 50
89.8717002386078
 51
116.116994773477
  0
ARC
  8
8
  6
CONTINUOUS
 62
8
 10
69.4625
 20
1.1
 30
0.0
 40
0.799999999999998
 50
246.421821521795
 51
295.000086326116
  0
ARC
  8
8
  6
CONTINUOUS
 62
8
 10
69.4625000000001
 20
15.5
 30
0.0
 40
0.800000000000012
 50
64.9914671708372
 51
113.578178478207
  0
ARC
  8
8
  6
CONTINUOUS
 62
8
 10
71.623855924867
 20
19.9225835782401
 30
0.0
 40
4.12262573624048
 50
243.753678617697
 51
270.259114100487
  0
LINE
  8
8
  6
CONTINUOUS
 62
8
 10
71.6425
 20
15.8
 30
0.0
 11
74.1425
 21
15.8
 31
0.0
  0
ARC
  8
8
  6
CONTINUOUS
 62
8
 10
74.1424999999999
 20
12.3
 30
0.0
 40
3.50000000000003
 50
44.9999999999996
 51
89.9999999999991
  0
ARC
  8
8
  6
CONTINUOUS
 62
8
 10
77.2725
 20
16.3
 30
0.0
 40
0.140000000000001
 50
179.999999999999
 51
269.999999999999
  0
LINE
  8
8
  6
CONTINUOUS
 62
8
 10
77.2725
 20
16.16
 30
0.0
 11
77.3225
 21
16.16
 31
0.0
  0
ARC
  8
8
  6
CONTINUOUS
 62
8
 10
77.3225
 20
16.3
 30
0.0
 40
0.140000000000001
 50
270
 51
90
  0
LINE
  8
8
  6
CONTINUOUS
 62
8
 10
77.3225
 20
16.44
 30
0.0
 11
77.2725
 21
16.44
 31
0.0
  0
ARC
  8
8
  6
CONTINUOUS
 62
8
 10
77.2725
 20
16.3
 30
0.0
 40
0.140000000000001
 50
89.9999999999998
 51
180
  0
ARC
  8
8
  6
CONTINUOUS
 62
8
 10
77.3225
 20
19.8
 30
0.0
 40
0.140000000000001
 50
270
 51
90
  0
LINE
  8
8
  6
CONTINUOUS
 62
8
 10
77.3225
 20
19.94
 30
0.0
 11
77.2725
 21
19.94
 31
0.0
  0
ARC
  8
8
  6
CONTINUOUS
 62
8
 10
77.2725
 20
19.8
 30
0.0
 40
0.140000000000001
 50
90
 51
270
  0
LINE
  8
8
  6
CONTINUOUS
 62
8
 10
77.2725
 20
19.66
 30
0.0
 11
77.3225
 21
19.66
 31
0.0
  0
ARC
  8
8
  6
CONTINUOUS
 62
8
 10
77.3225000000002
 20
23.5
 30
0.0
 40
0.140000000000001
 50
269.999999999999
 51
89.9999999999996
  0
LINE
  8
8
  6
CONTINUOUS
 62
8
 10
77.3225
 20
23.64
 30
0.0
 11
77.2725
 21
23.64
 31
0.0
  0
ARC
  8
8
  6
CONTINUOUS
 62
8
 10
77.2725
 20
23.5
 30
0.0
 40
0.140000000000001
 50
90
 51
270
  0
LINE
  8
8
  6
CONTINUOUS
 62
8
 10
77.2725
 20
23.36
 30
0.0
 11
77.3225000000002
 21
23.36
 31
0.0
  0
ARC
  8
8
  6
CONTINUOUS
 62
8
 10
77.3225000000002
 20
27.2
 30
0.0
 40
0.140000000000001
 50
269.999999999999
 51
89.9999999999996
  0
LINE
  8
8
  6
CONTINUOUS
 62
8
 10
77.3225
 20
27.34
 30
0.0
 11
77.2725
 21
27.34
 31
0.0
  0
ARC
  8
8
  6
CONTINUOUS
 62
8
 10
77.2725
 20
27.2
 30
0.0
 40
0.140000000000001
 50
90
 51
270
  0
LINE
  8
8
  6
CONTINUOUS
 62
8
 10
77.2725
 20
27.06
 30
0.0
 11
77.3225000000002
 21
27.06
 31
0.0
  0
ARC
  8
8
  6
CONTINUOUS
 62
8
 10
77.3225
 20
30.7
 30
0.0
 40
0.140000000000001
 50
270
 51
90
  0
LINE
  8
8
  6
CONTINUOUS
 62
8
 10
77.3225
 20
30.84
 30
0.0
 11
77.2725
 21
30.84
 31
0.0
  0
ARC
  8
8
  6
CONTINUOUS
 62
8
 10
77.2725
 20
30.7
 30
0.0
 40
0.140000000000001
 50
90
 51
270
  0
LINE
  8
8
  6
CONTINUOUS
 62
8
 10
77.2725
 20
30.56
 30
0.0
 11
77.3225
 21
30.56
 31
0.0
  0
ARC
  8
8
  6
CONTINUOUS
 62
8
 10
72.6424999999525
 20
27.5000000000474
 30
0.0
 40
3.49999999995257
 50
89.9999999992238
 51
135
  0
LINE
  8
8
  6
CONTINUOUS
 62
8
 10
72.6425
 20
31
 30
0.0
 11
75.1425
 21
31
 31
0.0
  0
ARC
  8
8
  6
CONTINUOUS
 62
8
 10
75.1518220375666
 20
35.1630047515501
 30
0.0
 40
4.16301518875595
 50
269.871700238607
 51
296.116994773477
  0
ARC
  8
8
  6
CONTINUOUS
 62
8
 10
77.3224999999999
 20
30.7
 30
0.0
 40
0.799999999999964
 50
66.4218215217947
 51
115.000086326116
  0
LINE
  8
8
  6
CONTINUOUS
 62
8
 10
77.6425
 20
31.4332121111929
 30
0.0
 11
77.6425
 21
15.5667878888071
 31
0.0
  0
ARC
  8
8
  6
CONTINUOUS
 62
8
 10
77.3224999999999
 20
16.3
 30
0.0
 40
0.799999999999994
 50
244.991467170837
 51
293.578178478207
  0
ARC
  8
8
  6
CONTINUOUS
 62
8
 10
75.161144075133
 20
11.8774164217599
 30
0.0
 40
4.12262573624051
 50
63.7536786176975
 51
90.2591141004872
  0
LINE
  8
8
  6
CONTINUOUS
 62
8
 10
75.1425
 20
16
 30
0.0
 11
72.6425
 21
16
 31
0.0
  0
ARC
  8
8
  6
CONTINUOUS
 62
8
 10
72.6425
 20
19.5
 30
0.0
 40
3.50000000000001
 50
180
 51
270
  0
LINE
  8
8
  6
CONTINUOUS
 62
8
 10
69.1425
 20
19.5
 30
0.0
 11
69.1425
 21
27.5
 31
0.0
  0
ARC
  8
8
  6
CONTINUOUS
 62
8
 10
72.6424999999526
 20
27.5000000000474
 30
0.0
 40
3.49999999995258
 50
134.999999999999
 51
180.000000000776
  0
ARC
  8
8
  6
CONTINUOUS
 62
8
 10
68.6825
 20
30.7
 30
0.0
 40
0.140000000000001
 50
90
 51
270
  0
LINE
  8
8
  6
CONTINUOUS
 62
8
 10
68.6825
 20
30.56
 30
0.0
 11
68.7325
 21
30.56
 31
0.0
  0
ARC
  8
8
  6
CONTINUOUS
 62
8
 10
68.7325
 20
30.7
 30
0.0
 40
0.140000000000001
 50
270
 51
90
  0
LINE
  8
8
  6
CONTINUOUS
 62
8
 10
68.7325
 20
30.84
 30
0.0
 11
68.6825
 21
30.84
 31
0.0
  0
ARC
  8
8
  6
CONTINUOUS
 62
8
 10
68.6825
 20
27.2
 30
0.0
 40
0.140000000000001
 50
90
 51
270
  0
LINE
  8
8
  6
CONTINUOUS
 62
8
 10
68.6825
 20
27.06
 30
0.0
 11
68.7325000000002
 21
27.06
 31
0.0
  0
ARC
  8
8
  6
CONTINUOUS
 62
8
 10
68.7325000000002
 20
27.2
 30
0.0
 40
0.140000000000001
 50
269.999999999999
 51
89.9999999999996
  0
LINE
  8
8
  6
CONTINUOUS
 62
8
 10
68.7325
 20
27.34
 30
0.0
 11
68.6825
 21
27.34
 31
0.0
  0
ARC
  8
8
  6
CONTINUOUS
 62
8
 10
68.6825
 20
23.5
 30
0.0
 40
0.140000000000001
 50
90
 51
270
  0
LINE
  8
8
  6
CONTINUOUS
 62
8
 10
68.6825
 20
23.36
 30
0.0
 11
68.7325000000002
 21
23.36
 31
0.0
  0
ARC
  8
8
  6
CONTINUOUS
 62
8
 10
68.7325000000002
 20
23.5
 30
0.0
 40
0.140000000000001
 50
269.999999999999
 51
89.9999999999996
  0
LINE
  8
8
  6
CONTINUOUS
 62
8
 10
68.7325
 20
23.64
 30
0.0
 11
68.6825
 21
23.64
 31
0.0
  0
ARC
  8
8
  6
CONTINUOUS
 62
8
 10
68.6825
 20
19.8
 30
0.0
 40
0.140000000000001
 50
90
 51
270
  0
LINE
  8
8
  6
CONTINUOUS
 62
8
 10
68.6825
 20
19.66
 30
0.0
 11
68.7325
 21
19.66
 31
0.0
  0
ARC
  8
8
  6
CONTINUOUS
 62
8
 10
68.7325
 20
19.8
 30
0.0
 40
0.140000000000001
 50
270
 51
90
  0
LINE
  8
8
  6
CONTINUOUS
 62
8
 10
68.7325
 20
19.94
 30
0.0
 11
68.6825
 21
19.94
 31
0.0
  0
ARC
  8
8
  6
CONTINUOUS
 62
8
 10
68.6825
 20
16.3
 30
0.0
 40
0.140000000000001
 50
90
 51
270
  0
LINE
  8
8
  6
CONTINUOUS
 62
8
 10
68.6825
 20
16.16
 30
0.0
 11
68.7325
 21
16.16
 31
0.0
  0
ARC
  8
8
  6
CONTINUOUS
 62
8
 10
68.7325
 20
16.3
 30
0.0
 40
0.140000000000001
 50
270
 51
90
  0
LINE
  8
8
  6
CONTINUOUS
 62
8
 10
68.7325
 20
16.44
 30
0.0
 11
68.6825
 21
16.44
 31
0.0
  0
ARC
  8
8
  6
CONTINUOUS
 62
8
 10
64.0525
 20
19.5
 30
0.0
 40
3.49999999999999
 50
180
 51
225
  0
LINE
  8
8
  6
CONTINUOUS
 62
8
 10
60.5525
 20
19.5
 30
0.0
 11
60.5525
 21
27.5
 31
0.0
  0
ARC
  8
8
  6
CONTINUOUS
 62
8
 10
64.0524999999763
 20
27.5000000000237
 30
0.0
 40
3.49999999997629
 50
89.9999999996117
 51
180.000000000388
  0
LINE
  8
8
  6
CONTINUOUS
 62
8
 10
64.0525
 20
31
 30
0.0
 11
66.5525
 21
31
 31
0.0
  0
ARC
  8
8
  6
CONTINUOUS
 62
8
 10
66.5618220375666
 20
35.16300475155
 30
0.0
 40
4.16301518875592
 50
269.871700238607
 51
296.116994773477
  0
ARC
  8
8
  6
CONTINUOUS
 62
8
 10
68.7325
 20
30.7
 30
0.0
 40
0.799999999999981
 50
66.4218215217947
 51
115.000086326116
  0
LINE
  8
8
  6
CONTINUOUS
 62
8
 10
69.0525
 20
31.4332121111929
 30
0.0
 11
69.0525
 21
15.5667878888071
 31
0.0
  0
ARC
  8
8
  6
CONTINUOUS
 62
8
 10
68.7324999999999
 20
16.3
 30
0.0
 40
0.800000000000012
 50
244.991467170837
 51
293.578178478207
  0
ARC
  8
8
  6
CONTINUOUS
 62
8
 10
66.571144075133
 20
11.8774164217599
 30
0.0
 40
4.12262573624048
 50
63.7536786176974
 51
90.2591141004871
  0
LINE
  8
8
  6
CONTINUOUS
 62
8
 10
66.5525
 20
16
 30
0.0
 11
64.0525
 21
16
 31
0.0
  0
ARC
  8
8
  6
CONTINUOUS
 62
8
 10
64.0525
 20
19.5
 30
0.0
 40
3.49999999999999
 50
224.999999999999
 51
269.999999999999
  0
ARC
  8
8
  6
CONTINUOUS
 62
8
 10
60.9225
 20
45.9
 30
0.0
 40
0.140000000000001
 50
270
 51
90
  0
LINE
  8
8
  6
CONTINUOUS
 62
8
 10
60.9225
 20
46.04
 30
0.0
 11
60.8725
 21
46.04
 31
0.0
  0
ARC
  8
8
  6
CONTINUOUS
 62
8
 10
60.8725
 20
45.9
 30
0.0
 40
0.140000000000001
 50
90
 51
270
  0
LINE
  8
8
  6
CONTINUOUS
 62
8
 10
60.8725
 20
45.76
 30
0.0
 11
60.9225
 21
45.76
 31
0.0
  0
ARC
  8
8
  6
CONTINUOUS
 62
8
 10
60.9225
 20
42.4
 30
0.0
 40
0.140000000000001
 50
270
 51
90
  0
LINE
  8
8
  6
CONTINUOUS
 62
8
 10
60.9225
 20
42.54
 30
0.0
 11
60.8725
 21
42.54
 31
0.0
  0
ARC
  8
8
  6
CONTINUOUS
 62
8
 10
60.8725
 20
42.4
 30
0.0
 40
0.140000000000001
 50
90
 51
270
  0
LINE
  8
8
  6
CONTINUOUS
 62
8
 10
60.8725
 20
42.26
 30
0.0
 11
60.9225
 21
42.26
 31
0.0
  0
ARC
  8
8
  6
CONTINUOUS
 62
8
 10
60.9225
 20
38.7
 30
0.0
 40
0.140000000000001
 50
270
 51
90
  0
LINE
  8
8
  6
CONTINUOUS
 62
8
 10
60.9225
 20
38.84
 30
0.0
 11
60.8724999999998
 21
38.84
 31
0.0
  0
ARC
  8
8
  6
CONTINUOUS
 62
8
 10
60.8724999999998
 20
38.7
 30
0.0
 40
0.140000000000001
 50
89.9999999999992
 51
269.999999999999
  0
LINE
  8
8
  6
CONTINUOUS
 62
8
 10
60.8725
 20
38.56
 30
0.0
 11
60.9225
 21
38.56
 31
0.0
  0
ARC
  8
8
  6
CONTINUOUS
 62
8
 10
60.9225
 20
35
 30
0.0
 40
0.140000000000001
 50
270
 51
90
  0
LINE
  8
8
  6
CONTINUOUS
 62
8
 10
60.9225
 20
35.14
 30
0.0
 11
60.8724999999998
 21
35.14
 31
0.0
  0
ARC
  8
8
  6
CONTINUOUS
 62
8
 10
60.8724999999998
 20
35
 30
0.0
 40
0.140000000000001
 50
89.9999999999992
 51
269.999999999999
  0
LINE
  8
8
  6
CONTINUOUS
 62
8
 10
60.8725
 20
34.86
 30
0.0
 11
60.9225
 21
34.86
 31
0.0
  0
ARC
  8
8
  6
CONTINUOUS
 62
8
 10
60.9225
 20
31.5
 30
0.0
 40
0.140000000000001
 50
270
 51
90
  0
LINE
  8
8
  6
CONTINUOUS
 62
8
 10
60.9225
 20
31.64
 30
0.0
 11
60.8725
 21
31.64
 31
0.0
  0
ARC
  8
8
  6
CONTINUOUS
 62
8
 10
60.8725
 20
31.5
 30
0.0
 40
0.140000000000001
 50
90
 51
270
  0
LINE
  8
8
  6
CONTINUOUS
 62
8
 10
60.8725
 20
31.36
 30
0.0
 11
60.9225
 21
31.36
 31
0.0
  0
ARC
  8
8
  6
CONTINUOUS
 62
8
 10
65.5525000000474
 20
34.6999999999526
 30
0.0
 40
3.49999999995257
 50
269.999999999224
 51
315
  0
LINE
  8
8
  6
CONTINUOUS
 62
8
 10
65.5525
 20
31.2
 30
0.0
 11
63.0525
 21
31.2
 31
0.0
  0
ARC
  8
8
  6
CONTINUOUS
 62
8
 10
63.0431779624334
 20
27.03699524845
 30
0.0
 40
4.16301518875592
 50
89.8717002386078
 51
116.116994773477
  0
ARC
  8
8
  6
CONTINUOUS
 62
8
 10
60.8725
 20
31.5
 30
0.0
 40
0.799999999999981
 50
246.421821521794
 51
295.000086326116
  0
LINE
  8
8
  6
CONTINUOUS
 62
8
 10
60.5525
 20
30.7667878888071
 30
0.0
 11
60.5525
 21
46.6332121111929
 31
0.0
  0
ARC
  8
8
  6
CONTINUOUS
 62
8
 10
60.8725000000001
 20
45.9
 30
0.0
 40
0.799999999999994
 50
64.9914671708372
 51
113.578178478207
  0
ARC
  8
8
  6
CONTINUOUS
 62
8
 10
63.033855924867
 20
50.3225835782401
 30
0.0
 40
4.12262573624051
 50
243.753678617697
 51
270.259114100487
  0
LINE
  8
8
  6
CONTINUOUS
 62
8
 10
63.0525
 20
46.2
 30
0.0
 11
65.5525
 21
46.2
 31
0.0
  0
ARC
  8
8
  6
CONTINUOUS
 62
8
 10
65.5525
 20
42.7
 30
0.0
 40
3.5
 50
359.999999999999
 51
89.9999999999998
  0
LINE
  8
8
  6
CONTINUOUS
 62
8
 10
69.0525
 20
42.7
 30
0.0
 11
69.0525
 21
34.7
 31
0.0
  0
ARC
  8
8
  6
CONTINUOUS
 62
8
 10
65.5525000000474
 20
34.6999999999526
 30
0.0
 40
3.49999999995256
 50
314.999999999999
 51
7.76412409236259E-10
  0
ARC
  8
8
  6
CONTINUOUS
 62
8
 10
69.4625
 20
31.5
 30
0.0
 40
0.140000000000001
 50
90
 51
270
  0
LINE
  8
8
  6
CONTINUOUS
 62
8
 10
69.4625
 20
31.36
 30
0.0
 11
69.5125
 21
31.36
 31
0.0
  0
ARC
  8
8
  6
CONTINUOUS
 62
8
 10
69.5125
 20
31.5
 30
0.0
 40
0.140000000000001
 50
270
 51
90
  0
LINE
  8
8
  6
CONTINUOUS
 62
8
 10
69.5125
 20
31.64
 30
0.0
 11
69.4625
 21
31.64
 31
0.0
  0
ARC
  8
8
  6
CONTINUOUS
 62
8
 10
69.4624999999998
 20
35
 30
0.0
 40
0.140000000000001
 50
89.9999999999992
 51
269.999999999999
  0
LINE
  8
8
  6
CONTINUOUS
 62
8
 10
69.4625
 20
34.86
 30
0.0
 11
69.5125
 21
34.86
 31
0.0
  0
ARC
  8
8
  6
CONTINUOUS
 62
8
 10
69.5125
 20
35
 30
0.0
 40
0.140000000000001
 50
270
 51
90
  0
LINE
  8
8
  6
CONTINUOUS
 62
8
 10
69.5125
 20
35.14
 30
0.0
 11
69.4624999999998
 21
35.14
 31
0.0
  0
ARC
  8
8
  6
CONTINUOUS
 62
8
 10
69.4624999999998
 20
38.7
 30
0.0
 40
0.140000000000001
 50
89.9999999999992
 51
269.999999999999
  0
LINE
  8
8
  6
CONTINUOUS
 62
8
 10
69.4625
 20
38.56
 30
0.0
 11
69.5125
 21
38.56
 31
0.0
  0
ARC
  8
8
  6
CONTINUOUS
 62
8
 10
69.5125
 20
38.7
 30
0.0
 40
0.140000000000001
 50
270
 51
90
  0
LINE
  8
8
  6
CONTINUOUS
 62
8
 10
69.5125
 20
38.84
 30
0.0
 11
69.4624999999998
 21
38.84
 31
0.0
  0
ARC
  8
8
  6
CONTINUOUS
 62
8
 10
69.4625
 20
42.4
 30
0.0
 40
0.140000000000001
 50
90
 51
270
  0
LINE
  8
8
  6
CONTINUOUS
 62
8
 10
69.4625
 20
42.26
 30
0.0
 11
69.5125
 21
42.26
 31
0.0
  0
ARC
  8
8
  6
CONTINUOUS
 62
8
 10
69.5125
 20
42.4
 30
0.0
 40
0.140000000000001
 50
270
 51
90
  0
LINE
  8
8
  6
CONTINUOUS
 62
8
 10
69.5125
 20
42.54
 30
0.0
 11
69.4625
 21
42.54
 31
0.0
  0
ARC
  8
8
  6
CONTINUOUS
 62
8
 10
69.5125
 20
45.9
 30
0.0
 40
0.140000000000001
 50
270
 51
90
  0
LINE
  8
8
  6
CONTINUOUS
 62
8
 10
69.5125
 20
46.04
 30
0.0
 11
69.4625
 21
46.04
 31
0.0
  0
ARC
  8
8
  6
CONTINUOUS
 62
8
 10
69.4625
 20
45.9
 30
0.0
 40
0.140000000000001
 50
90
 51
270
  0
LINE
  8
8
  6
CONTINUOUS
 62
8
 10
69.4625
 20
45.76
 30
0.0
 11
69.5125
 21
45.76
 31
0.0
  0
ARC
  8
8
  6
CONTINUOUS
 62
8
 10
74.1425
 20
42.7
 30
0.0
 40
3.49999999999994
 50
360
 51
45.0000000000004
  0
LINE
  8
8
  6
CONTINUOUS
 62
8
 10
77.6425
 20
42.7
 30
0.0
 11
77.6425
 21
34.7
 31
0.0
  0
ARC
  8
8
  6
CONTINUOUS
 62
8
 10
74.1425000000474
 20
34.6999999999526
 30
0.0
 40
3.49999999995258
 50
269.999999999224
 51
7.76514186986066E-10
  0
LINE
  8
8
  6
CONTINUOUS
 62
8
 10
74.1425
 20
31.2
 30
0.0
 11
71.6425
 21
31.2
 31
0.0
  0
ARC
  8
8
  6
CONTINUOUS
 62
8
 10
71.6331779624334
 20
27.03699524845
 30
0.0
 40
4.16301518875589
 50
89.8717002386079
 51
116.116994773477
  0
ARC
  8
8
  6
CONTINUOUS
 62
8
 10
69.4625
 20
31.5
 30
0.0
 40
0.799999999999998
 50
246.421821521794
 51
295.000086326116
  0
LINE
  8
8
  6
CONTINUOUS
 62
8
 10
69.1425
 20
30.7667878888071
 30
0.0
 11
69.1425
 21
46.6332121111929
 31
0.0
  0
ARC
  8
8
  6
CONTINUOUS
 62
8
 10
69.4625
 20
45.9
 30
0.0
 40
0.800000000000012
 50
64.9914671708372
 51
113.578178478207
  0
ARC
  8
8
  6
CONTINUOUS
 62
8
 10
71.623855924867
 20
50.3225835782401
 30
0.0
 40
4.12262573624048
 50
243.753678617697
 51
270.259114100487
  0
LINE
  8
8
  6
CONTINUOUS
 62
8
 10
71.6425
 20
46.2
 30
0.0
 11
74.1425
 21
46.2
 31
0.0
  0
ARC
  8
8
  6
CONTINUOUS
 62
8
 10
74.1424999999999
 20
42.7
 30
0.0
 40
3.50000000000003
 50
44.9999999999995
 51
89.999999999999
  0
LINE
  8
8
  6
CONTINUOUS
 62
8
 10
69.1425
 20
0.366787888807085
 30
0.0
 11
69.1425
 21
16.2332121111929
 31
0.0
  0
ARC
  8
8
  6
CONTINUOUS
 62
8
 10
78.1025
 20
15.5
 30
0.0
 40
0.140000000000001
 50
270
 51
90
  0
LINE
  8
8
  6
CONTINUOUS
 62
8
 10
78.1025
 20
15.64
 30
0.0
 11
78.0525
 21
15.64
 31
0.0
  0
ARC
  8
8
  6
CONTINUOUS
 62
8
 10
78.0525
 20
15.5
 30
0.0
 40
0.140000000000001
 50
90
 51
270
  0
LINE
  8
8
  6
CONTINUOUS
 62
8
 10
78.0525
 20
15.36
 30
0.0
 11
78.1025
 21
15.36
 31
0.0
  0
ARC
  8
8
  6
CONTINUOUS
 62
8
 10
78.1025
 20
12
 30
0.0
 40
0.140000000000001
 50
270
 51
90
  0
LINE
  8
8
  6
CONTINUOUS
 62
8
 10
78.1025
 20
12.14
 30
0.0
 11
78.0525
 21
12.14
 31
0.0
  0
ARC
  8
8
  6
CONTINUOUS
 62
8
 10
78.0525
 20
12
 30
0.0
 40
0.140000000000001
 50
90
 51
270
  0
LINE
  8
8
  6
CONTINUOUS
 62
8
 10
78.0525
 20
11.86
 30
0.0
 11
78.1025
 21
11.86
 31
0.0
  0
ARC
  8
8
  6
CONTINUOUS
 62
8
 10
78.1025
 20
8.29999999999999
 30
0.0
 40
0.140000000000005
 50
270
 51
90
  0
LINE
  8
8
  6
CONTINUOUS
 62
8
 10
78.1025
 20
8.43999999999999
 30
0.0
 11
78.0524999999998
 21
8.43999999999999
 31
0.0
  0
ARC
  8
8
  6
CONTINUOUS
 62
8
 10
78.0524999999998
 20
8.29999999999999
 30
0.0
 40
0.140000000000005
 50
89.9999999999992
 51
269.999999999999
  0
LINE
  8
8
  6
CONTINUOUS
 62
8
 10
78.0525
 20
8.15999999999998
 30
0.0
 11
78.1025
 21
8.15999999999998
 31
0.0
  0
ARC
  8
8
  6
CONTINUOUS
 62
8
 10
78.1025
 20
4.59999999999998
 30
0.0
 40
0.14
 50
270
 51
90
  0
LINE
  8
8
  6
CONTINUOUS
 62
8
 10
78.1025
 20
4.73999999999998
 30
0.0
 11
78.0524999999998
 21
4.73999999999998
 31
0.0
  0
ARC
  8
8
  6
CONTINUOUS
 62
8
 10
78.0524999999998
 20
4.59999999999998
 30
0.0
 40
0.14
 50
89.9999999999992
 51
269.999999999999
  0
LINE
  8
8
  6
CONTINUOUS
 62
8
 10
78.0525
 20
4.45999999999998
 30
0.0
 11
78.1025
 21
4.45999999999998
 31
0.0
  0
ARC
  8
8
  6
CONTINUOUS
 62
8
 10
78.1025
 20
1.09999999999998
 30
0.0
 40
0.139999999999997
 50
270
 51
90
  0
LINE
  8
8
  6
CONTINUOUS
 62
8
 10
78.1025
 20
1.23999999999998
 30
0.0
 11
78.0525
 21
1.23999999999998
 31
0.0
  0
ARC
  8
8
  6
CONTINUOUS
 62
8
 10
78.0525
 20
1.09999999999998
 30
0.0
 40
0.139999999999997
 50
90
 51
270
  0
LINE
  8
8
  6
CONTINUOUS
 62
8
 10
78.0525
 20
0.959999999999987
 30
0.0
 11
78.1025
 21
0.959999999999987
 31
0.0
  0
ARC
  8
8
  6
CONTINUOUS
 62
8
 10
82.7325000000475
 20
4.29999999995256
 30
0.0
 40
3.49999999995257
 50
269.999999999223
 51
314.999999999999
  0
LINE
  8
8
  6
CONTINUOUS
 62
8
 10
82.7325
 20
0.799999999999984
 30
0.0
 11
80.2325
 21
0.799999999999984
 31
0.0
  0
ARC
  8
8
  6
CONTINUOUS
 62
8
 10
80.2231779624334
 20
-3.36300475155004
 30
0.0
 40
4.16301518875592
 50
89.8717002386077
 51
116.116994773477
  0
ARC
  8
8
  6
CONTINUOUS
 62
8
 10
78.0525
 20
1.09999999999998
 30
0.0
 40
0.799999999999981
 50
246.421821521795
 51
295.000086326116
  0
LINE
  8
8
  6
CONTINUOUS
 62
8
 10
77.7325
 20
0.366787888807085
 30
0.0
 11
77.7325
 21
16.2332121111929
 31
0.0
  0
ARC
  8
8
  6
CONTINUOUS
 62
8
 10
78.0525000000001
 20
15.5
 30
0.0
 40
0.799999999999994
 50
64.9914671708372
 51
113.578178478207
  0
ARC
  8
8
  6
CONTINUOUS
 62
8
 10
80.213855924867
 20
19.9225835782401
 30
0.0
 40
4.12262573624051
 50
243.753678617697
 51
270.259114100487
  0
LINE
  8
8
  6
CONTINUOUS
 62
8
 10
80.2325
 20
15.8
 30
0.0
 11
82.7325
 21
15.8
 31
0.0
  0
ARC
  8
8
  6
CONTINUOUS
 62
8
 10
82.7325
 20
12.3
 30
0.0
 40
3.5
 50
359.999999999999
 51
89.9999999999998
  0
LINE
  8
8
  6
CONTINUOUS
 62
8
 10
86.2325
 20
12.3
 30
0.0
 11
86.2325
 21
4.29999999999998
 31
0.0
  0
ARC
  8
8
  6
CONTINUOUS
 62
8
 10
82.7325000000474
 20
4.29999999995255
 30
0.0
 40
3.49999999995258
 50
315
 51
7.7687040911039E-10
  0
ARC
  8
8
  6
CONTINUOUS
 62
8
 10
86.6425
 20
1.09999999999998
 30
0.0
 40
0.139999999999997
 50
90
 51
270
  0
LINE
  8
8
  6
CONTINUOUS
 62
8
 10
86.6425
 20
0.959999999999987
 30
0.0
 11
86.6925
 21
0.959999999999987
 31
0.0
  0
ARC
  8
8
  6
CONTINUOUS
 62
8
 10
86.6925
 20
1.09999999999998
 30
0.0
 40
0.139999999999997
 50
270
 51
90
  0
LINE
  8
8
  6
CONTINUOUS
 62
8
 10
86.6925
 20
1.23999999999998
 30
0.0
 11
86.6425
 21
1.23999999999998
 31
0.0
  0
ARC
  8
8
  6
CONTINUOUS
 62
8
 10
86.6424999999998
 20
4.59999999999998
 30
0.0
 40
0.14
 50
89.9999999999992
 51
269.999999999999
  0
LINE
  8
8
  6
CONTINUOUS
 62
8
 10
86.6425
 20
4.45999999999998
 30
0.0
 11
86.6925
 21
4.45999999999998
 31
0.0
  0
ARC
  8
8
  6
CONTINUOUS
 62
8
 10
86.6925
 20
4.59999999999998
 30
0.0
 40
0.14
 50
270
 51
90
  0
LINE
  8
8
  6
CONTINUOUS
 62
8
 10
86.6925
 20
4.73999999999998
 30
0.0
 11
86.6424999999998
 21
4.73999999999998
 31
0.0
  0
ARC
  8
8
  6
CONTINUOUS
 62
8
 10
86.6424999999998
 20
8.29999999999999
 30
0.0
 40
0.140000000000005
 50
89.9999999999992
 51
269.999999999999
  0
LINE
  8
8
  6
CONTINUOUS
 62
8
 10
86.6425
 20
8.15999999999998
 30
0.0
 11
86.6925
 21
8.15999999999998
 31
0.0
  0
ARC
  8
8
  6
CONTINUOUS
 62
8
 10
86.6925
 20
8.29999999999999
 30
0.0
 40
0.140000000000005
 50
270
 51
90
  0
LINE
  8
8
  6
CONTINUOUS
 62
8
 10
86.6925
 20
8.43999999999999
 30
0.0
 11
86.6424999999998
 21
8.43999999999999
 31
0.0
  0
ARC
  8
8
  6
CONTINUOUS
 62
8
 10
86.6425
 20
12
 30
0.0
 40
0.140000000000001
 50
90
 51
270
  0
LINE
  8
8
  6
CONTINUOUS
 62
8
 10
86.6425
 20
11.86
 30
0.0
 11
86.6925
 21
11.86
 31
0.0
  0
ARC
  8
8
  6
CONTINUOUS
 62
8
 10
86.6925
 20
12
 30
0.0
 40
0.140000000000001
 50
270
 51
90
  0
LINE
  8
8
  6
CONTINUOUS
 62
8
 10
86.6925
 20
12.14
 30
0.0
 11
86.6425
 21
12.14
 31
0.0
  0
ARC
  8
8
  6
CONTINUOUS
 62
8
 10
86.6925
 20
15.5
 30
0.0
 40
0.139999999999993
 50
359.999999999997
 51
89.9999999999969
  0
LINE
  8
8
  6
CONTINUOUS
 62
8
 10
86.6925
 20
15.64
 30
0.0
 11
86.6425
 21
15.64
 31
0.0
  0
ARC
  8
8
  6
CONTINUOUS
 62
8
 10
86.6425
 20
15.5
 30
0.0
 40
0.140000000000001
 50
90
 51
270
  0
LINE
  8
8
  6
CONTINUOUS
 62
8
 10
86.6425
 20
15.36
 30
0.0
 11
86.6925
 21
15.36
 31
0.0
  0
ARC
  8
8
  6
CONTINUOUS
 62
8
 10
86.6925
 20
15.5
 30
0.0
 40
0.139999999999993
 50
270.000000000002
 51
2.90066586949473E-12
  0
ARC
  8
8
  6
CONTINUOUS
 62
8
 10
91.3225
 20
12.3
 30
0.0
 40
3.49999999999996
 50
1.53511459547513E-13
 51
45.0000000000006
  0
LINE
  8
8
  6
CONTINUOUS
 62
8
 10
94.8225
 20
12.3
 30
0.0
 11
94.8225
 21
4.29999999999998
 31
0.0
  0
ARC
  8
8
  6
CONTINUOUS
 62
8
 10
91.3225000000474
 20
4.29999999995257
 30
0.0
 40
3.49999999995258
 50
269.999999999223
 51
7.76463298111163E-10
  0
LINE
  8
8
  6
CONTINUOUS
 62
8
 10
91.3225
 20
0.799999999999984
 30
0.0
 11
88.8225
 21
0.799999999999984
 31
0.0
  0
ARC
  8
8
  6
CONTINUOUS
 62
8
 10
88.8131779624334
 20
-3.36300475155004
 30
0.0
 40
4.16301518875592
 50
89.8717002386077
 51
116.116994773477
  0
ARC
  8
8
  6
CONTINUOUS
 62
8
 10
86.6425
 20
1.09999999999998
 30
0.0
 40
0.799999999999981
 50
246.421821521795
 51
295.000086326116
  0
ARC
  8
8
  6
CONTINUOUS
 62
8
 10
86.6425000000001
 20
15.5
 30
0.0
 40
0.799999999999994
 50
64.9914671708372
 51
113.578178478207
  0
ARC
  8
8
  6
CONTINUOUS
 62
8
 10
88.803855924867
 20
19.9225835782401
 30
0.0
 40
4.12262573624051
 50
243.753678617697
 51
270.259114100487
  0
LINE
  8
8
  6
CONTINUOUS
 62
8
 10
88.8225
 20
15.8
 30
0.0
 11
91.3225
 21
15.8
 31
0.0
  0
ARC
  8
8
  6
CONTINUOUS
 62
8
 10
91.3224999999999
 20
12.3
 30
0.0
 40
3.50000000000001
 50
44.9999999999995
 51
89.999999999999
  0
ARC
  8
8
  6
CONTINUOUS
 62
8
 10
94.4525
 20
16.3
 30
0.0
 40
0.140000000000001
 50
179.999999999999
 51
269.999999999999
  0
LINE
  8
8
  6
CONTINUOUS
 62
8
 10
94.4525
 20
16.16
 30
0.0
 11
94.5025
 21
16.16
 31
0.0
  0
ARC
  8
8
  6
CONTINUOUS
 62
8
 10
94.5025
 20
16.3
 30
0.0
 40
0.140000000000001
 50
270
 51
90
  0
LINE
  8
8
  6
CONTINUOUS
 62
8
 10
94.5025
 20
16.44
 30
0.0
 11
94.4525
 21
16.44
 31
0.0
  0
ARC
  8
8
  6
CONTINUOUS
 62
8
 10
94.4525
 20
16.3
 30
0.0
 40
0.140000000000001
 50
89.9999999999998
 51
180
  0
ARC
  8
8
  6
CONTINUOUS
 62
8
 10
94.5025
 20
19.8
 30
0.0
 40
0.140000000000001
 50
270
 51
90
  0
LINE
  8
8
  6
CONTINUOUS
 62
8
 10
94.5025
 20
19.94
 30
0.0
 11
94.4525
 21
19.94
 31
0.0
  0
ARC
  8
8
  6
CONTINUOUS
 62
8
 10
94.4525
 20
19.8
 30
0.0
 40
0.140000000000001
 50
90
 51
270
  0
LINE
  8
8
  6
CONTINUOUS
 62
8
 10
94.4525
 20
19.66
 30
0.0
 11
94.5025
 21
19.66
 31
0.0
  0
ARC
  8
8
  6
CONTINUOUS
 62
8
 10
94.5025000000002
 20
23.5
 30
0.0
 40
0.140000000000001
 50
269.999999999999
 51
89.9999999999996
  0
LINE
  8
8
  6
CONTINUOUS
 62
8
 10
94.5025
 20
23.64
 30
0.0
 11
94.4525
 21
23.64
 31
0.0
  0
ARC
  8
8
  6
CONTINUOUS
 62
8
 10
94.4525
 20
23.5
 30
0.0
 40
0.140000000000001
 50
90
 51
270
  0
LINE
  8
8
  6
CONTINUOUS
 62
8
 10
94.4525
 20
23.36
 30
0.0
 11
94.5025000000002
 21
23.36
 31
0.0
  0
ARC
  8
8
  6
CONTINUOUS
 62
8
 10
94.5025000000002
 20
27.2
 30
0.0
 40
0.140000000000001
 50
269.999999999999
 51
89.9999999999996
  0
LINE
  8
8
  6
CONTINUOUS
 62
8
 10
94.5025
 20
27.34
 30
0.0
 11
94.4525
 21
27.34
 31
0.0
  0
ARC
  8
8
  6
CONTINUOUS
 62
8
 10
94.4525
 20
27.2
 30
0.0
 40
0.140000000000001
 50
90
 51
270
  0
LINE
  8
8
  6
CONTINUOUS
 62
8
 10
94.4525
 20
27.06
 30
0.0
 11
94.5025000000002
 21
27.06
 31
0.0
  0
ARC
  8
8
  6
CONTINUOUS
 62
8
 10
94.5025
 20
30.7
 30
0.0
 40
0.140000000000001
 50
270
 51
90
  0
LINE
  8
8
  6
CONTINUOUS
 62
8
 10
94.5025
 20
30.84
 30
0.0
 11
94.4525
 21
30.84
 31
0.0
  0
ARC
  8
8
  6
CONTINUOUS
 62
8
 10
94.4525
 20
30.7
 30
0.0
 40
0.140000000000001
 50
90
 51
270
  0
LINE
  8
8
  6
CONTINUOUS
 62
8
 10
94.4525
 20
30.56
 30
0.0
 11
94.5025
 21
30.56
 31
0.0
  0
ARC
  8
8
  6
CONTINUOUS
 62
8
 10
89.8224999999526
 20
27.5000000000474
 30
0.0
 40
3.49999999995259
 50
89.9999999992236
 51
135
  0
LINE
  8
8
  6
CONTINUOUS
 62
8
 10
89.8225
 20
31
 30
0.0
 11
92.3225
 21
31
 31
0.0
  0
ARC
  8
8
  6
CONTINUOUS
 62
8
 10
92.3318220375666
 20
35.16300475155
 30
0.0
 40
4.16301518875592
 50
269.871700238607
 51
296.116994773477
  0
ARC
  8
8
  6
CONTINUOUS
 62
8
 10
94.5025
 20
30.7
 30
0.0
 40
0.799999999999981
 50
66.4218215217947
 51
115.000086326116
  0
LINE
  8
8
  6
CONTINUOUS
 62
8
 10
94.8225
 20
31.4332121111929
 30
0.0
 11
94.8225
 21
15.5667878888071
 31
0.0
  0
ARC
  8
8
  6
CONTINUOUS
 62
8
 10
94.5024999999999
 20
16.3
 30
0.0
 40
0.800000000000012
 50
244.991467170837
 51
293.578178478207
  0
ARC
  8
8
  6
CONTINUOUS
 62
8
 10
92.341144075133
 20
11.8774164217599
 30
0.0
 40
4.12262573624048
 50
63.7536786176974
 51
90.2591141004871
  0
LINE
  8
8
  6
CONTINUOUS
 62
8
 10
92.3225
 20
16
 30
0.0
 11
89.8225
 21
16
 31
0.0
  0
ARC
  8
8
  6
CONTINUOUS
 62
8
 10
89.8225
 20
19.5
 30
0.0
 40
3.50000000000001
 50
180
 51
270
  0
LINE
  8
8
  6
CONTINUOUS
 62
8
 10
86.3225
 20
19.5
 30
0.0
 11
86.3225
 21
27.5
 31
0.0
  0
ARC
  8
8
  6
CONTINUOUS
 62
8
 10
89.8224999999526
 20
27.5000000000474
 30
0.0
 40
3.49999999995257
 50
135
 51
180.000000000776
  0
ARC
  8
8
  6
CONTINUOUS
 62
8
 10
85.8625
 20
30.7
 30
0.0
 40
0.140000000000001
 50
90
 51
270
  0
LINE
  8
8
  6
CONTINUOUS
 62
8
 10
85.8625
 20
30.56
 30
0.0
 11
85.9125
 21
30.56
 31
0.0
  0
ARC
  8
8
  6
CONTINUOUS
 62
8
 10
85.9125
 20
30.7
 30
0.0
 40
0.140000000000001
 50
270
 51
90
  0
LINE
  8
8
  6
CONTINUOUS
 62
8
 10
85.9125
 20
30.84
 30
0.0
 11
85.8625
 21
30.84
 31
0.0
  0
ARC
  8
8
  6
CONTINUOUS
 62
8
 10
85.8625
 20
27.2
 30
0.0
 40
0.140000000000001
 50
90
 51
270
  0
LINE
  8
8
  6
CONTINUOUS
 62
8
 10
85.8625
 20
27.06
 30
0.0
 11
85.9125000000002
 21
27.06
 31
0.0
  0
ARC
  8
8
  6
CONTINUOUS
 62
8
 10
85.9125000000002
 20
27.2
 30
0.0
 40
0.140000000000001
 50
269.999999999999
 51
89.9999999999996
  0
LINE
  8
8
  6
CONTINUOUS
 62
8
 10
85.9125
 20
27.34
 30
0.0
 11
85.8625
 21
27.34
 31
0.0
  0
ARC
  8
8
  6
CONTINUOUS
 62
8
 10
85.8625
 20
23.5
 30
0.0
 40
0.140000000000001
 50
90
 51
270
  0
LINE
  8
8
  6
CONTINUOUS
 62
8
 10
85.8625
 20
23.36
 30
0.0
 11
85.9125000000002
 21
23.36
 31
0.0
  0
ARC
  8
8
  6
CONTINUOUS
 62
8
 10
85.9125000000002
 20
23.5
 30
0.0
 40
0.140000000000001
 50
269.999999999999
 51
89.9999999999996
  0
LINE
  8
8
  6
CONTINUOUS
 62
8
 10
85.9125
 20
23.64
 30
0.0
 11
85.8625
 21
23.64
 31
0.0
  0
ARC
  8
8
  6
CONTINUOUS
 62
8
 10
85.8625
 20
19.8
 30
0.0
 40
0.140000000000001
 50
90
 51
270
  0
LINE
  8
8
  6
CONTINUOUS
 62
8
 10
85.8625
 20
19.66
 30
0.0
 11
85.9125
 21
19.66
 31
0.0
  0
ARC
  8
8
  6
CONTINUOUS
 62
8
 10
85.9125
 20
19.8
 30
0.0
 40
0.140000000000001
 50
270
 51
90
  0
LINE
  8
8
  6
CONTINUOUS
 62
8
 10
85.9125
 20
19.94
 30
0.0
 11
85.8625
 21
19.94
 31
0.0
  0
ARC
  8
8
  6
CONTINUOUS
 62
8
 10
85.8625
 20
16.3
 30
0.0
 40
0.140000000000001
 50
90
 51
270
  0
LINE
  8
8
  6
CONTINUOUS
 62
8
 10
85.8625
 20
16.16
 30
0.0
 11
85.9125
 21
16.16
 31
0.0
  0
ARC
  8
8
  6
CONTINUOUS
 62
8
 10
85.9125
 20
16.3
 30
0.0
 40
0.140000000000001
 50
270
 51
90
  0
LINE
  8
8
  6
CONTINUOUS
 62
8
 10
85.9125
 20
16.44
 30
0.0
 11
85.8625
 21
16.44
 31
0.0
  0
ARC
  8
8
  6
CONTINUOUS
 62
8
 10
81.2325
 20
19.5
 30
0.0
 40
3.49999999999999
 50
180
 51
225
  0
LINE
  8
8
  6
CONTINUOUS
 62
8
 10
77.7325
 20
19.5
 30
0.0
 11
77.7325
 21
27.5
 31
0.0
  0
ARC
  8
8
  6
CONTINUOUS
 62
8
 10
81.2324999999763
 20
27.5000000000237
 30
0.0
 40
3.49999999997629
 50
89.9999999996117
 51
180.000000000388
  0
LINE
  8
8
  6
CONTINUOUS
 62
8
 10
81.2325
 20
31
 30
0.0
 11
83.7325
 21
31
 31
0.0
  0
ARC
  8
8
  6
CONTINUOUS
 62
8
 10
83.7418220375666
 20
35.16300475155
 30
0.0
 40
4.16301518875592
 50
269.871700238607
 51
296.116994773477
  0
ARC
  8
8
  6
CONTINUOUS
 62
8
 10
85.9125
 20
30.7
 30
0.0
 40
0.799999999999981
 50
66.4218215217947
 51
115.000086326116
  0
LINE
  8
8
  6
CONTINUOUS
 62
8
 10
86.2325
 20
31.4332121111929
 30
0.0
 11
86.2325
 21
15.5667878888071
 31
0.0
  0
ARC
  8
8
  6
CONTINUOUS
 62
8
 10
85.9124999999999
 20
16.3
 30
0.0
 40
0.799999999999994
 50
244.991467170837
 51
293.578178478207
  0
ARC
  8
8
  6
CONTINUOUS
 62
8
 10
83.751144075133
 20
11.8774164217599
 30
0.0
 40
4.12262573624051
 50
63.7536786176975
 51
90.2591141004872
  0
LINE
  8
8
  6
CONTINUOUS
 62
8
 10
83.7325
 20
16
 30
0.0
 11
81.2325
 21
16
 31
0.0
  0
ARC
  8
8
  6
CONTINUOUS
 62
8
 10
81.2325
 20
19.5
 30
0.0
 40
3.49999999999998
 50
224.999999999999
 51
269.999999999999
  0
ARC
  8
8
  6
CONTINUOUS
 62
8
 10
78.1025
 20
45.9
 30
0.0
 40
0.140000000000001
 50
270
 51
90
  0
LINE
  8
8
  6
CONTINUOUS
 62
8
 10
78.1025
 20
46.04
 30
0.0
 11
78.0525
 21
46.04
 31
0.0
  0
ARC
  8
8
  6
CONTINUOUS
 62
8
 10
78.0525
 20
45.9
 30
0.0
 40
0.140000000000001
 50
90
 51
270
  0
LINE
  8
8
  6
CONTINUOUS
 62
8
 10
78.0525
 20
45.76
 30
0.0
 11
78.1025
 21
45.76
 31
0.0
  0
ARC
  8
8
  6
CONTINUOUS
 62
8
 10
78.1025
 20
42.4
 30
0.0
 40
0.140000000000001
 50
270
 51
90
  0
LINE
  8
8
  6
CONTINUOUS
 62
8
 10
78.1025
 20
42.54
 30
0.0
 11
78.0525
 21
42.54
 31
0.0
  0
ARC
  8
8
  6
CONTINUOUS
 62
8
 10
78.0525
 20
42.4
 30
0.0
 40
0.140000000000001
 50
90
 51
270
  0
LINE
  8
8
  6
CONTINUOUS
 62
8
 10
78.0525
 20
42.26
 30
0.0
 11
78.1025
 21
42.26
 31
0.0
  0
ARC
  8
8
  6
CONTINUOUS
 62
8
 10
78.1025
 20
38.7
 30
0.0
 40
0.140000000000001
 50
270
 51
90
  0
LINE
  8
8
  6
CONTINUOUS
 62
8
 10
78.1025
 20
38.84
 30
0.0
 11
78.0524999999998
 21
38.84
 31
0.0
  0
ARC
  8
8
  6
CONTINUOUS
 62
8
 10
78.0524999999998
 20
38.7
 30
0.0
 40
0.140000000000001
 50
89.9999999999992
 51
269.999999999999
  0
LINE
  8
8
  6
CONTINUOUS
 62
8
 10
78.0525
 20
38.56
 30
0.0
 11
78.1025
 21
38.56
 31
0.0
  0
ARC
  8
8
  6
CONTINUOUS
 62
8
 10
78.1025
 20
35
 30
0.0
 40
0.140000000000001
 50
270
 51
90
  0
LINE
  8
8
  6
CONTINUOUS
 62
8
 10
78.1025
 20
35.14
 30
0.0
 11
78.0524999999998
 21
35.14
 31
0.0
  0
ARC
  8
8
  6
CONTINUOUS
 62
8
 10
78.0524999999998
 20
35
 30
0.0
 40
0.140000000000001
 50
89.9999999999992
 51
269.999999999999
  0
LINE
  8
8
  6
CONTINUOUS
 62
8
 10
78.0525
 20
34.86
 30
0.0
 11
78.1025
 21
34.86
 31
0.0
  0
ARC
  8
8
  6
CONTINUOUS
 62
8
 10
78.1025
 20
31.5
 30
0.0
 40
0.140000000000001
 50
270
 51
90
  0
LINE
  8
8
  6
CONTINUOUS
 62
8
 10
78.1025
 20
31.64
 30
0.0
 11
78.0525
 21
31.64
 31
0.0
  0
ARC
  8
8
  6
CONTINUOUS
 62
8
 10
78.0525
 20
31.5
 30
0.0
 40
0.140000000000001
 50
90
 51
270
  0
LINE
  8
8
  6
CONTINUOUS
 62
8
 10
78.0525
 20
31.36
 30
0.0
 11
78.1025
 21
31.36
 31
0.0
  0
ARC
  8
8
  6
CONTINUOUS
 62
8
 10
82.7325000000474
 20
34.6999999999526
 30
0.0
 40
3.49999999995259
 50
269.999999999224
 51
315
  0
LINE
  8
8
  6
CONTINUOUS
 62
8
 10
82.7325
 20
31.2
 30
0.0
 11
80.2325
 21
31.2
 31
0.0
  0
ARC
  8
8
  6
CONTINUOUS
 62
8
 10
80.2231779624334
 20
27.03699524845
 30
0.0
 40
4.16301518875592
 50
89.8717002386078
 51
116.116994773477
  0
ARC
  8
8
  6
CONTINUOUS
 62
8
 10
78.0525
 20
31.5
 30
0.0
 40
0.799999999999981
 50
246.421821521794
 51
295.000086326116
  0
LINE
  8
8
  6
CONTINUOUS
 62
8
 10
77.7325
 20
30.7667878888071
 30
0.0
 11
77.7325
 21
46.6332121111929
 31
0.0
  0
ARC
  8
8
  6
CONTINUOUS
 62
8
 10
78.0525000000001
 20
45.9
 30
0.0
 40
0.799999999999994
 50
64.9914671708372
 51
113.578178478207
  0
ARC
  8
8
  6
CONTINUOUS
 62
8
 10
80.213855924867
 20
50.3225835782401
 30
0.0
 40
4.12262573624051
 50
243.753678617697
 51
270.259114100487
  0
LINE
  8
8
  6
CONTINUOUS
 62
8
 10
80.2325
 20
46.2
 30
0.0
 11
82.7325
 21
46.2
 31
0.0
  0
ARC
  8
8
  6
CONTINUOUS
 62
8
 10
82.7325
 20
42.7
 30
0.0
 40
3.5
 50
359.999999999999
 51
89.9999999999998
  0
LINE
  8
8
  6
CONTINUOUS
 62
8
 10
86.2325
 20
42.7
 30
0.0
 11
86.2325
 21
34.7
 31
0.0
  0
ARC
  8
8
  6
CONTINUOUS
 62
8
 10
82.7325000000474
 20
34.6999999999526
 30
0.0
 40
3.49999999995255
 50
315
 51
7.76666853610776E-10
  0
ARC
  8
8
  6
CONTINUOUS
 62
8
 10
86.6425
 20
31.5
 30
0.0
 40
0.140000000000001
 50
90
 51
270
  0
LINE
  8
8
  6
CONTINUOUS
 62
8
 10
86.6425
 20
31.36
 30
0.0
 11
86.6925
 21
31.36
 31
0.0
  0
ARC
  8
8
  6
CONTINUOUS
 62
8
 10
86.6925
 20
31.5
 30
0.0
 40
0.140000000000001
 50
270
 51
90
  0
LINE
  8
8
  6
CONTINUOUS
 62
8
 10
86.6925
 20
31.64
 30
0.0
 11
86.6425
 21
31.64
 31
0.0
  0
ARC
  8
8
  6
CONTINUOUS
 62
8
 10
86.6424999999998
 20
35
 30
0.0
 40
0.140000000000001
 50
89.9999999999992
 51
269.999999999999
  0
LINE
  8
8
  6
CONTINUOUS
 62
8
 10
86.6425
 20
34.86
 30
0.0
 11
86.6925
 21
34.86
 31
0.0
  0
ARC
  8
8
  6
CONTINUOUS
 62
8
 10
86.6925
 20
35
 30
0.0
 40
0.140000000000001
 50
270
 51
90
  0
LINE
  8
8
  6
CONTINUOUS
 62
8
 10
86.6925
 20
35.14
 30
0.0
 11
86.6424999999998
 21
35.14
 31
0.0
  0
ARC
  8
8
  6
CONTINUOUS
 62
8
 10
86.6424999999998
 20
38.7
 30
0.0
 40
0.140000000000001
 50
89.9999999999992
 51
269.999999999999
  0
LINE
  8
8
  6
CONTINUOUS
 62
8
 10
86.6425
 20
38.56
 30
0.0
 11
86.6925
 21
38.56
 31
0.0
  0
ARC
  8
8
  6
CONTINUOUS
 62
8
 10
86.6925
 20
38.7
 30
0.0
 40
0.140000000000001
 50
270
 51
90
  0
LINE
  8
8
  6
CONTINUOUS
 62
8
 10
86.6925
 20
38.84
 30
0.0
 11
86.6424999999998
 21
38.84
 31
0.0
  0
ARC
  8
8
  6
CONTINUOUS
 62
8
 10
86.6425
 20
42.4
 30
0.0
 40
0.140000000000001
 50
90
 51
270
  0
LINE
  8
8
  6
CONTINUOUS
 62
8
 10
86.6425
 20
42.26
 30
0.0
 11
86.6925
 21
42.26
 31
0.0
  0
ARC
  8
8
  6
CONTINUOUS
 62
8
 10
86.6925
 20
42.4
 30
0.0
 40
0.140000000000001
 50
270
 51
90
  0
LINE
  8
8
  6
CONTINUOUS
 62
8
 10
86.6925
 20
42.54
 30
0.0
 11
86.6425
 21
42.54
 31
0.0
  0
ARC
  8
8
  6
CONTINUOUS
 62
8
 10
86.6925
 20
45.9
 30
0.0
 40
0.140000000000001
 50
270
 51
90
  0
LINE
  8
8
  6
CONTINUOUS
 62
8
 10
86.6925
 20
46.04
 30
0.0
 11
86.6425
 21
46.04
 31
0.0
  0
ARC
  8
8
  6
CONTINUOUS
 62
8
 10
86.6425
 20
45.9
 30
0.0
 40
0.140000000000001
 50
90
 51
270
  0
LINE
  8
8
  6
CONTINUOUS
 62
8
 10
86.6425
 20
45.76
 30
0.0
 11
86.6925
 21
45.76
 31
0.0
  0
ARC
  8
8
  6
CONTINUOUS
 62
8
 10
91.3225
 20
42.7
 30
0.0
 40
3.49999999999995
 50
2.04400334450929E-13
 51
45.0000000000007
  0
LINE
  8
8
  6
CONTINUOUS
 62
8
 10
94.8225
 20
42.7
 30
0.0
 11
94.8225
 21
34.7
 31
0.0
  0
ARC
  8
8
  6
CONTINUOUS
 62
8
 10
91.3225000000474
 20
34.6999999999526
 30
0.0
 40
3.49999999995258
 50
269.999999999224
 51
7.76514186986066E-10
  0
LINE
  8
8
  6
CONTINUOUS
 62
8
 10
91.3225
 20
31.2
 30
0.0
 11
88.8225
 21
31.2
 31
0.0
  0
ARC
  8
8
  6
CONTINUOUS
 62
8
 10
88.8131779624334
 20
27.03699524845
 30
0.0
 40
4.16301518875592
 50
89.8717002386078
 51
116.116994773477
  0
ARC
  8
8
  6
CONTINUOUS
 62
8
 10
86.6425
 20
31.5
 30
0.0
 40
0.799999999999981
 50
246.421821521794
 51
295.000086326116
  0
LINE
  8
8
  6
CONTINUOUS
 62
8
 10
86.3225
 20
30.7667878888071
 30
0.0
 11
86.3225
 21
46.6332121111929
 31
0.0
  0
ARC
  8
8
  6
CONTINUOUS
 62
8
 10
86.6425000000001
 20
45.9
 30
0.0
 40
0.799999999999994
 50
64.9914671708372
 51
113.578178478207
  0
ARC
  8
8
  6
CONTINUOUS
 62
8
 10
88.803855924867
 20
50.3225835782401
 30
0.0
 40
4.12262573624051
 50
243.753678617697
 51
270.259114100487
  0
LINE
  8
8
  6
CONTINUOUS
 62
8
 10
88.8225
 20
46.2
 30
0.0
 11
91.3225
 21
46.2
 31
0.0
  0
ARC
  8
8
  6
CONTINUOUS
 62
8
 10
91.3224999999999
 20
42.7
 30
0.0
 40
3.50000000000002
 50
44.9999999999994
 51
89.9999999999989
  0
LINE
  8
8
  6
CONTINUOUS
 62
8
 10
86.3225
 20
0.366787888807085
 30
0.0
 11
86.3225
 21
16.2332121111929
 31
0.0
  0
LINE
  8
9
  6
CONTINUOUS
 62
9
 10
0.794641843905809
 20
1.12639441864897
 30
0.0
 11
0.7425
 21
1.23999999999998
 31
0.0
  0
LINE
  8
9
  6
CONTINUOUS
 62
9
 10
0.7425
 20
1.23999999999998
 30
0.0
 11
0.755148915984159
 21
1.19162640261023
 31
0.0
  0
LINE
  8
9
  6
CONTINUOUS
 62
9
 10
0.794641843905747
 20
4.62639441864904
 30
0.0
 11
0.742499999999779
 21
4.73999999999998
 31
0.0
  0
LINE
  8
9
  6
CONTINUOUS
 62
9
 10
0.742499999999779
 20
4.73999999999998
 30
0.0
 11
0.755148915984006
 21
4.69162640261025
 31
0.0
  0
LINE
  8
9
  6
CONTINUOUS
 62
9
 10
0.79464184390575
 20
8.32639441864904
 30
0.0
 11
0.742499999999779
 21
8.43999999999999
 31
0.0
  0
LINE
  8
9
  6
CONTINUOUS
 62
9
 10
0.742499999999779
 20
8.43999999999999
 30
0.0
 11
0.755148915984007
 21
8.39162640261025
 31
0.0
  0
LINE
  8
9
  6
CONTINUOUS
 62
9
 10
0.794641843905812
 20
12.026394418649
 30
0.0
 11
0.7425
 21
12.14
 31
0.0
  0
LINE
  8
9
  6
CONTINUOUS
 62
9
 10
0.7425
 20
12.14
 30
0.0
 11
0.75514891598416
 21
12.0916264026102
 31
0.0
  0
LINE
  8
9
  6
CONTINUOUS
 62
9
 10
0.807975662738532
 20
15.4891055321565
 30
0.0
 11
0.9325
 21
15.5
 31
0.0
  0
LINE
  8
9
  6
CONTINUOUS
 62
9
 10
0.9325
 20
15.5
 30
0.0
 11
0.882690265095413
 21
15.5043577871374
 31
0.0
  0
LINE
  8
9
  6
CONTINUOUS
 62
9
 10
7.93974259643133
 20
14.8924742422693
 30
0.0
 11
7.89737373415293
 21
14.7748737341529
 31
0.0
  0
LINE
  8
9
  6
CONTINUOUS
 62
9
 10
7.89737373415293
 20
14.7748737341529
 30
0.0
 11
7.92223225334701
 21
14.8182563807236
 31
0.0
  0
LINE
  8
9
  6
CONTINUOUS
 62
9
 10
9.33035815609419
 20
15.473605581351
 30
0.0
 11
9.3825
 21
15.36
 31
0.0
  0
LINE
  8
9
  6
CONTINUOUS
 62
9
 10
9.3825
 20
15.36
 30
0.0
 11
9.36985108401584
 21
15.4083735973897
 31
0.0
  0
LINE
  8
9
  6
CONTINUOUS
 62
9
 10
9.33035815609419
 20
11.973605581351
 30
0.0
 11
9.3825
 21
11.86
 31
0.0
  0
LINE
  8
9
  6
CONTINUOUS
 62
9
 10
9.3825
 20
11.86
 30
0.0
 11
9.36985108401584
 21
11.9083735973897
 31
0.0
  0
LINE
  8
9
  6
CONTINUOUS
 62
9
 10
9.33035815609403
 20
8.27360558135092
 30
0.0
 11
9.3825
 21
8.15999999999998
 31
0.0
  0
LINE
  8
9
  6
CONTINUOUS
 62
9
 10
9.3825
 20
8.15999999999998
 30
0.0
 11
9.36985108401577
 21
8.20837359738972
 31
0.0
  0
LINE
  8
9
  6
CONTINUOUS
 62
9
 10
9.33035815609403
 20
4.57360558135093
 30
0.0
 11
9.3825
 21
4.45999999999998
 31
0.0
  0
LINE
  8
9
  6
CONTINUOUS
 62
9
 10
9.3825
 20
4.45999999999998
 30
0.0
 11
9.36985108401577
 21
4.50837359738972
 31
0.0
  0
LINE
  8
9
  6
CONTINUOUS
 62
9
 10
9.39797566273853
 20
1.08910553215653
 30
0.0
 11
9.5225
 21
1.09999999999999
 31
0.0
  0
LINE
  8
9
  6
CONTINUOUS
 62
9
 10
9.5225
 20
1.09999999999999
 30
0.0
 11
9.47269026509541
 21
1.10435778713737
 31
0.0
  0
LINE
  8
9
  6
CONTINUOUS
 62
9
 10
16.6040522313175
 20
1.78028066066772
 30
0.0
 11
16.4873737341668
 21
1.82512626583315
 31
0.0
  0
LINE
  8
9
  6
CONTINUOUS
 62
9
 10
16.4873737341668
 20
1.82512626583315
 30
0.0
 11
16.530221146563
 21
1.79935614260972
 31
0.0
  0
LINE
  8
9
  6
CONTINUOUS
 62
9
 10
17.9746418439058
 20
1.12639441864897
 30
0.0
 11
17.9225
 21
1.23999999999998
 31
0.0
  0
LINE
  8
9
  6
CONTINUOUS
 62
9
 10
17.9225
 20
1.23999999999998
 30
0.0
 11
17.9351489159842
 21
1.19162640261023
 31
0.0
  0
LINE
  8
9
  6
CONTINUOUS
 62
9
 10
17.9746418439057
 20
4.62639441864904
 30
0.0
 11
17.9224999999998
 21
4.73999999999998
 31
0.0
  0
LINE
  8
9
  6
CONTINUOUS
 62
9
 10
17.9224999999998
 20
4.73999999999998
 30
0.0
 11
17.935148915984
 21
4.69162640261025
 31
0.0
  0
LINE
  8
9
  6
CONTINUOUS
 62
9
 10
17.9746418439058
 20
8.32639441864904
 30
0.0
 11
17.9224999999998
 21
8.43999999999999
 31
0.0
  0
LINE
  8
9
  6
CONTINUOUS
 62
9
 10
17.9224999999998
 20
8.43999999999999
 30
0.0
 11
17.935148915984
 21
8.39162640261025
 31
0.0
  0
LINE
  8
9
  6
CONTINUOUS
 62
9
 10
17.9746418439058
 20
12.026394418649
 30
0.0
 11
17.9225
 21
12.14
 31
0.0
  0
LINE
  8
9
  6
CONTINUOUS
 62
9
 10
17.9225
 20
12.14
 30
0.0
 11
17.9351489159842
 21
12.0916264026102
 31
0.0
  0
LINE
  8
9
  6
CONTINUOUS
 62
9
 10
17.9879756627385
 20
15.4891055321565
 30
0.0
 11
18.1125
 21
15.5
 31
0.0
  0
LINE
  8
9
  6
CONTINUOUS
 62
9
 10
18.1125
 20
15.5
 30
0.0
 11
18.0626902650954
 21
15.5043577871374
 31
0.0
  0
LINE
  8
9
  6
CONTINUOUS
 62
9
 10
25.1197425964313
 20
14.8924742422693
 30
0.0
 11
25.0773737341529
 21
14.7748737341529
 31
0.0
  0
LINE
  8
9
  6
CONTINUOUS
 62
9
 10
25.0773737341529
 20
14.7748737341529
 30
0.0
 11
25.102232253347
 21
14.8182563807236
 31
0.0
  0
LINE
  8
9
  6
CONTINUOUS
 62
9
 10
26.5103581560942
 20
15.473605581351
 30
0.0
 11
26.5625
 21
15.36
 31
0.0
  0
LINE
  8
9
  6
CONTINUOUS
 62
9
 10
26.5625
 20
15.36
 30
0.0
 11
26.5498510840158
 21
15.4083735973897
 31
0.0
  0
LINE
  8
9
  6
CONTINUOUS
 62
9
 10
26.5103581560942
 20
11.973605581351
 30
0.0
 11
26.5625
 21
11.86
 31
0.0
  0
LINE
  8
9
  6
CONTINUOUS
 62
9
 10
26.5625
 20
11.86
 30
0.0
 11
26.5498510840158
 21
11.9083735973897
 31
0.0
  0
LINE
  8
9
  6
CONTINUOUS
 62
9
 10
26.510358156094
 20
8.27360558135092
 30
0.0
 11
26.5625
 21
8.15999999999998
 31
0.0
  0
LINE
  8
9
  6
CONTINUOUS
 62
9
 10
26.5625
 20
8.15999999999998
 30
0.0
 11
26.5498510840158
 21
8.20837359738972
 31
0.0
  0
LINE
  8
9
  6
CONTINUOUS
 62
9
 10
26.510358156094
 20
4.57360558135093
 30
0.0
 11
26.5625
 21
4.45999999999998
 31
0.0
  0
LINE
  8
9
  6
CONTINUOUS
 62
9
 10
26.5625
 20
4.45999999999998
 30
0.0
 11
26.5498510840158
 21
4.50837359738972
 31
0.0
  0
LINE
  8
9
  6
CONTINUOUS
 62
9
 10
26.5103581560942
 20
1.073605581351
 30
0.0
 11
26.5625
 21
0.959999999999987
 31
0.0
  0
LINE
  8
9
  6
CONTINUOUS
 62
9
 10
26.5625
 20
0.959999999999987
 30
0.0
 11
26.5498510840158
 21
1.00837359738974
 31
0.0
  0
LINE
  8
9
  6
CONTINUOUS
 62
9
 10
33.7834295186973
 20
1.77869292784198
 30
0.0
 11
33.6673737341668
 21
1.82512626583315
 31
0.0
  0
LINE
  8
9
  6
CONTINUOUS
 62
9
 10
33.6673737341668
 20
1.82512626583315
 30
0.0
 11
33.7098655629118
 21
1.7987739511358
 31
0.0
  0
LINE
  8
9
  6
CONTINUOUS
 62
9
 10
35.1546418439058
 20
1.12639441864897
 30
0.0
 11
35.1025
 21
1.23999999999998
 31
0.0
  0
LINE
  8
9
  6
CONTINUOUS
 62
9
 10
35.1025
 20
1.23999999999998
 30
0.0
 11
35.1151489159842
 21
1.19162640261023
 31
0.0
  0
LINE
  8
9
  6
CONTINUOUS
 62
9
 10
35.1546418439058
 20
4.62639441864904
 30
0.0
 11
35.1024999999998
 21
4.73999999999998
 31
0.0
  0
LINE
  8
9
  6
CONTINUOUS
 62
9
 10
35.1024999999998
 20
4.73999999999998
 30
0.0
 11
35.115148915984
 21
4.69162640261025
 31
0.0
  0
LINE
  8
9
  6
CONTINUOUS
 62
9
 10
35.1546418439058
 20
8.32639441864904
 30
0.0
 11
35.1024999999998
 21
8.43999999999999
 31
0.0
  0
LINE
  8
9
  6
CONTINUOUS
 62
9
 10
35.1024999999998
 20
8.43999999999999
 30
0.0
 11
35.115148915984
 21
8.39162640261025
 31
0.0
  0
LINE
  8
9
  6
CONTINUOUS
 62
9
 10
35.1546418439058
 20
12.026394418649
 30
0.0
 11
35.1025
 21
12.14
 31
0.0
  0
LINE
  8
9
  6
CONTINUOUS
 62
9
 10
35.1025
 20
12.14
 30
0.0
 11
35.1151489159842
 21
12.0916264026102
 31
0.0
  0
LINE
  8
9
  6
CONTINUOUS
 62
9
 10
35.1679756627385
 20
15.4891055321565
 30
0.0
 11
35.2925
 21
15.5
 31
0.0
  0
LINE
  8
9
  6
CONTINUOUS
 62
9
 10
35.2925
 20
15.5
 30
0.0
 11
35.2426902650954
 21
15.5043577871374
 31
0.0
  0
LINE
  8
9
  6
CONTINUOUS
 62
9
 10
42.2997425964313
 20
14.8924742422693
 30
0.0
 11
42.2573737341529
 21
14.7748737341529
 31
0.0
  0
LINE
  8
9
  6
CONTINUOUS
 62
9
 10
42.2573737341529
 20
14.7748737341529
 30
0.0
 11
42.282232253347
 21
14.8182563807236
 31
0.0
  0
LINE
  8
9
  6
CONTINUOUS
 62
9
 10
42.8970243372615
 20
16.3108944678434
 30
0.0
 11
42.7725
 21
16.3
 31
0.0
  0
LINE
  8
9
  6
CONTINUOUS
 62
9
 10
42.7725
 20
16.3
 30
0.0
 11
42.8223097349046
 21
16.2956422128626
 31
0.0
  0
LINE
  8
9
  6
CONTINUOUS
 62
9
 10
42.9103581560942
 20
19.773605581351
 30
0.0
 11
42.9625
 21
19.66
 31
0.0
  0
LINE
  8
9
  6
CONTINUOUS
 62
9
 10
42.9625
 20
19.66
 30
0.0
 11
42.9498510840158
 21
19.7083735973897
 31
0.0
  0
LINE
  8
9
  6
CONTINUOUS
 62
9
 10
42.9103581560942
 20
23.4736055813509
 30
0.0
 11
42.9625000000002
 21
23.36
 31
0.0
  0
LINE
  8
9
  6
CONTINUOUS
 62
9
 10
42.9625000000002
 20
23.36
 30
0.0
 11
42.949851084016
 21
23.4083735973897
 31
0.0
  0
LINE
  8
9
  6
CONTINUOUS
 62
9
 10
42.9103581560943
 20
27.1736055813509
 30
0.0
 11
42.9625000000002
 21
27.06
 31
0.0
  0
LINE
  8
9
  6
CONTINUOUS
 62
9
 10
42.9625000000002
 20
27.06
 30
0.0
 11
42.949851084016
 21
27.1083735973897
 31
0.0
  0
LINE
  8
9
  6
CONTINUOUS
 62
9
 10
42.9103581560942
 20
30.673605581351
 30
0.0
 11
42.9625
 21
30.56
 31
0.0
  0
LINE
  8
9
  6
CONTINUOUS
 62
9
 10
42.9625
 20
30.56
 30
0.0
 11
42.9498510840158
 21
30.6083735973897
 31
0.0
  0
LINE
  8
9
  6
CONTINUOUS
 62
9
 10
35.6882045984392
 20
30.0117988659452
 30
0.0
 11
35.8076262658332
 21
29.9748737341668
 31
0.0
  0
LINE
  8
9
  6
CONTINUOUS
 62
9
 10
35.8076262658332
 20
29.9748737341668
 30
0.0
 11
35.7631481049997
 21
29.9977143385561
 31
0.0
  0
LINE
  8
9
  6
CONTINUOUS
 62
9
 10
34.3746418439058
 20
30.726394418649
 30
0.0
 11
34.3225
 21
30.84
 31
0.0
  0
LINE
  8
9
  6
CONTINUOUS
 62
9
 10
34.3225
 20
30.84
 30
0.0
 11
34.3351489159842
 21
30.7916264026102
 31
0.0
  0
LINE
  8
9
  6
CONTINUOUS
 62
9
 10
34.374641843906
 20
27.2263944186491
 30
0.0
 11
34.3225
 21
27.34
 31
0.0
  0
LINE
  8
9
  6
CONTINUOUS
 62
9
 10
34.3225
 20
27.34
 30
0.0
 11
34.3351489159842
 21
27.2916264026103
 31
0.0
  0
LINE
  8
9
  6
CONTINUOUS
 62
9
 10
34.374641843906
 20
23.526394418649
 30
0.0
 11
34.3225
 21
23.64
 31
0.0
  0
LINE
  8
9
  6
CONTINUOUS
 62
9
 10
34.3225
 20
23.64
 30
0.0
 11
34.3351489159842
 21
23.5916264026103
 31
0.0
  0
LINE
  8
9
  6
CONTINUOUS
 62
9
 10
34.3746418439058
 20
19.826394418649
 30
0.0
 11
34.3225
 21
19.94
 31
0.0
  0
LINE
  8
9
  6
CONTINUOUS
 62
9
 10
34.3225
 20
19.94
 30
0.0
 11
34.3351489159842
 21
19.8916264026102
 31
0.0
  0
LINE
  8
9
  6
CONTINUOUS
 62
9
 10
34.3746418439058
 20
16.326394418649
 30
0.0
 11
34.3225
 21
16.44
 31
0.0
  0
LINE
  8
9
  6
CONTINUOUS
 62
9
 10
34.3225
 20
16.44
 30
0.0
 11
34.3351489159842
 21
16.3916264026102
 31
0.0
  0
LINE
  8
9
  6
CONTINUOUS
 62
9
 10
27.1742330189115
 20
16.9078998775193
 30
0.0
 11
27.2176262658471
 21
17.0251262658471
 31
0.0
  0
LINE
  8
9
  6
CONTINUOUS
 62
9
 10
27.2176262658471
 20
17.0251262658471
 30
0.0
 11
27.1923902039598
 21
16.9819621467153
 31
0.0
  0
LINE
  8
9
  6
CONTINUOUS
 62
9
 10
25.7170243372615
 20
16.3108944678434
 30
0.0
 11
25.5925
 21
16.3
 31
0.0
  0
LINE
  8
9
  6
CONTINUOUS
 62
9
 10
25.5925
 20
16.3
 30
0.0
 11
25.6423097349046
 21
16.2956422128626
 31
0.0
  0
LINE
  8
9
  6
CONTINUOUS
 62
9
 10
25.7303581560942
 20
19.773605581351
 30
0.0
 11
25.7825
 21
19.66
 31
0.0
  0
LINE
  8
9
  6
CONTINUOUS
 62
9
 10
25.7825
 20
19.66
 30
0.0
 11
25.7698510840158
 21
19.7083735973897
 31
0.0
  0
LINE
  8
9
  6
CONTINUOUS
 62
9
 10
25.7303581560943
 20
23.4736055813509
 30
0.0
 11
25.7825000000002
 21
23.36
 31
0.0
  0
LINE
  8
9
  6
CONTINUOUS
 62
9
 10
25.7825000000002
 20
23.36
 30
0.0
 11
25.769851084016
 21
23.4083735973897
 31
0.0
  0
LINE
  8
9
  6
CONTINUOUS
 62
9
 10
25.7303581560943
 20
27.1736055813509
 30
0.0
 11
25.7825000000002
 21
27.06
 31
0.0
  0
LINE
  8
9
  6
CONTINUOUS
 62
9
 10
25.7825000000002
 20
27.06
 30
0.0
 11
25.769851084016
 21
27.1083735973897
 31
0.0
  0
LINE
  8
9
  6
CONTINUOUS
 62
9
 10
25.7303581560942
 20
30.673605581351
 30
0.0
 11
25.7825
 21
30.56
 31
0.0
  0
LINE
  8
9
  6
CONTINUOUS
 62
9
 10
25.7825
 20
30.56
 30
0.0
 11
25.7698510840158
 21
30.6083735973897
 31
0.0
  0
LINE
  8
9
  6
CONTINUOUS
 62
9
 10
18.5082045984392
 20
30.0117988659452
 30
0.0
 11
18.6276262658332
 21
29.9748737341668
 31
0.0
  0
LINE
  8
9
  6
CONTINUOUS
 62
9
 10
18.6276262658332
 20
29.9748737341668
 30
0.0
 11
18.5831481049997
 21
29.9977143385561
 31
0.0
  0
LINE
  8
9
  6
CONTINUOUS
 62
9
 10
17.1270243372615
 20
30.7108944678434
 30
0.0
 11
17.0025
 21
30.7
 31
0.0
  0
LINE
  8
9
  6
CONTINUOUS
 62
9
 10
17.0025
 20
30.7
 30
0.0
 11
17.0523097349046
 21
30.6956422128626
 31
0.0
  0
LINE
  8
9
  6
CONTINUOUS
 62
9
 10
17.194641843906
 20
27.2263944186491
 30
0.0
 11
17.1425
 21
27.34
 31
0.0
  0
LINE
  8
9
  6
CONTINUOUS
 62
9
 10
17.1425
 20
27.34
 30
0.0
 11
17.1551489159842
 21
27.2916264026103
 31
0.0
  0
LINE
  8
9
  6
CONTINUOUS
 62
9
 10
17.194641843906
 20
23.526394418649
 30
0.0
 11
17.1425
 21
23.64
 31
0.0
  0
LINE
  8
9
  6
CONTINUOUS
 62
9
 10
17.1425
 20
23.64
 30
0.0
 11
17.1551489159842
 21
23.5916264026103
 31
0.0
  0
LINE
  8
9
  6
CONTINUOUS
 62
9
 10
17.1946418439058
 20
19.826394418649
 30
0.0
 11
17.1425
 21
19.94
 31
0.0
  0
LINE
  8
9
  6
CONTINUOUS
 62
9
 10
17.1425
 20
19.94
 30
0.0
 11
17.1551489159842
 21
19.8916264026102
 31
0.0
  0
LINE
  8
9
  6
CONTINUOUS
 62
9
 10
17.1946418439058
 20
16.326394418649
 30
0.0
 11
17.1425
 21
16.44
 31
0.0
  0
LINE
  8
9
  6
CONTINUOUS
 62
9
 10
17.1425
 20
16.44
 30
0.0
 11
17.1551489159842
 21
16.3916264026102
 31
0.0
  0
LINE
  8
9
  6
CONTINUOUS
 62
9
 10
9.99423301891147
 20
16.9078998775193
 30
0.0
 11
10.0376262658471
 21
17.0251262658471
 31
0.0
  0
LINE
  8
9
  6
CONTINUOUS
 62
9
 10
10.0376262658471
 20
17.0251262658471
 30
0.0
 11
10.0123902039598
 21
16.9819621467153
 31
0.0
  0
LINE
  8
9
  6
CONTINUOUS
 62
9
 10
8.53702433726147
 20
16.3108944678434
 30
0.0
 11
8.4125
 21
16.3
 31
0.0
  0
LINE
  8
9
  6
CONTINUOUS
 62
9
 10
8.4125
 20
16.3
 30
0.0
 11
8.46230973490459
 21
16.2956422128626
 31
0.0
  0
LINE
  8
9
  6
CONTINUOUS
 62
9
 10
8.55035815609419
 20
19.773605581351
 30
0.0
 11
8.60250000000001
 21
19.66
 31
0.0
  0
LINE
  8
9
  6
CONTINUOUS
 62
9
 10
8.60250000000001
 20
19.66
 30
0.0
 11
8.58985108401584
 21
19.7083735973897
 31
0.0
  0
LINE
  8
9
  6
CONTINUOUS
 62
9
 10
8.55035815609425
 20
23.4736055813509
 30
0.0
 11
8.60250000000022
 21
23.36
 31
0.0
  0
LINE
  8
9
  6
CONTINUOUS
 62
9
 10
8.60250000000022
 20
23.36
 30
0.0
 11
8.58985108401599
 21
23.4083735973897
 31
0.0
  0
LINE
  8
9
  6
CONTINUOUS
 62
9
 10
8.55035815609426
 20
27.1736055813509
 30
0.0
 11
8.60250000000022
 21
27.06
 31
0.0
  0
LINE
  8
9
  6
CONTINUOUS
 62
9
 10
8.60250000000022
 20
27.06
 30
0.0
 11
8.589851084016
 21
27.1083735973897
 31
0.0
  0
LINE
  8
9
  6
CONTINUOUS
 62
9
 10
8.5503581560942
 20
30.673605581351
 30
0.0
 11
8.60250000000001
 21
30.56
 31
0.0
  0
LINE
  8
9
  6
CONTINUOUS
 62
9
 10
8.60250000000001
 20
30.56
 30
0.0
 11
8.58985108401585
 21
30.6083735973897
 31
0.0
  0
LINE
  8
9
  6
CONTINUOUS
 62
9
 10
1.34242119178913
 20
30.0423784924835
 30
0.0
 11
1.44762626583317
 21
29.9748737341668
 31
0.0
  0
LINE
  8
9
  6
CONTINUOUS
 62
9
 10
1.44762626583317
 20
29.9748737341668
 30
0.0
 11
1.41087238810947
 21
30.0087728856646
 31
0.0
  0
LINE
  8
9
  6
CONTINUOUS
 62
9
 10
0.74035815609419
 20
31.473605581351
 30
0.0
 11
0.7925
 21
31.36
 31
0.0
  0
LINE
  8
9
  6
CONTINUOUS
 62
9
 10
0.7925
 20
31.36
 30
0.0
 11
0.779851084015841
 21
31.4083735973897
 31
0.0
  0
LINE
  8
9
  6
CONTINUOUS
 62
9
 10
0.740358156094033
 20
34.9736055813509
 30
0.0
 11
0.7925
 21
34.86
 31
0.0
  0
LINE
  8
9
  6
CONTINUOUS
 62
9
 10
0.7925
 20
34.86
 30
0.0
 11
0.779851084015774
 21
34.9083735973897
 31
0.0
  0
LINE
  8
9
  6
CONTINUOUS
 62
9
 10
0.740358156094034
 20
38.6736055813509
 30
0.0
 11
0.792500000000004
 21
38.56
 31
0.0
  0
LINE
  8
9
  6
CONTINUOUS
 62
9
 10
0.792500000000004
 20
38.56
 30
0.0
 11
0.779851084015777
 21
38.6083735973897
 31
0.0
  0
LINE
  8
9
  6
CONTINUOUS
 62
9
 10
0.740358156094192
 20
42.373605581351
 30
0.0
 11
0.792500000000004
 21
42.26
 31
0.0
  0
LINE
  8
9
  6
CONTINUOUS
 62
9
 10
0.792500000000004
 20
42.26
 30
0.0
 11
0.779851084015844
 21
42.3083735973897
 31
0.0
  0
LINE
  8
9
  6
CONTINUOUS
 62
9
 10
0.807975662738536
 20
45.8891055321565
 30
0.0
 11
0.932500000000005
 21
45.9
 31
0.0
  0
LINE
  8
9
  6
CONTINUOUS
 62
9
 10
0.932500000000005
 20
45.9
 30
0.0
 11
0.882690265095417
 21
45.9043577871374
 31
0.0
  0
LINE
  8
9
  6
CONTINUOUS
 62
9
 10
7.96435858622309
 20
45.2804105978222
 30
0.0
 11
7.89737373415293
 21
45.1748737341529
 31
0.0
  0
LINE
  8
9
  6
CONTINUOUS
 62
9
 10
7.89737373415293
 20
45.1748737341529
 30
0.0
 11
7.9310911284353
 21
45.2117944237836
 31
0.0
  0
LINE
  8
9
  6
CONTINUOUS
 62
9
 10
9.33035815609419
 20
45.873605581351
 30
0.0
 11
9.3825
 21
45.76
 31
0.0
  0
LINE
  8
9
  6
CONTINUOUS
 62
9
 10
9.3825
 20
45.76
 30
0.0
 11
9.36985108401584
 21
45.8083735973897
 31
0.0
  0
LINE
  8
9
  6
CONTINUOUS
 62
9
 10
9.33035815609419
 20
42.373605581351
 30
0.0
 11
9.3825
 21
42.26
 31
0.0
  0
LINE
  8
9
  6
CONTINUOUS
 62
9
 10
9.3825
 20
42.26
 30
0.0
 11
9.36985108401584
 21
42.3083735973897
 31
0.0
  0
LINE
  8
9
  6
CONTINUOUS
 62
9
 10
9.33035815609403
 20
38.6736055813509
 30
0.0
 11
9.3825
 21
38.56
 31
0.0
  0
LINE
  8
9
  6
CONTINUOUS
 62
9
 10
9.3825
 20
38.56
 30
0.0
 11
9.36985108401578
 21
38.6083735973897
 31
0.0
  0
LINE
  8
9
  6
CONTINUOUS
 62
9
 10
9.33035815609403
 20
34.9736055813509
 30
0.0
 11
9.3825
 21
34.86
 31
0.0
  0
LINE
  8
9
  6
CONTINUOUS
 62
9
 10
9.3825
 20
34.86
 30
0.0
 11
9.36985108401577
 21
34.9083735973897
 31
0.0
  0
LINE
  8
9
  6
CONTINUOUS
 62
9
 10
9.33035815609419
 20
31.473605581351
 30
0.0
 11
9.3825
 21
31.36
 31
0.0
  0
LINE
  8
9
  6
CONTINUOUS
 62
9
 10
9.3825
 20
31.36
 30
0.0
 11
9.36985108401584
 21
31.4083735973897
 31
0.0
  0
LINE
  8
9
  6
CONTINUOUS
 62
9
 10
16.6034295186974
 20
32.178692927842
 30
0.0
 11
16.4873737341668
 21
32.2251262658332
 31
0.0
  0
LINE
  8
9
  6
CONTINUOUS
 62
9
 10
16.4873737341668
 20
32.2251262658332
 30
0.0
 11
16.5298655629118
 21
32.1987739511358
 31
0.0
  0
LINE
  8
9
  6
CONTINUOUS
 62
9
 10
17.9746418439058
 20
31.526394418649
 30
0.0
 11
17.9225
 21
31.64
 31
0.0
  0
LINE
  8
9
  6
CONTINUOUS
 62
9
 10
17.9225
 20
31.64
 30
0.0
 11
17.9351489159842
 21
31.5916264026102
 31
0.0
  0
LINE
  8
9
  6
CONTINUOUS
 62
9
 10
17.9746418439058
 20
35.0263944186491
 30
0.0
 11
17.9224999999998
 21
35.14
 31
0.0
  0
LINE
  8
9
  6
CONTINUOUS
 62
9
 10
17.9224999999998
 20
35.14
 30
0.0
 11
17.935148915984
 21
35.0916264026103
 31
0.0
  0
LINE
  8
9
  6
CONTINUOUS
 62
9
 10
17.9746418439058
 20
38.7263944186491
 30
0.0
 11
17.9224999999998
 21
38.84
 31
0.0
  0
LINE
  8
9
  6
CONTINUOUS
 62
9
 10
17.9224999999998
 20
38.84
 30
0.0
 11
17.935148915984
 21
38.7916264026103
 31
0.0
  0
LINE
  8
9
  6
CONTINUOUS
 62
9
 10
17.9746418439058
 20
42.426394418649
 30
0.0
 11
17.9225
 21
42.54
 31
0.0
  0
LINE
  8
9
  6
CONTINUOUS
 62
9
 10
17.9225
 20
42.54
 30
0.0
 11
17.9351489159842
 21
42.4916264026103
 31
0.0
  0
LINE
  8
9
  6
CONTINUOUS
 62
9
 10
17.9398849726805
 20
45.880670045964
 30
0.0
 11
17.9725
 21
45.76
 31
0.0
  0
LINE
  8
9
  6
CONTINUOUS
 62
9
 10
17.9725
 20
45.76
 30
0.0
 11
17.9680338407247
 21
45.8098001347521
 31
0.0
  0
LINE
  8
9
  6
CONTINUOUS
 62
9
 10
25.1443585862231
 20
45.2804105978222
 30
0.0
 11
25.0773737341529
 21
45.1748737341529
 31
0.0
  0
LINE
  8
9
  6
CONTINUOUS
 62
9
 10
25.0773737341529
 20
45.1748737341529
 30
0.0
 11
25.1110911284353
 21
45.2117944237836
 31
0.0
  0
LINE
  8
9
  6
CONTINUOUS
 62
9
 10
26.5103581560942
 20
45.873605581351
 30
0.0
 11
26.5625
 21
45.76
 31
0.0
  0
LINE
  8
9
  6
CONTINUOUS
 62
9
 10
26.5625
 20
45.76
 30
0.0
 11
26.5498510840158
 21
45.8083735973897
 31
0.0
  0
LINE
  8
9
  6
CONTINUOUS
 62
9
 10
26.5103581560942
 20
42.373605581351
 30
0.0
 11
26.5625
 21
42.26
 31
0.0
  0
LINE
  8
9
  6
CONTINUOUS
 62
9
 10
26.5625
 20
42.26
 30
0.0
 11
26.5498510840158
 21
42.3083735973897
 31
0.0
  0
LINE
  8
9
  6
CONTINUOUS
 62
9
 10
26.510358156094
 20
38.6736055813509
 30
0.0
 11
26.5625
 21
38.56
 31
0.0
  0
LINE
  8
9
  6
CONTINUOUS
 62
9
 10
26.5625
 20
38.56
 30
0.0
 11
26.5498510840158
 21
38.6083735973897
 31
0.0
  0
LINE
  8
9
  6
CONTINUOUS
 62
9
 10
26.510358156094
 20
34.9736055813509
 30
0.0
 11
26.5625
 21
34.86
 31
0.0
  0
LINE
  8
9
  6
CONTINUOUS
 62
9
 10
26.5625
 20
34.86
 30
0.0
 11
26.5498510840158
 21
34.9083735973897
 31
0.0
  0
LINE
  8
9
  6
CONTINUOUS
 62
9
 10
26.5103581560942
 20
31.473605581351
 30
0.0
 11
26.5625
 21
31.36
 31
0.0
  0
LINE
  8
9
  6
CONTINUOUS
 62
9
 10
26.5625
 20
31.36
 30
0.0
 11
26.5498510840158
 21
31.4083735973897
 31
0.0
  0
LINE
  8
9
  6
CONTINUOUS
 62
9
 10
33.7834295186973
 20
32.178692927842
 30
0.0
 11
33.6673737341668
 21
32.2251262658332
 31
0.0
  0
LINE
  8
9
  6
CONTINUOUS
 62
9
 10
33.6673737341668
 20
32.2251262658332
 30
0.0
 11
33.7098655629118
 21
32.1987739511358
 31
0.0
  0
LINE
  8
9
  6
CONTINUOUS
 62
9
 10
35.1546418439058
 20
31.526394418649
 30
0.0
 11
35.1025
 21
31.64
 31
0.0
  0
LINE
  8
9
  6
CONTINUOUS
 62
9
 10
35.1025
 20
31.64
 30
0.0
 11
35.1151489159842
 21
31.5916264026102
 31
0.0
  0
LINE
  8
9
  6
CONTINUOUS
 62
9
 10
35.1546418439058
 20
35.0263944186491
 30
0.0
 11
35.1024999999998
 21
35.14
 31
0.0
  0
LINE
  8
9
  6
CONTINUOUS
 62
9
 10
35.1024999999998
 20
35.14
 30
0.0
 11
35.115148915984
 21
35.0916264026103
 31
0.0
  0
LINE
  8
9
  6
CONTINUOUS
 62
9
 10
35.1546418439058
 20
38.7263944186491
 30
0.0
 11
35.1024999999998
 21
38.84
 31
0.0
  0
LINE
  8
9
  6
CONTINUOUS
 62
9
 10
35.1024999999998
 20
38.84
 30
0.0
 11
35.115148915984
 21
38.7916264026103
 31
0.0
  0
LINE
  8
9
  6
CONTINUOUS
 62
9
 10
35.1546418439058
 20
42.426394418649
 30
0.0
 11
35.1025
 21
42.54
 31
0.0
  0
LINE
  8
9
  6
CONTINUOUS
 62
9
 10
35.1025
 20
42.54
 30
0.0
 11
35.1151489159842
 21
42.4916264026103
 31
0.0
  0
LINE
  8
9
  6
CONTINUOUS
 62
9
 10
35.1003581560942
 20
45.873605581351
 30
0.0
 11
35.1525
 21
45.76
 31
0.0
  0
LINE
  8
9
  6
CONTINUOUS
 62
9
 10
35.1525
 20
45.76
 30
0.0
 11
35.1398510840158
 21
45.8083735973897
 31
0.0
  0
LINE
  8
9
  6
CONTINUOUS
 62
9
 10
42.3243585862231
 20
45.2804105978222
 30
0.0
 11
42.2573737341529
 21
45.1748737341529
 31
0.0
  0
LINE
  8
9
  6
CONTINUOUS
 62
9
 10
42.2573737341529
 20
45.1748737341529
 30
0.0
 11
42.2910911284353
 21
45.2117944237837
 31
0.0
  0
LINE
  8
9
  6
CONTINUOUS
 62
9
 10
43.6903581560942
 20
15.473605581351
 30
0.0
 11
43.7425
 21
15.36
 31
0.0
  0
LINE
  8
9
  6
CONTINUOUS
 62
9
 10
43.7425
 20
15.36
 30
0.0
 11
43.7298510840158
 21
15.4083735973897
 31
0.0
  0
LINE
  8
9
  6
CONTINUOUS
 62
9
 10
43.6903581560942
 20
11.973605581351
 30
0.0
 11
43.7425
 21
11.86
 31
0.0
  0
LINE
  8
9
  6
CONTINUOUS
 62
9
 10
43.7425
 20
11.86
 30
0.0
 11
43.7298510840158
 21
11.9083735973897
 31
0.0
  0
LINE
  8
9
  6
CONTINUOUS
 62
9
 10
43.690358156094
 20
8.27360558135092
 30
0.0
 11
43.7425
 21
8.15999999999998
 31
0.0
  0
LINE
  8
9
  6
CONTINUOUS
 62
9
 10
43.7425
 20
8.15999999999998
 30
0.0
 11
43.7298510840158
 21
8.20837359738972
 31
0.0
  0
LINE
  8
9
  6
CONTINUOUS
 62
9
 10
43.690358156094
 20
4.57360558135093
 30
0.0
 11
43.7425
 21
4.45999999999998
 31
0.0
  0
LINE
  8
9
  6
CONTINUOUS
 62
9
 10
43.7425
 20
4.45999999999998
 30
0.0
 11
43.7298510840158
 21
4.50837359738972
 31
0.0
  0
LINE
  8
9
  6
CONTINUOUS
 62
9
 10
43.6903581560942
 20
1.073605581351
 30
0.0
 11
43.7425
 21
0.959999999999987
 31
0.0
  0
LINE
  8
9
  6
CONTINUOUS
 62
9
 10
43.7425
 20
0.959999999999987
 30
0.0
 11
43.7298510840158
 21
1.00837359738974
 31
0.0
  0
LINE
  8
9
  6
CONTINUOUS
 62
9
 10
50.9634295186973
 20
1.77869292784198
 30
0.0
 11
50.8473737341668
 21
1.82512626583315
 31
0.0
  0
LINE
  8
9
  6
CONTINUOUS
 62
9
 10
50.8473737341668
 20
1.82512626583315
 30
0.0
 11
50.8898655629118
 21
1.7987739511358
 31
0.0
  0
LINE
  8
9
  6
CONTINUOUS
 62
9
 10
52.3346418439058
 20
1.12639441864897
 30
0.0
 11
52.2825
 21
1.23999999999998
 31
0.0
  0
LINE
  8
9
  6
CONTINUOUS
 62
9
 10
52.2825
 20
1.23999999999998
 30
0.0
 11
52.2951489159842
 21
1.19162640261023
 31
0.0
  0
LINE
  8
9
  6
CONTINUOUS
 62
9
 10
52.3346418439058
 20
4.62639441864904
 30
0.0
 11
52.2824999999998
 21
4.73999999999998
 31
0.0
  0
LINE
  8
9
  6
CONTINUOUS
 62
9
 10
52.2824999999998
 20
4.73999999999998
 30
0.0
 11
52.295148915984
 21
4.69162640261025
 31
0.0
  0
LINE
  8
9
  6
CONTINUOUS
 62
9
 10
52.3346418439058
 20
8.32639441864904
 30
0.0
 11
52.2824999999998
 21
8.43999999999999
 31
0.0
  0
LINE
  8
9
  6
CONTINUOUS
 62
9
 10
52.2824999999998
 20
8.43999999999999
 30
0.0
 11
52.295148915984
 21
8.39162640261025
 31
0.0
  0
LINE
  8
9
  6
CONTINUOUS
 62
9
 10
52.3346418439058
 20
12.026394418649
 30
0.0
 11
52.2825
 21
12.14
 31
0.0
  0
LINE
  8
9
  6
CONTINUOUS
 62
9
 10
52.2825
 20
12.14
 30
0.0
 11
52.2951489159842
 21
12.0916264026102
 31
0.0
  0
LINE
  8
9
  6
CONTINUOUS
 62
9
 10
52.3479756627385
 20
15.4891055321565
 30
0.0
 11
52.4725
 21
15.5
 31
0.0
  0
LINE
  8
9
  6
CONTINUOUS
 62
9
 10
52.4725
 20
15.5
 30
0.0
 11
52.4226902650954
 21
15.5043577871374
 31
0.0
  0
LINE
  8
9
  6
CONTINUOUS
 62
9
 10
59.4797425964313
 20
14.8924742422693
 30
0.0
 11
59.4373737341529
 21
14.7748737341529
 31
0.0
  0
LINE
  8
9
  6
CONTINUOUS
 62
9
 10
59.4373737341529
 20
14.7748737341529
 30
0.0
 11
59.462232253347
 21
14.8182563807236
 31
0.0
  0
LINE
  8
9
  6
CONTINUOUS
 62
9
 10
60.0770243372615
 20
16.3108944678434
 30
0.0
 11
59.9525
 21
16.3
 31
0.0
  0
LINE
  8
9
  6
CONTINUOUS
 62
9
 10
59.9525
 20
16.3
 30
0.0
 11
60.0023097349046
 21
16.2956422128626
 31
0.0
  0
LINE
  8
9
  6
CONTINUOUS
 62
9
 10
60.0903581560942
 20
19.773605581351
 30
0.0
 11
60.1425
 21
19.66
 31
0.0
  0
LINE
  8
9
  6
CONTINUOUS
 62
9
 10
60.1425
 20
19.66
 30
0.0
 11
60.1298510840158
 21
19.7083735973897
 31
0.0
  0
LINE
  8
9
  6
CONTINUOUS
 62
9
 10
60.0903581560942
 20
23.4736055813509
 30
0.0
 11
60.1425000000002
 21
23.36
 31
0.0
  0
LINE
  8
9
  6
CONTINUOUS
 62
9
 10
60.1425000000002
 20
23.36
 30
0.0
 11
60.129851084016
 21
23.4083735973897
 31
0.0
  0
LINE
  8
9
  6
CONTINUOUS
 62
9
 10
60.0903581560943
 20
27.1736055813509
 30
0.0
 11
60.1425000000002
 21
27.06
 31
0.0
  0
LINE
  8
9
  6
CONTINUOUS
 62
9
 10
60.1425000000002
 20
27.06
 30
0.0
 11
60.129851084016
 21
27.1083735973897
 31
0.0
  0
LINE
  8
9
  6
CONTINUOUS
 62
9
 10
60.0903581560942
 20
30.673605581351
 30
0.0
 11
60.1425
 21
30.56
 31
0.0
  0
LINE
  8
9
  6
CONTINUOUS
 62
9
 10
60.1425
 20
30.56
 30
0.0
 11
60.1298510840158
 21
30.6083735973897
 31
0.0
  0
LINE
  8
9
  6
CONTINUOUS
 62
9
 10
52.8682045984392
 20
30.0117988659452
 30
0.0
 11
52.9876262658332
 21
29.9748737341668
 31
0.0
  0
LINE
  8
9
  6
CONTINUOUS
 62
9
 10
52.9876262658332
 20
29.9748737341668
 30
0.0
 11
52.9431481049997
 21
29.9977143385561
 31
0.0
  0
LINE
  8
9
  6
CONTINUOUS
 62
9
 10
51.5546418439058
 20
30.726394418649
 30
0.0
 11
51.5025
 21
30.84
 31
0.0
  0
LINE
  8
9
  6
CONTINUOUS
 62
9
 10
51.5025
 20
30.84
 30
0.0
 11
51.5151489159842
 21
30.7916264026102
 31
0.0
  0
LINE
  8
9
  6
CONTINUOUS
 62
9
 10
51.554641843906
 20
27.2263944186491
 30
0.0
 11
51.5025
 21
27.34
 31
0.0
  0
LINE
  8
9
  6
CONTINUOUS
 62
9
 10
51.5025
 20
27.34
 30
0.0
 11
51.5151489159842
 21
27.2916264026103
 31
0.0
  0
LINE
  8
9
  6
CONTINUOUS
 62
9
 10
51.554641843906
 20
23.526394418649
 30
0.0
 11
51.5025
 21
23.64
 31
0.0
  0
LINE
  8
9
  6
CONTINUOUS
 62
9
 10
51.5025
 20
23.64
 30
0.0
 11
51.5151489159842
 21
23.5916264026103
 31
0.0
  0
LINE
  8
9
  6
CONTINUOUS
 62
9
 10
51.5546418439058
 20
19.826394418649
 30
0.0
 11
51.5025
 21
19.94
 31
0.0
  0
LINE
  8
9
  6
CONTINUOUS
 62
9
 10
51.5025
 20
19.94
 30
0.0
 11
51.5151489159842
 21
19.8916264026102
 31
0.0
  0
LINE
  8
9
  6
CONTINUOUS
 62
9
 10
51.5546418439058
 20
16.326394418649
 30
0.0
 11
51.5025
 21
16.44
 31
0.0
  0
LINE
  8
9
  6
CONTINUOUS
 62
9
 10
51.5025
 20
16.44
 30
0.0
 11
51.5151489159842
 21
16.3916264026102
 31
0.0
  0
LINE
  8
9
  6
CONTINUOUS
 62
9
 10
44.3542330189115
 20
16.9078998775193
 30
0.0
 11
44.3976262658471
 21
17.0251262658471
 31
0.0
  0
LINE
  8
9
  6
CONTINUOUS
 62
9
 10
44.3976262658471
 20
17.0251262658471
 30
0.0
 11
44.3723902039598
 21
16.9819621467153
 31
0.0
  0
LINE
  8
9
  6
CONTINUOUS
 62
9
 10
43.6903581560942
 20
45.873605581351
 30
0.0
 11
43.7425
 21
45.76
 31
0.0
  0
LINE
  8
9
  6
CONTINUOUS
 62
9
 10
43.7425
 20
45.76
 30
0.0
 11
43.7298510840158
 21
45.8083735973897
 31
0.0
  0
LINE
  8
9
  6
CONTINUOUS
 62
9
 10
43.6903581560942
 20
42.373605581351
 30
0.0
 11
43.7425
 21
42.26
 31
0.0
  0
LINE
  8
9
  6
CONTINUOUS
 62
9
 10
43.7425
 20
42.26
 30
0.0
 11
43.7298510840158
 21
42.3083735973897
 31
0.0
  0
LINE
  8
9
  6
CONTINUOUS
 62
9
 10
43.690358156094
 20
38.6736055813509
 30
0.0
 11
43.7425
 21
38.56
 31
0.0
  0
LINE
  8
9
  6
CONTINUOUS
 62
9
 10
43.7425
 20
38.56
 30
0.0
 11
43.7298510840158
 21
38.6083735973897
 31
0.0
  0
LINE
  8
9
  6
CONTINUOUS
 62
9
 10
43.690358156094
 20
34.9736055813509
 30
0.0
 11
43.7425
 21
34.86
 31
0.0
  0
LINE
  8
9
  6
CONTINUOUS
 62
9
 10
43.7425
 20
34.86
 30
0.0
 11
43.7298510840158
 21
34.9083735973897
 31
0.0
  0
LINE
  8
9
  6
CONTINUOUS
 62
9
 10
43.6903581560942
 20
31.473605581351
 30
0.0
 11
43.7425
 21
31.36
 31
0.0
  0
LINE
  8
9
  6
CONTINUOUS
 62
9
 10
43.7425
 20
31.36
 30
0.0
 11
43.7298510840158
 21
31.4083735973897
 31
0.0
  0
LINE
  8
9
  6
CONTINUOUS
 62
9
 10
50.9634295186973
 20
32.178692927842
 30
0.0
 11
50.8473737341668
 21
32.2251262658332
 31
0.0
  0
LINE
  8
9
  6
CONTINUOUS
 62
9
 10
50.8473737341668
 20
32.2251262658332
 30
0.0
 11
50.8898655629118
 21
32.1987739511358
 31
0.0
  0
LINE
  8
9
  6
CONTINUOUS
 62
9
 10
52.3346418439058
 20
31.526394418649
 30
0.0
 11
52.2825
 21
31.64
 31
0.0
  0
LINE
  8
9
  6
CONTINUOUS
 62
9
 10
52.2825
 20
31.64
 30
0.0
 11
52.2951489159842
 21
31.5916264026102
 31
0.0
  0
LINE
  8
9
  6
CONTINUOUS
 62
9
 10
52.3346418439058
 20
35.0263944186491
 30
0.0
 11
52.2824999999998
 21
35.14
 31
0.0
  0
LINE
  8
9
  6
CONTINUOUS
 62
9
 10
52.2824999999998
 20
35.14
 30
0.0
 11
52.295148915984
 21
35.0916264026103
 31
0.0
  0
LINE
  8
9
  6
CONTINUOUS
 62
9
 10
52.3346418439058
 20
38.7263944186491
 30
0.0
 11
52.2824999999998
 21
38.84
 31
0.0
  0
LINE
  8
9
  6
CONTINUOUS
 62
9
 10
52.2824999999998
 20
38.84
 30
0.0
 11
52.295148915984
 21
38.7916264026103
 31
0.0
  0
LINE
  8
9
  6
CONTINUOUS
 62
9
 10
52.3346418439058
 20
42.426394418649
 30
0.0
 11
52.2825
 21
42.54
 31
0.0
  0
LINE
  8
9
  6
CONTINUOUS
 62
9
 10
52.2825
 20
42.54
 30
0.0
 11
52.2951489159842
 21
42.4916264026103
 31
0.0
  0
LINE
  8
9
  6
CONTINUOUS
 62
9
 10
52.2803581560942
 20
45.873605581351
 30
0.0
 11
52.3325
 21
45.76
 31
0.0
  0
LINE
  8
9
  6
CONTINUOUS
 62
9
 10
52.3325
 20
45.76
 30
0.0
 11
52.3198510840158
 21
45.8083735973897
 31
0.0
  0
LINE
  8
9
  6
CONTINUOUS
 62
9
 10
59.5043585862231
 20
45.2804105978222
 30
0.0
 11
59.4373737341529
 21
45.1748737341529
 31
0.0
  0
LINE
  8
9
  6
CONTINUOUS
 62
9
 10
59.4373737341529
 20
45.1748737341529
 30
0.0
 11
59.4710911284353
 21
45.2117944237837
 31
0.0
  0
LINE
  8
9
  6
CONTINUOUS
 62
9
 10
60.8703581560942
 20
15.473605581351
 30
0.0
 11
60.9225
 21
15.36
 31
0.0
  0
LINE
  8
9
  6
CONTINUOUS
 62
9
 10
60.9225
 20
15.36
 30
0.0
 11
60.9098510840158
 21
15.4083735973897
 31
0.0
  0
LINE
  8
9
  6
CONTINUOUS
 62
9
 10
60.8703581560942
 20
11.973605581351
 30
0.0
 11
60.9225
 21
11.86
 31
0.0
  0
LINE
  8
9
  6
CONTINUOUS
 62
9
 10
60.9225
 20
11.86
 30
0.0
 11
60.9098510840158
 21
11.9083735973897
 31
0.0
  0
LINE
  8
9
  6
CONTINUOUS
 62
9
 10
60.870358156094
 20
8.27360558135092
 30
0.0
 11
60.9225
 21
8.15999999999998
 31
0.0
  0
LINE
  8
9
  6
CONTINUOUS
 62
9
 10
60.9225
 20
8.15999999999998
 30
0.0
 11
60.9098510840158
 21
8.20837359738972
 31
0.0
  0
LINE
  8
9
  6
CONTINUOUS
 62
9
 10
60.870358156094
 20
4.57360558135093
 30
0.0
 11
60.9225
 21
4.45999999999998
 31
0.0
  0
LINE
  8
9
  6
CONTINUOUS
 62
9
 10
60.9225
 20
4.45999999999998
 30
0.0
 11
60.9098510840158
 21
4.50837359738972
 31
0.0
  0
LINE
  8
9
  6
CONTINUOUS
 62
9
 10
60.8703581560942
 20
1.073605581351
 30
0.0
 11
60.9225
 21
0.959999999999987
 31
0.0
  0
LINE
  8
9
  6
CONTINUOUS
 62
9
 10
60.9225
 20
0.959999999999987
 30
0.0
 11
60.9098510840158
 21
1.00837359738974
 31
0.0
  0
LINE
  8
9
  6
CONTINUOUS
 62
9
 10
68.1434295186973
 20
1.77869292784198
 30
0.0
 11
68.0273737341668
 21
1.82512626583315
 31
0.0
  0
LINE
  8
9
  6
CONTINUOUS
 62
9
 10
68.0273737341668
 20
1.82512626583315
 30
0.0
 11
68.0698655629118
 21
1.7987739511358
 31
0.0
  0
LINE
  8
9
  6
CONTINUOUS
 62
9
 10
69.5146418439058
 20
1.12639441864897
 30
0.0
 11
69.4625
 21
1.23999999999998
 31
0.0
  0
LINE
  8
9
  6
CONTINUOUS
 62
9
 10
69.4625
 20
1.23999999999998
 30
0.0
 11
69.4751489159842
 21
1.19162640261023
 31
0.0
  0
LINE
  8
9
  6
CONTINUOUS
 62
9
 10
69.5146418439058
 20
4.62639441864904
 30
0.0
 11
69.4624999999998
 21
4.73999999999998
 31
0.0
  0
LINE
  8
9
  6
CONTINUOUS
 62
9
 10
69.4624999999998
 20
4.73999999999998
 30
0.0
 11
69.475148915984
 21
4.69162640261025
 31
0.0
  0
LINE
  8
9
  6
CONTINUOUS
 62
9
 10
69.5146418439058
 20
8.32639441864904
 30
0.0
 11
69.4624999999998
 21
8.43999999999999
 31
0.0
  0
LINE
  8
9
  6
CONTINUOUS
 62
9
 10
69.4624999999998
 20
8.43999999999999
 30
0.0
 11
69.475148915984
 21
8.39162640261025
 31
0.0
  0
LINE
  8
9
  6
CONTINUOUS
 62
9
 10
69.5146418439058
 20
12.026394418649
 30
0.0
 11
69.4625
 21
12.14
 31
0.0
  0
LINE
  8
9
  6
CONTINUOUS
 62
9
 10
69.4625
 20
12.14
 30
0.0
 11
69.4751489159842
 21
12.0916264026102
 31
0.0
  0
LINE
  8
9
  6
CONTINUOUS
 62
9
 10
69.5279756627385
 20
15.4891055321565
 30
0.0
 11
69.6525
 21
15.5
 31
0.0
  0
LINE
  8
9
  6
CONTINUOUS
 62
9
 10
69.6525
 20
15.5
 30
0.0
 11
69.6026902650954
 21
15.5043577871374
 31
0.0
  0
LINE
  8
9
  6
CONTINUOUS
 62
9
 10
76.6597425964313
 20
14.8924742422693
 30
0.0
 11
76.6173737341529
 21
14.7748737341529
 31
0.0
  0
LINE
  8
9
  6
CONTINUOUS
 62
9
 10
76.6173737341529
 20
14.7748737341529
 30
0.0
 11
76.642232253347
 21
14.8182563807236
 31
0.0
  0
LINE
  8
9
  6
CONTINUOUS
 62
9
 10
77.2570243372615
 20
16.3108944678434
 30
0.0
 11
77.1325
 21
16.3
 31
0.0
  0
LINE
  8
9
  6
CONTINUOUS
 62
9
 10
77.1325
 20
16.3
 30
0.0
 11
77.1823097349046
 21
16.2956422128626
 31
0.0
  0
LINE
  8
9
  6
CONTINUOUS
 62
9
 10
77.2703581560942
 20
19.773605581351
 30
0.0
 11
77.3225
 21
19.66
 31
0.0
  0
LINE
  8
9
  6
CONTINUOUS
 62
9
 10
77.3225
 20
19.66
 30
0.0
 11
77.3098510840158
 21
19.7083735973897
 31
0.0
  0
LINE
  8
9
  6
CONTINUOUS
 62
9
 10
77.2703581560942
 20
23.4736055813509
 30
0.0
 11
77.3225000000002
 21
23.36
 31
0.0
  0
LINE
  8
9
  6
CONTINUOUS
 62
9
 10
77.3225000000002
 20
23.36
 30
0.0
 11
77.309851084016
 21
23.4083735973897
 31
0.0
  0
LINE
  8
9
  6
CONTINUOUS
 62
9
 10
77.2703581560943
 20
27.1736055813509
 30
0.0
 11
77.3225000000002
 21
27.06
 31
0.0
  0
LINE
  8
9
  6
CONTINUOUS
 62
9
 10
77.3225000000002
 20
27.06
 30
0.0
 11
77.309851084016
 21
27.1083735973897
 31
0.0
  0
LINE
  8
9
  6
CONTINUOUS
 62
9
 10
77.2703581560942
 20
30.673605581351
 30
0.0
 11
77.3225
 21
30.56
 31
0.0
  0
LINE
  8
9
  6
CONTINUOUS
 62
9
 10
77.3225
 20
30.56
 30
0.0
 11
77.3098510840158
 21
30.6083735973897
 31
0.0
  0
LINE
  8
9
  6
CONTINUOUS
 62
9
 10
70.0482045984392
 20
30.0117988659452
 30
0.0
 11
70.1676262658332
 21
29.9748737341668
 31
0.0
  0
LINE
  8
9
  6
CONTINUOUS
 62
9
 10
70.1676262658332
 20
29.9748737341668
 30
0.0
 11
70.1231481049997
 21
29.9977143385561
 31
0.0
  0
LINE
  8
9
  6
CONTINUOUS
 62
9
 10
68.7346418439058
 20
30.726394418649
 30
0.0
 11
68.6825
 21
30.84
 31
0.0
  0
LINE
  8
9
  6
CONTINUOUS
 62
9
 10
68.6825
 20
30.84
 30
0.0
 11
68.6951489159842
 21
30.7916264026102
 31
0.0
  0
LINE
  8
9
  6
CONTINUOUS
 62
9
 10
68.734641843906
 20
27.2263944186491
 30
0.0
 11
68.6825
 21
27.34
 31
0.0
  0
LINE
  8
9
  6
CONTINUOUS
 62
9
 10
68.6825
 20
27.34
 30
0.0
 11
68.6951489159842
 21
27.2916264026103
 31
0.0
  0
LINE
  8
9
  6
CONTINUOUS
 62
9
 10
68.734641843906
 20
23.526394418649
 30
0.0
 11
68.6825
 21
23.64
 31
0.0
  0
LINE
  8
9
  6
CONTINUOUS
 62
9
 10
68.6825
 20
23.64
 30
0.0
 11
68.6951489159842
 21
23.5916264026103
 31
0.0
  0
LINE
  8
9
  6
CONTINUOUS
 62
9
 10
68.7346418439058
 20
19.826394418649
 30
0.0
 11
68.6825
 21
19.94
 31
0.0
  0
LINE
  8
9
  6
CONTINUOUS
 62
9
 10
68.6825
 20
19.94
 30
0.0
 11
68.6951489159842
 21
19.8916264026102
 31
0.0
  0
LINE
  8
9
  6
CONTINUOUS
 62
9
 10
68.7346418439058
 20
16.326394418649
 30
0.0
 11
68.6825
 21
16.44
 31
0.0
  0
LINE
  8
9
  6
CONTINUOUS
 62
9
 10
68.6825
 20
16.44
 30
0.0
 11
68.6951489159842
 21
16.3916264026102
 31
0.0
  0
LINE
  8
9
  6
CONTINUOUS
 62
9
 10
61.5342330189115
 20
16.9078998775193
 30
0.0
 11
61.5776262658471
 21
17.0251262658471
 31
0.0
  0
LINE
  8
9
  6
CONTINUOUS
 62
9
 10
61.5776262658471
 20
17.0251262658471
 30
0.0
 11
61.5523902039598
 21
16.9819621467153
 31
0.0
  0
LINE
  8
9
  6
CONTINUOUS
 62
9
 10
60.8703581560942
 20
45.873605581351
 30
0.0
 11
60.9225
 21
45.76
 31
0.0
  0
LINE
  8
9
  6
CONTINUOUS
 62
9
 10
60.9225
 20
45.76
 30
0.0
 11
60.9098510840158
 21
45.8083735973897
 31
0.0
  0
LINE
  8
9
  6
CONTINUOUS
 62
9
 10
60.8703581560942
 20
42.373605581351
 30
0.0
 11
60.9225
 21
42.26
 31
0.0
  0
LINE
  8
9
  6
CONTINUOUS
 62
9
 10
60.9225
 20
42.26
 30
0.0
 11
60.9098510840158
 21
42.3083735973897
 31
0.0
  0
LINE
  8
9
  6
CONTINUOUS
 62
9
 10
60.870358156094
 20
38.6736055813509
 30
0.0
 11
60.9225
 21
38.56
 31
0.0
  0
LINE
  8
9
  6
CONTINUOUS
 62
9
 10
60.9225
 20
38.56
 30
0.0
 11
60.9098510840158
 21
38.6083735973897
 31
0.0
  0
LINE
  8
9
  6
CONTINUOUS
 62
9
 10
60.870358156094
 20
34.9736055813509
 30
0.0
 11
60.9225
 21
34.86
 31
0.0
  0
LINE
  8
9
  6
CONTINUOUS
 62
9
 10
60.9225
 20
34.86
 30
0.0
 11
60.9098510840158
 21
34.9083735973897
 31
0.0
  0
LINE
  8
9
  6
CONTINUOUS
 62
9
 10
60.8703581560942
 20
31.473605581351
 30
0.0
 11
60.9225
 21
31.36
 31
0.0
  0
LINE
  8
9
  6
CONTINUOUS
 62
9
 10
60.9225
 20
31.36
 30
0.0
 11
60.9098510840158
 21
31.4083735973897
 31
0.0
  0
LINE
  8
9
  6
CONTINUOUS
 62
9
 10
68.1434295186973
 20
32.178692927842
 30
0.0
 11
68.0273737341668
 21
32.2251262658332
 31
0.0
  0
LINE
  8
9
  6
CONTINUOUS
 62
9
 10
68.0273737341668
 20
32.2251262658332
 30
0.0
 11
68.0698655629118
 21
32.1987739511358
 31
0.0
  0
LINE
  8
9
  6
CONTINUOUS
 62
9
 10
69.5146418439058
 20
31.526394418649
 30
0.0
 11
69.4625
 21
31.64
 31
0.0
  0
LINE
  8
9
  6
CONTINUOUS
 62
9
 10
69.4625
 20
31.64
 30
0.0
 11
69.4751489159842
 21
31.5916264026102
 31
0.0
  0
LINE
  8
9
  6
CONTINUOUS
 62
9
 10
69.5146418439058
 20
35.0263944186491
 30
0.0
 11
69.4624999999998
 21
35.14
 31
0.0
  0
LINE
  8
9
  6
CONTINUOUS
 62
9
 10
69.4624999999998
 20
35.14
 30
0.0
 11
69.475148915984
 21
35.0916264026103
 31
0.0
  0
LINE
  8
9
  6
CONTINUOUS
 62
9
 10
69.5146418439058
 20
38.7263944186491
 30
0.0
 11
69.4624999999998
 21
38.84
 31
0.0
  0
LINE
  8
9
  6
CONTINUOUS
 62
9
 10
69.4624999999998
 20
38.84
 30
0.0
 11
69.475148915984
 21
38.7916264026103
 31
0.0
  0
LINE
  8
9
  6
CONTINUOUS
 62
9
 10
69.5146418439058
 20
42.426394418649
 30
0.0
 11
69.4625
 21
42.54
 31
0.0
  0
LINE
  8
9
  6
CONTINUOUS
 62
9
 10
69.4625
 20
42.54
 30
0.0
 11
69.4751489159842
 21
42.4916264026103
 31
0.0
  0
LINE
  8
9
  6
CONTINUOUS
 62
9
 10
69.4603581560942
 20
45.873605581351
 30
0.0
 11
69.5125
 21
45.76
 31
0.0
  0
LINE
  8
9
  6
CONTINUOUS
 62
9
 10
69.5125
 20
45.76
 30
0.0
 11
69.4998510840158
 21
45.8083735973897
 31
0.0
  0
LINE
  8
9
  6
CONTINUOUS
 62
9
 10
76.6843585862231
 20
45.2804105978222
 30
0.0
 11
76.6173737341529
 21
45.1748737341529
 31
0.0
  0
LINE
  8
9
  6
CONTINUOUS
 62
9
 10
76.6173737341529
 20
45.1748737341529
 30
0.0
 11
76.6510911284353
 21
45.2117944237837
 31
0.0
  0
LINE
  8
9
  6
CONTINUOUS
 62
9
 10
78.0503581560942
 20
15.473605581351
 30
0.0
 11
78.1025
 21
15.36
 31
0.0
  0
LINE
  8
9
  6
CONTINUOUS
 62
9
 10
78.1025
 20
15.36
 30
0.0
 11
78.0898510840158
 21
15.4083735973897
 31
0.0
  0
LINE
  8
9
  6
CONTINUOUS
 62
9
 10
78.0503581560942
 20
11.973605581351
 30
0.0
 11
78.1025
 21
11.86
 31
0.0
  0
LINE
  8
9
  6
CONTINUOUS
 62
9
 10
78.1025
 20
11.86
 30
0.0
 11
78.0898510840158
 21
11.9083735973897
 31
0.0
  0
LINE
  8
9
  6
CONTINUOUS
 62
9
 10
78.050358156094
 20
8.27360558135092
 30
0.0
 11
78.1025
 21
8.15999999999998
 31
0.0
  0
LINE
  8
9
  6
CONTINUOUS
 62
9
 10
78.1025
 20
8.15999999999998
 30
0.0
 11
78.0898510840158
 21
8.20837359738972
 31
0.0
  0
LINE
  8
9
  6
CONTINUOUS
 62
9
 10
78.050358156094
 20
4.57360558135093
 30
0.0
 11
78.1025
 21
4.45999999999998
 31
0.0
  0
LINE
  8
9
  6
CONTINUOUS
 62
9
 10
78.1025
 20
4.45999999999998
 30
0.0
 11
78.0898510840158
 21
4.50837359738972
 31
0.0
  0
LINE
  8
9
  6
CONTINUOUS
 62
9
 10
78.0503581560942
 20
1.073605581351
 30
0.0
 11
78.1025
 21
0.959999999999987
 31
0.0
  0
LINE
  8
9
  6
CONTINUOUS
 62
9
 10
78.1025
 20
0.959999999999987
 30
0.0
 11
78.0898510840158
 21
1.00837359738974
 31
0.0
  0
LINE
  8
9
  6
CONTINUOUS
 62
9
 10
85.3234295186973
 20
1.77869292784198
 30
0.0
 11
85.2073737341668
 21
1.82512626583315
 31
0.0
  0
LINE
  8
9
  6
CONTINUOUS
 62
9
 10
85.2073737341668
 20
1.82512626583315
 30
0.0
 11
85.2498655629118
 21
1.7987739511358
 31
0.0
  0
LINE
  8
9
  6
CONTINUOUS
 62
9
 10
86.6946418439058
 20
1.12639441864897
 30
0.0
 11
86.6425
 21
1.23999999999998
 31
0.0
  0
LINE
  8
9
  6
CONTINUOUS
 62
9
 10
86.6425
 20
1.23999999999998
 30
0.0
 11
86.6551489159842
 21
1.19162640261023
 31
0.0
  0
LINE
  8
9
  6
CONTINUOUS
 62
9
 10
86.6946418439058
 20
4.62639441864904
 30
0.0
 11
86.6424999999998
 21
4.73999999999998
 31
0.0
  0
LINE
  8
9
  6
CONTINUOUS
 62
9
 10
86.6424999999998
 20
4.73999999999998
 30
0.0
 11
86.655148915984
 21
4.69162640261025
 31
0.0
  0
LINE
  8
9
  6
CONTINUOUS
 62
9
 10
86.6946418439058
 20
8.32639441864904
 30
0.0
 11
86.6424999999998
 21
8.43999999999999
 31
0.0
  0
LINE
  8
9
  6
CONTINUOUS
 62
9
 10
86.6424999999998
 20
8.43999999999999
 30
0.0
 11
86.655148915984
 21
8.39162640261025
 31
0.0
  0
LINE
  8
9
  6
CONTINUOUS
 62
9
 10
86.6946418439058
 20
12.026394418649
 30
0.0
 11
86.6425
 21
12.14
 31
0.0
  0
LINE
  8
9
  6
CONTINUOUS
 62
9
 10
86.6425
 20
12.14
 30
0.0
 11
86.6551489159842
 21
12.0916264026102
 31
0.0
  0
LINE
  8
9
  6
CONTINUOUS
 62
9
 10
86.7079756627385
 20
15.4891055321565
 30
0.0
 11
86.8325
 21
15.5
 31
0.0
  0
LINE
  8
9
  6
CONTINUOUS
 62
9
 10
86.8325
 20
15.5
 30
0.0
 11
86.7826902650954
 21
15.5043577871374
 31
0.0
  0
LINE
  8
9
  6
CONTINUOUS
 62
9
 10
93.8397425964313
 20
14.8924742422693
 30
0.0
 11
93.7973737341529
 21
14.7748737341529
 31
0.0
  0
LINE
  8
9
  6
CONTINUOUS
 62
9
 10
93.7973737341529
 20
14.7748737341529
 30
0.0
 11
93.822232253347
 21
14.8182563807236
 31
0.0
  0
LINE
  8
9
  6
CONTINUOUS
 62
9
 10
94.4370243372615
 20
16.3108944678434
 30
0.0
 11
94.3125
 21
16.3
 31
0.0
  0
LINE
  8
9
  6
CONTINUOUS
 62
9
 10
94.3125
 20
16.3
 30
0.0
 11
94.3623097349046
 21
16.2956422128626
 31
0.0
  0
LINE
  8
9
  6
CONTINUOUS
 62
9
 10
94.4503581560942
 20
19.773605581351
 30
0.0
 11
94.5025
 21
19.66
 31
0.0
  0
LINE
  8
9
  6
CONTINUOUS
 62
9
 10
94.5025
 20
19.66
 30
0.0
 11
94.4898510840158
 21
19.7083735973897
 31
0.0
  0
LINE
  8
9
  6
CONTINUOUS
 62
9
 10
94.4503581560942
 20
23.4736055813509
 30
0.0
 11
94.5025000000002
 21
23.36
 31
0.0
  0
LINE
  8
9
  6
CONTINUOUS
 62
9
 10
94.5025000000002
 20
23.36
 30
0.0
 11
94.489851084016
 21
23.4083735973897
 31
0.0
  0
LINE
  8
9
  6
CONTINUOUS
 62
9
 10
94.4503581560943
 20
27.1736055813509
 30
0.0
 11
94.5025000000002
 21
27.06
 31
0.0
  0
LINE
  8
9
  6
CONTINUOUS
 62
9
 10
94.5025000000002
 20
27.06
 30
0.0
 11
94.489851084016
 21
27.1083735973897
 31
0.0
  0
LINE
  8
9
  6
CONTINUOUS
 62
9
 10
94.4503581560942
 20
30.673605581351
 30
0.0
 11
94.5025
 21
30.56
 31
0.0
  0
LINE
  8
9
  6
CONTINUOUS
 62
9
 10
94.5025
 20
30.56
 30
0.0
 11
94.4898510840158
 21
30.6083735973897
 31
0.0
  0
LINE
  8
9
  6
CONTINUOUS
 62
9
 10
87.2282045984392
 20
30.0117988659452
 30
0.0
 11
87.3476262658332
 21
29.9748737341668
 31
0.0
  0
LINE
  8
9
  6
CONTINUOUS
 62
9
 10
87.3476262658332
 20
29.9748737341668
 30
0.0
 11
87.3031481049997
 21
29.9977143385561
 31
0.0
  0
LINE
  8
9
  6
CONTINUOUS
 62
9
 10
85.9146418439058
 20
30.726394418649
 30
0.0
 11
85.8625
 21
30.84
 31
0.0
  0
LINE
  8
9
  6
CONTINUOUS
 62
9
 10
85.8625
 20
30.84
 30
0.0
 11
85.8751489159842
 21
30.7916264026102
 31
0.0
  0
LINE
  8
9
  6
CONTINUOUS
 62
9
 10
85.914641843906
 20
27.2263944186491
 30
0.0
 11
85.8625
 21
27.34
 31
0.0
  0
LINE
  8
9
  6
CONTINUOUS
 62
9
 10
85.8625
 20
27.34
 30
0.0
 11
85.8751489159842
 21
27.2916264026103
 31
0.0
  0
LINE
  8
9
  6
CONTINUOUS
 62
9
 10
85.914641843906
 20
23.526394418649
 30
0.0
 11
85.8625
 21
23.64
 31
0.0
  0
LINE
  8
9
  6
CONTINUOUS
 62
9
 10
85.8625
 20
23.64
 30
0.0
 11
85.8751489159842
 21
23.5916264026103
 31
0.0
  0
LINE
  8
9
  6
CONTINUOUS
 62
9
 10
85.9146418439058
 20
19.826394418649
 30
0.0
 11
85.8625
 21
19.94
 31
0.0
  0
LINE
  8
9
  6
CONTINUOUS
 62
9
 10
85.8625
 20
19.94
 30
0.0
 11
85.8751489159842
 21
19.8916264026102
 31
0.0
  0
LINE
  8
9
  6
CONTINUOUS
 62
9
 10
85.9146418439058
 20
16.326394418649
 30
0.0
 11
85.8625
 21
16.44
 31
0.0
  0
LINE
  8
9
  6
CONTINUOUS
 62
9
 10
85.8625
 20
16.44
 30
0.0
 11
85.8751489159842
 21
16.3916264026102
 31
0.0
  0
LINE
  8
9
  6
CONTINUOUS
 62
9
 10
78.7142330189115
 20
16.9078998775193
 30
0.0
 11
78.7576262658471
 21
17.0251262658471
 31
0.0
  0
LINE
  8
9
  6
CONTINUOUS
 62
9
 10
78.7576262658471
 20
17.0251262658471
 30
0.0
 11
78.7323902039598
 21
16.9819621467153
 31
0.0
  0
LINE
  8
9
  6
CONTINUOUS
 62
9
 10
78.0503581560942
 20
45.873605581351
 30
0.0
 11
78.1025
 21
45.76
 31
0.0
  0
LINE
  8
9
  6
CONTINUOUS
 62
9
 10
78.1025
 20
45.76
 30
0.0
 11
78.0898510840158
 21
45.8083735973897
 31
0.0
  0
LINE
  8
9
  6
CONTINUOUS
 62
9
 10
78.0503581560942
 20
42.373605581351
 30
0.0
 11
78.1025
 21
42.26
 31
0.0
  0
LINE
  8
9
  6
CONTINUOUS
 62
9
 10
78.1025
 20
42.26
 30
0.0
 11
78.0898510840158
 21
42.3083735973897
 31
0.0
  0
LINE
  8
9
  6
CONTINUOUS
 62
9
 10
78.050358156094
 20
38.6736055813509
 30
0.0
 11
78.1025
 21
38.56
 31
0.0
  0
LINE
  8
9
  6
CONTINUOUS
 62
9
 10
78.1025
 20
38.56
 30
0.0
 11
78.0898510840158
 21
38.6083735973897
 31
0.0
  0
LINE
  8
9
  6
CONTINUOUS
 62
9
 10
78.050358156094
 20
34.9736055813509
 30
0.0
 11
78.1025
 21
34.86
 31
0.0
  0
LINE
  8
9
  6
CONTINUOUS
 62
9
 10
78.1025
 20
34.86
 30
0.0
 11
78.0898510840158
 21
34.9083735973897
 31
0.0
  0
LINE
  8
9
  6
CONTINUOUS
 62
9
 10
78.0503581560942
 20
31.473605581351
 30
0.0
 11
78.1025
 21
31.36
 31
0.0
  0
LINE
  8
9
  6
CONTINUOUS
 62
9
 10
78.1025
 20
31.36
 30
0.0
 11
78.0898510840158
 21
31.4083735973897
 31
0.0
  0
LINE
  8
9
  6
CONTINUOUS
 62
9
 10
85.3234295186973
 20
32.178692927842
 30
0.0
 11
85.2073737341668
 21
32.2251262658332
 31
0.0
  0
LINE
  8
9
  6
CONTINUOUS
 62
9
 10
85.2073737341668
 20
32.2251262658332
 30
0.0
 11
85.2498655629118
 21
32.1987739511358
 31
0.0
  0
LINE
  8
9
  6
CONTINUOUS
 62
9
 10
86.6946418439058
 20
31.526394418649
 30
0.0
 11
86.6425
 21
31.64
 31
0.0
  0
LINE
  8
9
  6
CONTINUOUS
 62
9
 10
86.6425
 20
31.64
 30
0.0
 11
86.6551489159842
 21
31.5916264026102
 31
0.0
  0
LINE
  8
9
  6
CONTINUOUS
 62
9
 10
86.6946418439058
 20
35.0263944186491
 30
0.0
 11
86.6424999999998
 21
35.14
 31
0.0
  0
LINE
  8
9
  6
CONTINUOUS
 62
9
 10
86.6424999999998
 20
35.14
 30
0.0
 11
86.655148915984
 21
35.0916264026103
 31
0.0
  0
LINE
  8
9
  6
CONTINUOUS
 62
9
 10
86.6946418439058
 20
38.7263944186491
 30
0.0
 11
86.6424999999998
 21
38.84
 31
0.0
  0
LINE
  8
9
  6
CONTINUOUS
 62
9
 10
86.6424999999998
 20
38.84
 30
0.0
 11
86.655148915984
 21
38.7916264026103
 31
0.0
  0
LINE
  8
9
  6
CONTINUOUS
 62
9
 10
86.6946418439058
 20
42.426394418649
 30
0.0
 11
86.6425
 21
42.54
 31
0.0
  0
LINE
  8
9
  6
CONTINUOUS
 62
9
 10
86.6425
 20
42.54
 30
0.0
 11
86.6551489159842
 21
42.4916264026103
 31
0.0
  0
LINE
  8
9
  6
CONTINUOUS
 62
9
 10
86.6403581560942
 20
45.873605581351
 30
0.0
 11
86.6925
 21
45.76
 31
0.0
  0
LINE
  8
9
  6
CONTINUOUS
 62
9
 10
86.6925
 20
45.76
 30
0.0
 11
86.6798510840158
 21
45.8083735973897
 31
0.0
  0
LINE
  8
9
  6
CONTINUOUS
 62
9
 10
93.8643585862231
 20
45.2804105978222
 30
0.0
 11
93.7973737341529
 21
45.1748737341529
 31
0.0
  0
LINE
  8
9
  6
CONTINUOUS
 62
9
 10
93.7973737341529
 20
45.1748737341529
 30
0.0
 11
93.8310911284353
 21
45.2117944237837
 31
0.0
  0
ENDSEC
  0
EOF
